<?xml version="1.0" encoding="utf-8"?><svg width="168" height="160" viewBox="0 0 168 160" xmlns="http://www.w3.org/2000/svg" xmlns:xlink="http://www.w3.org/1999/xlink"><svg viewBox="4 0 24 32" width="24" height="32" id="attention--xs" x="24" xmlns="http://www.w3.org/2000/svg"><path d="M21.74 18a7.05 7.05 0 01-1.15-2.88c0-2.6-.91-4.54-2.41-5.47a2.28 2.28 0 00-4.37 0c-1.5.94-2.4 2.87-2.4 5.47A7.05 7.05 0 0110.26 18c-.67 1.17-1.26 2.19-.76 3.11a1.79 1.79 0 001.68.89h2.57a2.28 2.28 0 004.52 0h2.62a1.83 1.83 0 001.61-.89c.5-.92-.09-1.94-.76-3.11zM16 20h-4.56c.15-.31.38-.72.56-1a8.31 8.31 0 001.41-3.87c0-.68.13-4.09 2.59-4.1s2.59 3.42 2.59 4.1A8.31 8.31 0 0020 19c.18.31.41.72.55 1z" fill="#e2001a"/></svg><svg viewBox="4 0 24 32" width="24" height="32" id="cat-tree--xs" x="120" y="32" xmlns="http://www.w3.org/2000/svg"><path d="M22 22h-1V9a1 1 0 00-1-1h-8a1 1 0 00-1 1v2.33a2 2 0 102 0V10h6v6h-6.74A1.27 1.27 0 0011 17.26V22h-1a1 1 0 000 2h12a1 1 0 000-2zm-9-4h3v4h-3zm5 4v-4h1v4z" fill="#e2001a"/></svg><svg viewBox="4 0 24 32" width="24" height="32" id="children--xs" x="48" xmlns="http://www.w3.org/2000/svg"><path d="M16 18a1 1 0 000 2 1 1 0 000-2zM14.71 15.29l-.15-.12-.17-.1-.19-.07a1 1 0 00-.9.27.83.83 0 00-.22.33 1 1 0 00-.08.4 1 1 0 00.3.71 1 1 0 00.7.29 1 1 0 00.71-.29 1.19 1.19 0 00.22-.33 1.07 1.07 0 000-.76 1 1 0 00-.22-.33zM18.71 15.29a1 1 0 00-.9-.27l-.19.05a1 1 0 00-.17.1.61.61 0 00-.15.12.83.83 0 00-.22.33 1 1 0 00.22 1.09A1 1 0 0019 16a1 1 0 00-.07-.38 1 1 0 00-.22-.33z" fill="#e2001a"/><path d="M24 15.51a2 2 0 00-1.43-1.91 7 7 0 00-13.13 0 2 2 0 00-.31 3.71 7 7 0 0013.75 0 2 2 0 001.12-1.8zM16 21a5 5 0 01-3.16-8.85C13.8 13.73 15.39 14 17 14a1 1 0 000-2c-1.32 0-2-.19-2.4-.78A5 5 0 1116 21z" fill="#e2001a"/></svg><svg viewBox="4 0 24 32" width="24" height="32" id="deafness--xs" y="32" xmlns="http://www.w3.org/2000/svg"><path d="M22.42 16l1.29-1.28a1 1 0 000-1.41 1 1 0 00-1.42 0L21 14.62l-1.31-1.3a1 1 0 00-1.41 0 1 1 0 000 1.41L19.59 16l-1.27 1.3A1 1 0 0019 19a1 1 0 00.71-.29L21 17.44l1.29 1.27A1 1 0 0023 19a1 1 0 00.71-.29 1 1 0 000-1.42zM15.45 11.11a1 1 0 00-1 .09L10.67 14H9a1 1 0 00-1 1v2a1 1 0 001 1h1.67l3.73 2.8a1 1 0 001 .09A1 1 0 0016 20v-8a1 1 0 00-.55-.89zM14 18l-2-1.5v-1l2-1.5z" fill="#e2001a"/></svg><svg viewBox="4 0 24 32" width="24" height="32" id="enjoys-training--xs" x="24" y="32" xmlns="http://www.w3.org/2000/svg"><path d="M14.07 15.24a4.42 4.42 0 10-1.65 8.51 4.54 4.54 0 001.15-.15 4.22 4.22 0 001.63-.84l5.86.95h.16a1 1 0 00.58-.18l1.77-1.25a1 1 0 00.43-.86 1 1 0 00-.5-.82l-8.86-5.12zm-1 6.43a2.42 2.42 0 01-3-1.72 2.43 2.43 0 013.56-2.73 2.42 2.42 0 01.89 3.31 2.44 2.44 0 01-1.47 1.14zm7.93 0L16.53 21a4.49 4.49 0 00.31-1.88l4.3 2.49zM16.71 12.46L19 14.82a1.38 1.38 0 001 .42 1.41 1.41 0 001-.42l2.29-2.37a2.31 2.31 0 00.5-.74 2.41 2.41 0 00.21-1.45 2.5 2.5 0 00-2-2 2.53 2.53 0 00-2 .46 2.53 2.53 0 00-2-.46 2.5 2.5 0 00-1.82 3.43 2.66 2.66 0 00.53.77zm1.68-2.2h.11a.51.51 0 01.32.11.48.48 0 01.18.38 1 1 0 102 0 .51.51 0 01.18-.38.55.55 0 01.43-.1.47.47 0 01.38.38.45.45 0 010 .28s0 .06-.1.14L20 13l-1.85-1.91a.75.75 0 01-.11-.14.48.48 0 010-.29.49.49 0 01.35-.4z" fill="#e2001a"/></svg><svg viewBox="4 0 24 32" width="24" height="32" id="exercise--xs" x="48" y="32" xmlns="http://www.w3.org/2000/svg"><path d="M23 15h-1a1 1 0 00-1-1v-1a1 1 0 00-1-1h-1a1 1 0 00-1 1v2h-4v-2a1 1 0 00-1-1h-1a1 1 0 00-1 1v1a1 1 0 00-1 1H9a1 1 0 000 2h1a1 1 0 001 1v1a1 1 0 001 1h1a1 1 0 001-1v-2h4v2a1 1 0 001 1h1a1 1 0 001-1v-1a1 1 0 001-1h1a1 1 0 000-2z" fill="#e2001a"/></svg><svg viewBox="4 0 24 32" width="24" height="32" id="experience--xs" x="72" xmlns="http://www.w3.org/2000/svg"><path d="M16 8a6 6 0 00-6 6 5.94 5.94 0 002 4.47V23a1 1 0 001.55.83L16 22.2l2.45 1.63A1 1 0 0020 23v-4.53A5.94 5.94 0 0022 14a6 6 0 00-6-6zm2.4 9.2a1 1 0 00-.4.8v3.13l-1.45-1a1 1 0 00-1.1 0l-1.45 1v-3.06a1 1 0 00-.37-.85A4 4 0 0112 14a4 4 0 018 0 4 4 0 01-1.6 3.2z" fill="#e2001a"/><path d="M16 11a3 3 0 103 3 3 3 0 00-3-3zm0 4a1 1 0 111-1 1 1 0 01-1 1z" fill="#e2001a"/></svg><svg viewBox="4 0 24 32" width="24" height="32" id="family--xs" x="72" y="32" xmlns="http://www.w3.org/2000/svg"><path d="M16 24a1.59 1.59 0 01-1.16-.5l-3.43-3.65a3 3 0 01-.65-1 3.36 3.36 0 01-.2-1.91 3.27 3.27 0 012.55-2.61 3.19 3.19 0 012.68.67l.21.18.2-.18a3.21 3.21 0 012.68-.67A3.27 3.27 0 0121.44 17a3.36 3.36 0 01-.19 1.91 3.14 3.14 0 01-.66 1l-3.43 3.65A1.56 1.56 0 0116 24zm.3-1.88zm-2.55-5.84a1.07 1.07 0 00-.25 0 1.26 1.26 0 00-1 1 1.28 1.28 0 00.07.78 1.22 1.22 0 00.27.38L16 21.81l3.14-3.34a1.48 1.48 0 00.26-.37 1.3 1.3 0 00.07-.78 1.26 1.26 0 00-1-1 1.2 1.2 0 00-1 .25 1.31 1.31 0 00-.48 1 1 1 0 11-2 0 1.31 1.31 0 00-.48-1 1.22 1.22 0 00-.76-.29z" fill="#e2001a"/><path d="M9 15a1 1 0 01-.81-.42 1 1 0 01.23-1.39l7-5a1 1 0 011.16 0l7 5a1 1 0 01.23 1.4 1 1 0 01-1.39.23L16 10.23l-6.42 4.59A1 1 0 019 15z" fill="#e2001a"/></svg><svg viewBox="4 0 24 32" width="24" height="32" id="first-time--xs" y="64" xmlns="http://www.w3.org/2000/svg"><path d="M19 24a1 1 0 01-.55-.17L16 22.2l-2.45 1.63A1 1 0 0112 23v-5a1 1 0 012 0v3.13l1.45-1a1 1 0 011.1 0l1.45 1V18a1 1 0 012 0v5a1 1 0 01-.53.88A1 1 0 0119 24z" fill="#e2001a"/><path d="M13 19a1 1 0 01-.6-.2 6 6 0 117.2 0 1 1 0 01-1.2-1.6A4 4 0 0020 14a4 4 0 00-8 0 4 4 0 001.6 3.2 1 1 0 01.2 1.4 1 1 0 01-.8.4z" fill="#e2001a"/><path d="M16 17a1 1 0 01-1-1v-1a1 1 0 01-.71-.29 1 1 0 010-1.42l1-1a1 1 0 011.09-.21A1 1 0 0117 13v3a1 1 0 01-1 1z" fill="#e2001a"/></svg><svg viewBox="4 0 24 32" width="24" height="32" id="friendly--xs" x="24" y="64" xmlns="http://www.w3.org/2000/svg"><path d="M16.26 18.67a3.41 3.41 0 00.74-2.54A3.54 3.54 0 0013.86 13 3.5 3.5 0 0010 16.59a3.4 3.4 0 00.72 2.11A4.84 4.84 0 008 23a1 1 0 001 1h8.39c1.16 0 1.61-.43 1.62-1a4.81 4.81 0 00-2.75-4.33zM12 16.58A1.49 1.49 0 0113.5 15a1.49 1.49 0 110 3 1.38 1.38 0 01-1.5-1.42zM10.18 22a3.43 3.43 0 013.32-2 3.36 3.36 0 013.32 2zM24 10a2.51 2.51 0 00-2-2 2.54 2.54 0 00-2 .46 2.5 2.5 0 00-3.8 3 2.66 2.66 0 00.51.74L19 14.58a1.4 1.4 0 001 .42 1.41 1.41 0 001-.42l2.29-2.37a2.52 2.52 0 00.51-.74A2.57 2.57 0 0024 10zm-2 .67a.4.4 0 01-.1.13L20 12.74l-1.85-1.91a.75.75 0 01-.11-.14.48.48 0 010-.29.49.49 0 01.38-.38h.11a.51.51 0 01.32.11.49.49 0 01.18.38 1 1 0 002 0 .53.53 0 01.18-.38.55.55 0 01.43-.1.47.47 0 01.38.38.48.48 0 01-.02.28z" fill="#e2001a"/></svg><svg viewBox="4 0 24 32" width="24" height="32" id="grooming--xs" x="48" y="64" xmlns="http://www.w3.org/2000/svg"><path d="M23.16 10.37l-.32-.32-1.64-1.64a1 1 0 10-1.41 1.41l1.64 1.65.31.31a.86.86 0 010 1.24l-.74.78-2.85-2.8a1 1 0 00-1.41 1.41l2.81 2.82-1.4 1.4-2.81-2.81a1 1 0 00-1.42 0 1 1 0 000 1.41L16.73 18l-1.4 1.4-2.81-2.81A1 1 0 0011.11 18l2.81 2.82-.78.78a.89.89 0 01-1.24 0l-.32-.31-1.87-1.86a1 1 0 00-1.42 1.42l1.88 1.88.31.31a2.89 2.89 0 002 .84 2.85 2.85 0 002-.84L16 21.55l7.12-7.11a2.89 2.89 0 00.04-4.07z" fill="#e2001a"/></svg><svg viewBox="4 0 24 32" width="24" height="32" id="guard-dog--xs" x="72" y="64" xmlns="http://www.w3.org/2000/svg"><g fill="#e2001a"><path d="M20 13v-.8A4.1 4.1 0 0016 8a4.1 4.1 0 00-4 4.2v.8a3 3 0 00-3 3v5a3 3 0 003 3h8a3 3 0 003-3v-5a3 3 0 00-3-3zm-6-.8a2.11 2.11 0 012-2.2 2.11 2.11 0 012 2.2v.8h-4zm7 8.8a1 1 0 01-1 1h-8a1 1 0 01-1-1v-5a1 1 0 011-1h8a1 1 0 011 1z"/><path d="M18 18a2 2 0 00-4 0 2 2 0 001 1.72V20a1 1 0 002 0v-.28A2 2 0 0018 18z"/></g></svg><svg viewBox="4 0 24 32" width="24" height="32" id="heat--xs" x="96" xmlns="http://www.w3.org/2000/svg"><path d="M23 15h-2.6a4.69 4.69 0 00-.59-1.42l1.9-1.89a1 1 0 00-1.42-1.42l-1.89 1.9a4.42 4.42 0 00-1.4-.58V9a1 1 0 00-2 0v2.57a4.42 4.42 0 00-1.4.58l-1.89-1.9a1 1 0 00-1.42 1.42l1.9 1.89A4.69 4.69 0 0011.6 15H9a1 1 0 000 2h2.59a4.64 4.64 0 00.58 1.37l-1.9 1.9a1 1 0 000 1.42 1 1 0 001.42 0l1.9-1.9a4.27 4.27 0 001.39.58V23a1 1 0 102 0v-2.63a4.27 4.27 0 001.39-.58l1.9 1.9a1 1 0 001.42 0 1 1 0 000-1.42l-1.9-1.9a4.64 4.64 0 00.6-1.37H23a1 1 0 100-2zm-7 3.49A2.51 2.51 0 1118.51 16 2.51 2.51 0 0116 18.49z" fill="#e2001a"/></svg><svg viewBox="4 0 24 32" width="24" height="32" id="human-interaction--xs" x="96" y="32" xmlns="http://www.w3.org/2000/svg"><path d="M19.43 16.62a5 5 0 10-6.86 0A6.74 6.74 0 008 23a1 1 0 001 1h14a1 1 0 001-1 6.74 6.74 0 00-4.57-6.38zM13 13a3 3 0 113 3 3 3 0 01-3-3zm-2.9 9c.52-2.37 2.84-4 5.9-4s5.4 1.6 5.9 4z" fill="#e2001a"/></svg><svg viewBox="4 0 24 32" width="24" height="32" id="hunt--xs" x="96" y="64" xmlns="http://www.w3.org/2000/svg"><path d="M16 8a8 8 0 108 8 8 8 0 00-8-8zm0 14a6 6 0 116-6 6 6 0 01-6 6z" fill="#e2001a"/><path d="M18.26 12.53l-4 1a1 1 0 00-.74.78l-1 4a1 1 0 00.26.95 1 1 0 00.71.29 1 1 0 00.24 0l4-1a1.06 1.06 0 00.47-.27 1 1 0 00.26-.47l1-4a1 1 0 00-.26-1 1 1 0 00-.94-.28zm-1.59 4.16l-1.8.44.44-1.82 1.82-.44z" fill="#e2001a"/></svg><svg viewBox="4 0 24 32" width="24" height="32" id="incompatible--xs" x="120" xmlns="http://www.w3.org/2000/svg"><g fill="#e2001a"><path d="M16 24a8 8 0 118-8 8 8 0 01-8 8zm0-14a6 6 0 106 6 6 6 0 00-6-6z"/><path d="M16 17a1 1 0 01-1-1v-3a1 1 0 012 0v3a1 1 0 01-1 1zM16 20a1 1 0 01-.92-1.38 1.15 1.15 0 01.21-.33 1 1 0 01.16-.12.56.56 0 01.17-.09l.18-.08a1 1 0 01.58.06.9.9 0 01.54.54A1 1 0 0116 20z"/></g></svg><svg viewBox="4 0 24 32" width="24" height="32" id="indoor-outdoor--xs" xmlns="http://www.w3.org/2000/svg"><path d="M13.66 14.25a1 1 0 00-1.32 0l-4 3.51a1 1 0 00-.34.75V23a1 1 0 001 1h8a1 1 0 001-1v-4.5a1 1 0 00-.34-.75zM16 22h-2v-2a1 1 0 10-2 0v2h-2v-3l3-2.63L16 19zM24 11a2.27 2.27 0 00-1.76-2.23 2.44 2.44 0 00-3.48 0A2.27 2.27 0 0017 11a3 3 0 00.19 1 2.23 2.23 0 00-.07.55A2.44 2.44 0 0019.49 15v1.17A1 1 0 0019 17a1 1 0 001 1h1a1 1 0 00.48-1.86V15a2.44 2.44 0 002.39-2.47 2 2 0 00-.09-.57A2.67 2.67 0 0024 11zm-2.1.32a1.14 1.14 0 00-.07 1.23s.05.07.05 0a.43.43 0 01-.4.45.38.38 0 01-.27-.12 1 1 0 00-1.42 0 .38.38 0 01-.27.12.43.43 0 01-.4-.45v-.13a.93.93 0 00-.1-1.11A1 1 0 0119 11a.25.25 0 01.19-.26h.06a1 1 0 00.91-.51.37.37 0 01.68 0 1 1 0 00.87.51h.1A.25.25 0 0122 11a.67.67 0 01-.1.28z" fill="#e2001a"/></svg><svg viewBox="4 0 24 32" width="24" height="32" id="indoors--xs" x="120" y="64" xmlns="http://www.w3.org/2000/svg"><path d="M23.65 14.24l-7-6a1 1 0 00-1.3 0l-7 6A1 1 0 008 15v8a1 1 0 001 1h14a1 1 0 001-1v-8a1 1 0 00-.35-.76zM15 22v-4h2v4zm7 0h-3v-4.75A1.25 1.25 0 0017.75 16h-3.5A1.25 1.25 0 0013 17.25V22h-3v-6.54l6-5.14 6 5.14z" fill="#e2001a"/></svg><svg viewBox="4 0 24 32" width="24" height="32" id="low-maintenance--xs" y="96" xmlns="http://www.w3.org/2000/svg"><path d="M12.5 12.45L14.93 15a1.42 1.42 0 001 .45A1.38 1.38 0 0017 15l2.44-2.59a2.4 2.4 0 00.52-.79 2.72 2.72 0 00.16-1.52 2.63 2.63 0 00-2.05-2.08 2.59 2.59 0 00-2.1.51 2.58 2.58 0 00-4.15 1.58 2.71 2.71 0 00.18 1.55 2.57 2.57 0 00.5.79zm1.29-1.95a.61.61 0 01.46-.48h.12a.55.55 0 01.37.14.66.66 0 01.23.5 1 1 0 002 0 .63.63 0 01.23-.5.56.56 0 01.49-.12.61.61 0 01.46.48.64.64 0 010 .39.5.5 0 01-.13.18l-2 2.14-2-2.13a.56.56 0 01-.13-.19.58.58 0 01-.1-.41zM24 17.92a1.65 1.65 0 00-.64-1.19 2.82 2.82 0 00-1.93-.47 19.11 19.11 0 00-2.23.65l-2.38.83a2.57 2.57 0 00-.74-.61A19.94 19.94 0 0013.72 16a2.75 2.75 0 00-2.19 0l-2 1A1 1 0 009 18.38a1 1 0 001.33.48l2-1a.7.7 0 01.55 0 18.9 18.9 0 012.17 1c.17.09.21.17.22.23a15.12 15.12 0 01-2.11-.63 1 1 0 10-.7 1.87 11.92 11.92 0 002.91.77h.13a2.16 2.16 0 001.65-1.29v-.1h.05l2.59-.9a15.84 15.84 0 011.82-.55 1 1 0 01.3 0 1.19 1.19 0 01-.46.48l-4.89 3a2 2 0 01-1.43.16c-1-.29-2.85-.87-2.86-.87a15.65 15.65 0 00-3.26-.51 1 1 0 00-1.01.97 1 1 0 00.94 1.06 13.71 13.71 0 012.72.39s1.9.61 3 .92a3.86 3.86 0 001 .14 4.06 4.06 0 002-.52l4.92-3.05A2.59 2.59 0 0024 17.92z" fill="#e2001a"/></svg><svg viewBox="4 0 24 32" width="24" height="32" id="need-space--xs" x="24" y="96" xmlns="http://www.w3.org/2000/svg"><path d="M23 24H9a1 1 0 01-1-1v-8a1 1 0 01.35-.76l7-6a1 1 0 011.3 0l7 6A1 1 0 0124 15v8a1 1 0 01-1 1zm-13-2h12v-6.54l-6-5.14-6 5.14z" fill="#e2001a"/><path d="M18.5 21a1 1 0 01-.6-.2 1 1 0 01-.2-1.4l1.5-2a1 1 0 011.6 1.2l-1.5 2a1 1 0 01-.8.4z" fill="#e2001a"/><path d="M20 19a1 1 0 01-.81-.41l-1.45-2a1 1 0 01.22-1.4 1 1 0 011.4.22l1.45 2A1 1 0 0120 19zM13.47 21a1 1 0 01-.8-.4l-1.5-2a1 1 0 111.6-1.2l1.5 2a1 1 0 01-.2 1.4 1 1 0 01-.6.2z" fill="#e2001a"/><path d="M12 19a1 1 0 01-.81-1.59l1.45-2a1 1 0 011.4-.22 1 1 0 01.22 1.4l-1.45 2A1 1 0 0112 19z" fill="#e2001a"/></svg><svg viewBox="4 0 24 32" width="24" height="32" id="no-alone--xs" x="48" y="96" xmlns="http://www.w3.org/2000/svg"><path d="M23 16a1 1 0 01-.65-.24L16 10.32l-6.35 5.44a1 1 0 01-1.3-1.52l7-6a1 1 0 011.3 0l7 6A1 1 0 0123 16z" fill="#e2001a"/><path d="M16 21a1 1 0 01-1-1v-4a1 1 0 012 0v4a1 1 0 01-1 1zM16 24a1 1 0 01-.71-.29 1.15 1.15 0 01-.21-.33A.84.84 0 0115 23a1.05 1.05 0 01.29-.71 1 1 0 01.33-.21 1 1 0 011.09.21A1.05 1.05 0 0117 23a.84.84 0 01-.08.38 1.15 1.15 0 01-.21.33A1 1 0 0116 24z" fill="#e2001a"/></svg><svg viewBox="4 0 24 32" width="24" height="32" id="no-garden--xs" x="72" y="96" xmlns="http://www.w3.org/2000/svg"><path d="M23.67 8.29a1 1 0 00-1.42 0L20.6 10a3.57 3.57 0 00-1.67-.63A3.85 3.85 0 0016 8a3.91 3.91 0 00-2.93 1.32A3.34 3.34 0 0010 12.57a3.11 3.11 0 00.46 1.63 3.51 3.51 0 00-.21 1.19 3.57 3.57 0 001.85 3.08l-3.81 3.82a1 1 0 000 1.42 1 1 0 001.42 0l4.95-5 .34.14V22a1 1 0 000 2h2a1 1 0 100-2v-3.12a3.81 3.81 0 001 .12 3.71 3.71 0 003.8-3.61 3.51 3.51 0 00-.21-1.19 3 3 0 00.28-2.64l1.85-1.85a1 1 0 00-.05-1.42zm-11.4 7.1a1.5 1.5 0 01.23-.78 1 1 0 00-.13-1.22 1.16 1.16 0 01-.35-.82 1.34 1.34 0 011.38-1.27h.13a1 1 0 00.91-.48 1.91 1.91 0 013.16 0 1 1 0 00.91.48h.08a1.52 1.52 0 01.57.11L13.64 17a1.66 1.66 0 01-1.37-1.61zm7.27-.78a1.41 1.41 0 01.23.78A1.71 1.71 0 0118 17a1.85 1.85 0 01-1.16-.4L19.4 14a1 1 0 00.14.61z" fill="#e2001a"/></svg><svg viewBox="4 0 24 32" width="24" height="32" id="outdoor--xs" x="96" y="96" xmlns="http://www.w3.org/2000/svg"><path d="M22 12.57a3.34 3.34 0 00-3.07-3.25 3.91 3.91 0 00-5.86 0A3.34 3.34 0 0010 12.57a3.11 3.11 0 00.46 1.63 3.5 3.5 0 00-.21 1.18 3.71 3.71 0 003.8 3.62 3.81 3.81 0 00.95-.12V22a1 1 0 000 2h2a1 1 0 100-2v-3.12a3.81 3.81 0 001 .12 3.71 3.71 0 003.8-3.62 3.5 3.5 0 00-.21-1.18 3.11 3.11 0 00.41-1.63zm-2.48 2a1.49 1.49 0 01.23.77A1.71 1.71 0 0118 17a1.88 1.88 0 01-1.28-.49 1 1 0 00-1.34 0 1.88 1.88 0 01-1.28.49 1.71 1.71 0 01-1.8-1.62 1.49 1.49 0 01.23-.77 1 1 0 00-.13-1.22 1.16 1.16 0 01-.35-.82 1.34 1.34 0 011.38-1.27h.13a1 1 0 00.91-.47 1.91 1.91 0 013.16 0 1 1 0 00.91.47h.08A1.36 1.36 0 0120 12.57a1.16 1.16 0 01-.35.82 1 1 0 00-.13 1.22z" fill="#e2001a"/></svg><svg viewBox="4 0 24 32" width="24" height="32" id="pairs--xs" x="120" y="96" xmlns="http://www.w3.org/2000/svg"><path d="M24 14a6 6 0 00-11.74-1.74 6 6 0 107.48 7.48A6 6 0 0024 14zm-10 8a4 4 0 01-2-7.46A6 6 0 0017.46 20 4 4 0 0114 22zm0-8a4 4 0 014 4 4 4 0 01-4-4zm6 3.46A6 6 0 0014.54 12 4 4 0 1120 17.46z" fill="#e2001a"/></svg><svg viewBox="4 0 24 32" width="24" height="32" id="patient--xs" x="144" xmlns="http://www.w3.org/2000/svg"><path d="M16 23a1.91 1.91 0 01-1.4-.61l-5.33-5.66a4.5 4.5 0 01-.91-1.36 4.65 4.65 0 01-.28-2.66 4.53 4.53 0 013.54-3.62 4.47 4.47 0 013.71.93 4.31 4.31 0 01.67.68 4.31 4.31 0 01.67-.68 4.47 4.47 0 013.71-.93 4.53 4.53 0 013.54 3.6 4.68 4.68 0 01-.27 2.65 4.25 4.25 0 01-.91 1.37l-5.34 5.68A1.91 1.91 0 0116 23zm-3.5-12a2.18 2.18 0 00-.5.05 2.51 2.51 0 00-1.95 2 2.66 2.66 0 00.15 1.53 2.93 2.93 0 00.53.76L16 21l5.26-5.64a2.4 2.4 0 00.52-.76 2.62 2.62 0 00.22-1.54 2.51 2.51 0 00-1.95-2 2.42 2.42 0 00-2.06.51 2.59 2.59 0 00-.94 2 1 1 0 01-2 0 2.59 2.59 0 00-.94-2A2.43 2.43 0 0012.5 11z" fill="#e2001a"/></svg><svg viewBox="4 0 24 32" width="24" height="32" id="quiet-home--xs" x="144" y="32" xmlns="http://www.w3.org/2000/svg"><path d="M23.58 13.18l-7-5a1 1 0 00-1.16 0l-7 5A1 1 0 009 15a1 1 0 00.58-.19L16 10.23l6.42 4.58a1 1 0 001.39-.23 1 1 0 00-.23-1.4z" fill="#e2001a"/><path d="M18.45 14.11a1 1 0 00-1.05.09L13.66 17H12a1 1 0 00-1 1v2a1 1 0 001 1h1.66l3.74 2.8a1 1 0 001.05.09A1 1 0 0019 23v-8a1 1 0 00-.55-.89zM17 21l-2-1.49v-1L17 17z" fill="#e2001a"/></svg><svg viewBox="4 0 24 32" width="24" height="32" id="sm-home--xs" x="144" y="64" xmlns="http://www.w3.org/2000/svg"><path d="M23.65 14.2l-7-6a1 1 0 00-1.3 0l-7 6A1 1 0 008 15v8a1 1 0 001 1h14a1 1 0 001-1v-8a1 1 0 00-.35-.8zM22 22H10v-6.58l6-5.14 6 5.14z" fill="#e2001a"/><path d="M15.44 17.82a1.09 1.09 0 000-.17 1.63 1.63 0 00-.09-.19v-.05l-1.46-2a1 1 0 10-1.61 1.18l1 1.4-1.11 1.41a1 1 0 00.2 1.4 1 1 0 00.6.2 1 1 0 00.8-.4l1.5-2v-.05a1 1 0 00.09-.18.65.65 0 00.07-.36.61.61 0 00.01-.19zM16.56 17.82a1.21 1.21 0 000 .19.65.65 0 00.07.36 1 1 0 00.09.18v.05l1.5 2a1 1 0 00.8.4 1 1 0 00.6-.2 1 1 0 00.2-1.4l-1-1.41 1-1.4a1 1 0 10-1.61-1.18l-1.46 2v.05a1.63 1.63 0 00-.09.19 1.09 1.09 0 00-.1.17z" fill="#e2001a"/></svg><svg viewBox="4 0 24 32" width="24" height="32" id="sporting--xs" x="144" y="96" xmlns="http://www.w3.org/2000/svg"><g fill="#e2001a"><path d="M10 21a1 1 0 01-1-1v-8a1 1 0 012 0v8a1 1 0 01-1 1zM22 21a1 1 0 01-1-1v-8a1 1 0 012 0v8a1 1 0 01-1 1z"/><path d="M23 17H9a1 1 0 010-2h14a1 1 0 010 2zM11 21H9a1 1 0 010-2h2a1 1 0 010 2zM23 21h-2a1 1 0 010-2h2a1 1 0 010 2zM23 14H9a1 1 0 010-2h14a1 1 0 010 2z"/></g></svg><svg viewBox="4 0 24 32" width="24" height="32" id="startled--xs" y="128" xmlns="http://www.w3.org/2000/svg"><path d="M16 19a1 1 0 01-1-1v-7a1 1 0 012 0v7a1 1 0 01-1 1zM16 22a1 1 0 01-.71-1.7 1 1 0 011.42 0A1 1 0 0116 22z" fill="#e2001a"/></svg><svg viewBox="4 0 24 32" width="24" height="32" id="training--xs" x="24" y="128" xmlns="http://www.w3.org/2000/svg"><path d="M23.84 11.46A1 1 0 0023 11H12.19a1.2 1.2 0 00-.32.06 4.49 4.49 0 104.84 6L22.42 15a1 1 0 00.55-.52l.94-2a1 1 0 00-.07-1.02zM12.51 18A2.5 2.5 0 1115 15.5a2.51 2.51 0 01-2.49 2.5zm8.82-4.78L17 14.87a4.51 4.51 0 00-.7-1.87h5.17z" fill="#e2001a"/></svg><svg viewBox="4 0 24 32" width="24" height="32" id="versatile--xs" x="48" y="128" xmlns="http://www.w3.org/2000/svg"><path d="M22.49 17.25a1 1 0 00-1.41 0 1 1 0 000 1.41l.33.33h-1.05a1.78 1.78 0 01-1.08-.61l-2-2.41 2-2.41a1.78 1.78 0 011.08-.56h1.05l-.33.33a1 1 0 000 1.41 1 1 0 00.71.3 1 1 0 00.7-.29l2-2a1 1 0 000-1.4l-2-2a1 1 0 10-1.43 1.39l.26.27h-1a3.69 3.69 0 00-2.62 1.34L16 14.39l-1.69-2.09a3.41 3.41 0 00-2.7-1.3h-1.2l.31-.32a1 1 0 00-1.44-1.39l-2 2a1 1 0 000 1.4l2 2A1 1 0 0010 15a1 1 0 00.71-1.71l-.29-.29h1.19a1.46 1.46 0 011.12.52l2 2.45-2 2.45a1.46 1.46 0 01-1.12.52h-1.19l.29-.28a1 1 0 10-1.42-1.41l-2 2a1 1 0 000 1.4l2 2a1 1 0 001.44-1.39l-.31-.32h1.2a3.44 3.44 0 002.7-1.29l1.68-2.1 1.72 2.1A3.69 3.69 0 0020.36 21h1l-.26.27a1 1 0 101.43 1.39l2-2a1 1 0 000-1.4z" fill="#e2001a"/></svg><svg viewBox="4 0 24 32" width="24" height="32" id="watchdog--xs" x="72" y="128" xmlns="http://www.w3.org/2000/svg"><g data-name="View/Show" fill="#e2001a"><path d="M16 21c-4.16 0-7.63-4.19-7.77-4.37a1 1 0 010-1.26C8.37 15.19 11.84 11 16 11s7.63 4.19 7.77 4.37a1 1 0 010 1.26C23.63 16.81 20.16 21 16 21zm-5.65-5c1 1 3.28 3 5.65 3s4.47-1.8 5.65-3c-1-1-3.28-3-5.65-3-2.22 0-4.47 1.8-5.65 3z"/><circle cx="16" cy="16" r="2"/></g></svg></svg>