<?xml version="1.0" encoding="utf-8"?><svg width="320" height="288" viewBox="0 0 320 288" xmlns="http://www.w3.org/2000/svg" xmlns:xlink="http://www.w3.org/1999/xlink"><svg viewBox="0 0 32 32" width="32" height="32" id="attention" x="32" xmlns="http://www.w3.org/2000/svg"><path d="M27.16 20.88c-1.18-2.18-2.51-4.65-2.51-6.8 0-5.16-1.79-8.78-4.92-10.29v-.08a3.75 3.75 0 00-7.5 0 .44.44 0 000 .1C9.14 5.33 7.35 8.93 7.35 14.08c0 2.15-1.33 4.62-2.51 6.8-1.31 2.43-2.35 4.34-1.58 5.8A2.78 2.78 0 005.63 28H12a4 4 0 108 0h6.4a2.8 2.8 0 002.38-1.31c.73-1.47-.31-3.39-1.62-5.81zM16 2a1.74 1.74 0 011.64 1.14A10.24 10.24 0 0016 3a9.73 9.73 0 00-1.65.15A1.74 1.74 0 0116 2zm2 26a2 2 0 11-4 0h4zm9-2.26c0 .06-.24.2-.77.26H5.79c-.53-.06-.73-.19-.76-.26-.27-.51.84-2.55 1.57-3.91 1.29-2.39 2.75-5.09 2.75-7.75S10 5 16 5s6.61 6.35 6.61 9.08 1.46 5.36 2.75 7.75c.77 1.35 1.88 3.4 1.64 3.91z" fill="#767676" data-name="Speciality Retailer"/></svg><svg viewBox="0 0 32 32" width="32" height="32" id="attention--sm" x="192" y="160" xmlns="http://www.w3.org/2000/svg"><path d="M24.57 19.43c-.89-1.56-1.89-3.34-1.89-4.84 0-3.86-1.38-6.73-3.68-8a3 3 0 00-6 0c-2.3 1.3-3.67 4.16-3.67 8 0 1.5-1 3.28-1.89 4.84-1 1.84-1.82 3.29-1.18 4.48A2.4 2.4 0 008.38 25H13a3 3 0 006 0h4.7a2.35 2.35 0 002.05-1.09c.64-1.19-.15-2.64-1.18-4.48zM17 25a1 1 0 01-2 0h2zm6.62-2H8.45a1.77 1.77 0 01-.45-.07 10.74 10.74 0 011.18-2.52c1-1.78 2.14-3.8 2.14-5.82 0-1.59.34-6.78 4.67-6.79s4.67 5.2 4.67 6.79c0 2 1.14 4 2.14 5.82a10.35 10.35 0 011.2 2.52 2 2 0 01-.38.07z" fill="#767676"/></svg><svg viewBox="0 0 32 32" width="32" height="32" id="ball" y="32" xmlns="http://www.w3.org/2000/svg"><path d="M32 16.34A16 16 0 0015.65 0h-.18A15.94 15.94 0 000 15.45V15.66A16 16 0 0016 32h.43a.58.58 0 00.14 0A15.92 15.92 0 0032 16.55v-.14-.07zm-5.41 8.82l-4.3-4.31a13.89 13.89 0 017.63-3.33 13.89 13.89 0 01-3.35 7.64zM15.51 30a13.94 13.94 0 01-8.67-3.4L16 17.41l3.44 3.44A16 16 0 0015.51 30zm5.34-7.7l4.31 4.3a13.89 13.89 0 01-7.64 3.33 14 14 0 013.33-7.66zM30 15.51a16 16 0 00-9.12 3.93L17.41 16l9.16-9.16A13.94 13.94 0 0130 15.51zM5.43 6.84l4.3 4.31a14 14 0 01-7.63 3.33 13.89 13.89 0 013.33-7.64zm1.41-1.41a13.89 13.89 0 017.64-3.33 14 14 0 01-3.33 7.63zM16.49 2a13.94 13.94 0 018.67 3.4L16 14.59l-3.44-3.44A16 16 0 0016.49 2zM2 16.49a16 16 0 009.12-3.93L14.59 16l-9.16 9.16A13.94 13.94 0 012 16.49z" fill="#767676"/></svg><svg viewBox="0 0 32 32" width="32" height="32" id="ball--sm" x="32" y="32" xmlns="http://www.w3.org/2000/svg"><path d="M28 16.24A11.93 11.93 0 0015.75 4h-.15A11.93 11.93 0 004 15.61v.1c0 .03 0 0 0 0A11.94 11.94 0 0016 28H16.42A11.92 11.92 0 0028 16.4v-.11-.05zm-4.24 6.09L21 19.57a10 10 0 014.89-2.15 9.89 9.89 0 01-2.15 4.91zM15.39 26a10 10 0 01-5.72-2.23L16 17.41l2.15 2.16A12 12 0 0015.39 26zm4.18-5l2.76 2.75a9.89 9.89 0 01-4.91 2.14A10 10 0 0119.57 21zm6.4-5.6a12 12 0 00-6.4 2.76L17.41 16l6.33-6.33A10 10 0 0126 15.39zM8.26 9.67L11 12.43a9.93 9.93 0 01-4.89 2.15 9.89 9.89 0 012.15-4.91zm1.41-1.41a9.89 9.89 0 014.91-2.14A9.93 9.93 0 0112.43 11zM16.61 6a10 10 0 015.72 2.23L16 14.59l-2.15-2.16A12 12 0 0016.61 6zM6 16.61a12 12 0 006.4-2.76L14.59 16l-6.33 6.33A10 10 0 016 16.61z" fill="#767676"/></svg><svg viewBox="0 0 32 32" width="32" height="32" id="behavior" x="64" xmlns="http://www.w3.org/2000/svg"><g fill="#767676"><path d="M16 32h-1A16 16 0 010 15.05 16 16 0 0117 0a16 16 0 0115 17 16 16 0 01-16 15zm0-30A14 14 0 002 15.17a14 14 0 0028 1.66A14 14 0 0016.83 2z"/><circle cx="12" cy="13" r="1"/><circle cx="20" cy="13" r="1"/><path d="M16 25a5 5 0 01-.55 0 9 9 0 01-7.31-4.56 1 1 0 111.74-1 7 7 0 0012.21 0 1 1 0 011.74 1A8.93 8.93 0 0116 25z"/></g></svg><svg viewBox="0 0 32 32" width="32" height="32" id="behavior--sm" x="64" y="32" xmlns="http://www.w3.org/2000/svg"><g fill="#767676"><path d="M16.71 4a12 12 0 00-1.42 24H16a12 12 0 00.7-24zM26 16.59A10 10 0 1116 6h.6A10 10 0 0126 16.59z"/><path d="M18.63 19.11a3.37 3.37 0 01-5.26 0 1 1 0 00-1.37-.23 1 1 0 00-.23 1.4 5.37 5.37 0 008.5 0 1 1 0 00-.23-1.4 1 1 0 00-1.41.23z"/><circle cx="13" cy="14" r="1"/><circle cx="19" cy="14" r="1"/></g></svg><svg viewBox="0 0 32 32" width="32" height="32" id="bug" y="64" xmlns="http://www.w3.org/2000/svg"><path d="M31 10.25V9a1 1 0 00-2 0v1.25a2.78 2.78 0 01-2 2.59 10.54 10.54 0 00-4.71-8.1l1.64-3.29a1 1 0 00-1.78-.9L20.48 3.8a10.57 10.57 0 00-4-.8h-.9a10.57 10.57 0 00-4 .8L9.89.55a1 1 0 00-1.78.9l1.64 3.29A10.54 10.54 0 005 12.84a2.78 2.78 0 01-2-2.59V9a1 1 0 00-2 0v1.25a4.82 4.82 0 004 4.65V18H3a1 1 0 000 2h2v1.45a10.73 10.73 0 00.34 2.61A4.66 4.66 0 001 28.45V29a1 1 0 002 0v-.55A2.77 2.77 0 016 26a10.55 10.55 0 009.51 6h.9A10.55 10.55 0 0026 26a2.77 2.77 0 013 2.45V29a1 1 0 002 0v-.55a4.66 4.66 0 00-4.34-4.39 10.73 10.73 0 00.34-2.61V20h2a1 1 0 000-2h-2v-3.1a4.82 4.82 0 004-4.65zM15.55 5h.9A8.55 8.55 0 0125 13H7a8.55 8.55 0 018.55-8zM7 21.45V15h8v14.64a1 1 0 00.07.34A8.55 8.55 0 017 21.45zM16.93 30a1 1 0 00.07-.34V15h8v6.45A8.55 8.55 0 0116.93 30z" fill="#767676"/></svg><svg viewBox="0 0 32 32" width="32" height="32" id="bug--sm" x="32" y="64" xmlns="http://www.w3.org/2000/svg"><path d="M27 12v-1a1 1 0 00-2 0v1a2 2 0 01-1 1.73 8 8 0 00-3-5.94 1.48 1.48 0 00.08-.13l1-2.26a1 1 0 00-1.83-.8l-1 2.14A7.91 7.91 0 0013 6.59l-.88-2a1 1 0 00-1.32-.51 1 1 0 00-.51 1.31l1 2.18A8 8 0 008 13.73 2 2 0 017 12v-1a1 1 0 00-2 0v1a4 4 0 003 3.86V17H6a1 1 0 000 2h2v1.65a4 4 0 00-3 3.87V25a1 1 0 002 0v-.48a2 2 0 011.44-1.92 8 8 0 0015.12 0A2 2 0 0125 24.52V25a1 1 0 002 0v-.48a4 4 0 00-3-3.87V19h2a1 1 0 000-2h-2v-1.14A4 4 0 0027 12zM15 25.91A6 6 0 0110 20v-4h5zM22 20a6 6 0 01-5 5.91V16h5zm-12-6a6 6 0 0112 0z" fill="#767676"/></svg><svg viewBox="0 0 32 32" width="32" height="32" id="cat-tree" x="64" y="64" xmlns="http://www.w3.org/2000/svg"><g data-name="Arrow Left" fill="#767676"><path d="M28 30h-2V1a1 1 0 00-1-1H7a1 1 0 00-1 1v6.13a4 4 0 102 0V2h16v15H8a1 1 0 00-1 1v12H5.08a1 1 0 100 2H28a1 1 0 000-2zM9 11a2 2 0 11-2-2 2 2 0 012 2zm15 19h-3V19h3zM9 19h10v11H9z"/><path d="M14 22a3 3 0 103 3 3 3 0 00-3-3zm0 4a1 1 0 111-1 1 1 0 01-1 1z"/></g></svg><svg viewBox="0 0 32 32" width="32" height="32" id="cat-tree--sm" x="96" xmlns="http://www.w3.org/2000/svg"><g data-name="Cat tree" fill="#767676"><path d="M25 26h-1V5a1 1 0 00-1-1H9a1 1 0 00-.71.29A1 1 0 008 5v4a.93.93 0 00.05.24A2 2 0 007 11a2 2 0 004 0 2 2 0 00-1-1.75A1 1 0 0010 9V6h12v10H10a1 1 0 00-1 1v9H8a1 1 0 100 2h17a1 1 0 000-2zm-7 0h-7v-8h7zm4 0h-2v-8h2z"/><path d="M14.5 20a2 2 0 102 2 2 2 0 00-2-2z"/></g></svg><svg viewBox="0 0 32 32" width="32" height="32" id="children" x="96" y="32" xmlns="http://www.w3.org/2000/svg"><path d="M32 16.06a3.75 3.75 0 00-1.69-3.13 14.63 14.63 0 00-28.62 0 3.73 3.73 0 000 6.27 14.62 14.62 0 0028.54 0A3.71 3.71 0 0032 16.06zM16 28.64A12.62 12.62 0 018.29 6a10.45 10.45 0 009.52 6.29 1 1 0 000-2A8.43 8.43 0 0110 4.89a12.65 12.65 0 012.72-1.08A10.35 10.35 0 0019.31 8h.18a1 1 0 00.17-2A8.36 8.36 0 0115 3.42c.34 0 .69-.06 1.05-.06a12.64 12.64 0 010 25.28z" fill="#767676"/><path d="M14 16a1 1 0 00-1-1h-2a1 1 0 000 2h2a1 1 0 001-1zM21 15h-2a1 1 0 000 2h2a1 1 0 000-2zM19.18 21.45a4 4 0 01-6.37 0 1 1 0 00-1.63 1.16 6 6 0 009.63 0 1 1 0 00-1.63-1.16z" fill="#767676"/></svg><svg viewBox="0 0 32 32" width="32" height="32" id="children--sm" x="96" y="64" xmlns="http://www.w3.org/2000/svg"><g fill="#767676"><path d="M26.72 13.58a11 11 0 00-21.44 0 3 3 0 000 4.94 11 11 0 0021.4 0 3 3 0 000-4.94zm-1.79 3.49a8.55 8.55 0 01-.42 1.83 9 9 0 01-17 0 8.55 8.55 0 01-.42-1.83A9.45 9.45 0 017 16a7.93 7.93 0 01.06-1 9.06 9.06 0 013.18-5.93 7.93 7.93 0 007.09 4.46 1 1 0 000-2A5.91 5.91 0 0111.94 8a8.42 8.42 0 011.53-.61 7.89 7.89 0 004.91 3h.18a1 1 0 00.17-2A5.94 5.94 0 0115.84 7H16a9 9 0 018.94 8 7.93 7.93 0 01.06 1 9.45 9.45 0 01-.07 1.07z"/><path d="M13 17h1a1 1 0 000-2h-1a1 1 0 000 2zM19 15h-1a1 1 0 000 2h1a1 1 0 000-2zM18 20a2.4 2.4 0 01-3.93 0 1 1 0 10-1.63 1.16 4.4 4.4 0 007.19 0A1 1 0 1018 20z"/></g></svg><svg viewBox="0 0 32 32" width="32" height="32" id="collar" y="96" xmlns="http://www.w3.org/2000/svg"><g fill="#767676"><path d="M31 6H1a1 1 0 00-1 1v8a1 1 0 001 1h14v2.14a4 4 0 102 0V16h14a1 1 0 001-1V7a1 1 0 00-1-1zM18 22a2 2 0 11-2-2 2 2 0 012 2zM2 8h5v6H2zm28 6H9V8h21z"/><path d="M17 12h.2a.64.64 0 00.18-.06.76.76 0 00.18-.09l.15-.12a1 1 0 000-1.42 1 1 0 00-1.09-.21 1 1 0 00-.33 1.63A1.05 1.05 0 0017 12zM11.08 11.38a1 1 0 00.21.33A1.05 1.05 0 0012 12h.2l.18-.06.18-.09.15-.12a1.15 1.15 0 00.21-.33A1 1 0 0013 11a1 1 0 00-1.71-.71A1 1 0 0011 11a1 1 0 00.08.38zM21.44 11.83a.76.76 0 00.18.09.64.64 0 00.18.06h.39a.6.6 0 00.19-.06.56.56 0 00.17-.09l.16-.12a1 1 0 00-1.42-1.42 1 1 0 000 1.42zM26.62 11.92A1 1 0 0027 12h.19a.6.6 0 00.19-.06.56.56 0 00.17-.09 1 1 0 00.16-.12A1.05 1.05 0 0028 11a.84.84 0 00-.08-.38 1.15 1.15 0 00-.21-.33 1 1 0 00-1.09-.21 1 1 0 00-.33.21 1.15 1.15 0 00-.21.33.84.84 0 00-.08.38 1.05 1.05 0 00.29.71 1 1 0 00.33.21z"/></g></svg><svg viewBox="0 0 32 32" width="32" height="32" id="collar--sm" x="32" y="96" xmlns="http://www.w3.org/2000/svg"><g fill="#767676"><path d="M27 9H5a1 1 0 00-1 1v6a1 1 0 001 1h10v1.18a3 3 0 102 0V17h10a1 1 0 001-1v-6a1 1 0 00-1-1zM16 22a1 1 0 111-1 1 1 0 01-1 1zM6 11h4v4H6zm20 4H12v-4h14z"/><path d="M14.29 13.71a1 1 0 001.63-1.09 1 1 0 00-.21-.33 1 1 0 00-1.42 0 1.15 1.15 0 00-.21.33 1 1 0 00.21 1.09zM19 14a1 1 0 001-1 .84.84 0 00-.08-.38 1.15 1.15 0 00-.21-.33 1 1 0 00-1.42 0 1.15 1.15 0 00-.21.33A1 1 0 0019 14zM23 14a1 1 0 001-1 .84.84 0 00-.08-.38 1.15 1.15 0 00-.21-.33 1 1 0 00-1.42 0 1 1 0 00-.21.33 1 1 0 00.21 1.09A1 1 0 0023 14z"/></g></svg><svg viewBox="0 0 32 32" width="32" height="32" id="deafness" x="64" y="96" xmlns="http://www.w3.org/2000/svg"><g data-name="Online Retailer" fill="#767676"><path d="M27.85 15.84L31.7 12a1 1 0 10-1.4-1.42l-3.86 3.82-3.79-3.8a1 1 0 00-1.42 0 1 1 0 000 1.41L25 15.83l-3.85 3.83a1 1 0 000 1.41 1 1 0 00.71.3 1 1 0 00.7-.29l3.85-3.83L30.17 21a1 1 0 00.71.3 1 1 0 00.7-1.71zM16.35 5.2a1 1 0 00-1 0l-9.69 6.49H1a1 1 0 00-1 1v6.62a1 1 0 001 1h4.66l9.66 6.44a1 1 0 00.56.17 1 1 0 00.47-.12 1 1 0 00.53-.88V6.08a1 1 0 00-.53-.88zM2 13.69h3v4.62H2zm12.88 10.36L7 18.77v-5.54L14.88 8z"/></g></svg><svg viewBox="0 0 32 32" width="32" height="32" id="deafness--sm" x="96" y="96" xmlns="http://www.w3.org/2000/svg"><g fill="#767676"><path d="M24.4 16l2.31-2.3a1 1 0 000-1.41 1 1 0 00-1.4 0L23 14.59l-2.27-2.3a1 1 0 00-1.4 0 1 1 0 000 1.41L21.6 16l-2.31 2.3A1 1 0 0020 20a1 1 0 00.7-.29l2.3-2.3 2.23 2.25a1 1 0 00.7.3 1 1 0 00.7-.29 1 1 0 000-1.41zM16.47 7.67a1 1 0 00-1 0L9.06 12H6a1 1 0 00-1 1v5a1 1 0 001 1h3l6.39 4.25a1 1 0 00.55.17 1 1 0 001-1V8.56a1 1 0 00-.47-.89zM7 14h2v3H7zm8 6.63l-4-2.71v-4.78-.06l4-2.66z"/></g></svg><svg viewBox="0 0 32 32" width="32" height="32" id="digestion" x="128" xmlns="http://www.w3.org/2000/svg"><path d="M28.8 16a7.08 7.08 0 003.2-6 6.81 6.81 0 00-6.58-7H15a3.89 3.89 0 00-4-3 3.81 3.81 0 00-4 3.57v3.86A3.19 3.19 0 007.44 9h-.86A6.82 6.82 0 000 16a6.81 6.81 0 006.59 7h5.85a3.19 3.19 0 00-.44 1.57v3.86A3.81 3.81 0 0016 32a3.89 3.89 0 004-3h5.48A6.81 6.81 0 0032 22a7.08 7.08 0 00-3.2-6zm-3.37 11H19a1 1 0 00-1 1v.43A1.83 1.83 0 0116 30a1.83 1.83 0 01-2-1.57v-3.86A1.83 1.83 0 0116 23h9a1 1 0 100-2H6.59A4.81 4.81 0 012 16a4.81 4.81 0 014.58-5H25a1 1 0 000-2H11a1.8 1.8 0 01-2-1.57V3.57A1.83 1.83 0 0111 2a1.83 1.83 0 012 1.57V4a1 1 0 001 1h11.43A4.8 4.8 0 0130 10a4.8 4.8 0 01-4.58 5H7a1 1 0 100 2h18.43A4.8 4.8 0 0130 22a4.8 4.8 0 01-4.57 5z" fill="#767676"/></svg><svg viewBox="0 0 32 32" width="32" height="32" id="digestion--sm" x="128" y="32" xmlns="http://www.w3.org/2000/svg"><path d="M26 16a5 5 0 00-3-9h-7a3 3 0 00-6 0v3a3 3 0 00.18 1H9a5 5 0 000 10h4.18a3 3 0 00-.18 1v3a3 3 0 006 0h4a5 5 0 003-9zm-3 7h-5a1 1 0 00-1 1v1a1 1 0 01-2 0v-3a1 1 0 011-1h6.35a1 1 0 000-2H9a3 3 0 010-6h13.35a1 1 0 000-2H13a1 1 0 01-1-1V7a1 1 0 012 0v1a1 1 0 001 1h8a3 3 0 010 6H9.77a1 1 0 000 2H23a3 3 0 010 6z" fill="#767676"/></svg><svg viewBox="0 0 32 32" width="32" height="32" id="enjoys-training" x="128" y="64" xmlns="http://www.w3.org/2000/svg"><g fill="#767676"><path d="M16.33 8.2L22 14.33a2 2 0 001.45.64 2 2 0 001.45-.64l5.73-6.15a5 5 0 001-1.46 5 5 0 00.27-2.82A4.81 4.81 0 0028.17.06a4.78 4.78 0 00-4.68 1.79 5 5 0 00-.78-.85 4.7 4.7 0 00-3.9-1 4.79 4.79 0 00-3.73 3.86 5 5 0 00.29 2.83 4.87 4.87 0 00.96 1.51zM17 4.28A2.81 2.81 0 0119.2 2a2.67 2.67 0 012.24.56 2.92 2.92 0 011 2.27 1 1 0 002 0 2.93 2.93 0 011.06-2.27A2.66 2.66 0 0127.79 2a2.82 2.82 0 012.15 2.25A3 3 0 0129.77 6a2.75 2.75 0 01-.57.85L23.51 13l-5.72-6.17a2.75 2.75 0 01-.57-.83A3.07 3.07 0 0117 4.28zM31.45 27.16L13.5 16.63h-.05c-.22-.16-.46-.31-.7-.45A8.5 8.5 0 108.47 32a8.47 8.47 0 005.75-2.23L27.61 32h.16a1 1 0 00.68-.26l3.17-3a1 1 0 00.31-.84 1 1 0 00-.48-.74zm-21.28 2.65a6.42 6.42 0 01-4.92-.65A6.51 6.51 0 018.53 17a6.48 6.48 0 016.24 4.81 6.52 6.52 0 01-4.6 8zm17.27.1L15.7 28l.15-.24a8.45 8.45 0 00.85-6.45c-.05-.2-.12-.4-.19-.6l4.26 2.5-.67 1.33a1 1 0 00.44 1.34.91.91 0 00.46.12 1 1 0 00.89-.55l.62-1.22 6.78 4z"/><path d="M12.86 22.49a4.49 4.49 0 10-.55 3.39 4.5 4.5 0 00.55-3.39zm-2.25 2.34a2.48 2.48 0 11.3-1.87 2.48 2.48 0 01-.3 1.87z"/></g></svg><svg viewBox="0 0 32 32" width="32" height="32" id="enjoys-training--sm" x="128" y="96" xmlns="http://www.w3.org/2000/svg"><g data-name="Enjoys training" fill="#767676"><path d="M28 23.09l-14.68-8.47-.18-.06A6.5 6.5 0 1010.49 27a6.57 6.57 0 001.7-.23 6.48 6.48 0 002.61-1.4l9.66 1.56h.16a1 1 0 00.58-.19l2.85-2a1 1 0 00-.05-1.65zm-16.33 1.76a4.49 4.49 0 01-5.51-3.18 4.41 4.41 0 01.45-3.42 4.46 4.46 0 012.73-2.09 4.29 4.29 0 011.17-.16 4.5 4.5 0 011.16 8.85zm12.71 0l-8.16-1.32a6.43 6.43 0 00.59-4.53l2.44 1.41-.5.86a1 1 0 101.73 1l.5-.86L25.62 24zM16.59 10.18l4 4.2a1.67 1.67 0 002.46 0l4-4.22a3.65 3.65 0 00-1.95-6.09 3.56 3.56 0 00-3 .75c-.11.1-.23.2-.33.31a2.5 2.5 0 00-.34-.31 3.53 3.53 0 00-3-.75A3.62 3.62 0 0015.65 7a3.68 3.68 0 00.22 2.13 3.74 3.74 0 00.72 1.05zM22 13zm-4.39-5.67A1.65 1.65 0 0118.86 6a1.84 1.84 0 01.33 0 1.51 1.51 0 011 .36 1.67 1.67 0 01.61 1.3 1 1 0 002 0 1.67 1.67 0 01.61-1.3A1.6 1.6 0 0124.72 6 1.64 1.64 0 0126 7.32a1.75 1.75 0 01-.1 1 1.59 1.59 0 01-.33.48l-3.75 4-3.74-4a1.86 1.86 0 01-.34-.48 1.75 1.75 0 01-.13-.99z"/></g></svg><svg viewBox="0 0 32 32" width="32" height="32" id="exercise" y="128" xmlns="http://www.w3.org/2000/svg"><path d="M31 15h-2v-2a1 1 0 00-1-1V9a1 1 0 00-1-1h-4a1 1 0 00-1 1v6H10V9a1 1 0 00-1-1H5a1 1 0 00-1 1v3a1 1 0 00-1 1v2H1a1 1 0 000 2h2v1.73a1 1 0 001 1V23a1 1 0 001 1h4a1 1 0 001-1v-6h12v6a1 1 0 001 1h4a1 1 0 001-1v-3a1 1 0 001-1v-2h2a1 1 0 100-2zM8 22H6V10h2zm18 0h-2V10h2z" fill="#767676"/></svg><svg viewBox="0 0 32 32" width="32" height="32" id="exercise--sm" x="32" y="128" xmlns="http://www.w3.org/2000/svg"><path d="M27 16h-1v-1a1 1 0 00-1-1v-2a1 1 0 00-1-1h-3a1 1 0 00-1 1v4h-8v-4a1 1 0 00-1-1H8a1 1 0 00-1 1v2a1 1 0 00-1 1v1H5a1 1 0 000 2h1v1a1 1 0 001 1v2a1 1 0 001 1h3a1 1 0 001-1v-4h8v4a1 1 0 001 1h3a1 1 0 001-1v-2a1 1 0 001-1v-1h1a1 1 0 000-2zm-17 5H9v-8h1zm13 0h-1v-8h1z" fill="#767676"/></svg><svg viewBox="0 0 32 32" width="32" height="32" id="experience" x="64" y="128" xmlns="http://www.w3.org/2000/svg"><g fill="#767676"><path d="M27 11a11 11 0 10-18 8.48V31a1 1 0 00.62.92 1 1 0 001.09-.21l5.29-5.3 5.29 5.3A1 1 0 0022 32a.84.84 0 00.38-.08A1 1 0 0023 31V19.48A11 11 0 0027 11zM7 11a9 9 0 119 9 9 9 0 01-9-9zm14 17.59L17.41 25a2 2 0 00-2.82 0L11 28.59v-7.8a10.94 10.94 0 0010 0z"/><path d="M16 18a7 7 0 117-7 7 7 0 01-7 7zm0-12a5 5 0 105 5 5 5 0 00-5-5z"/></g></svg><svg viewBox="0 0 32 32" width="32" height="32" id="experience--sm" x="96" y="128" xmlns="http://www.w3.org/2000/svg"><g fill="#767676"><path d="M23.5 12A8 8 0 1010 17.79V27a1 1 0 001.69.73l3.81-3.61 3.81 3.61A1 1 0 0020 28a1.14 1.14 0 00.4-.08A1 1 0 0021 27v-9.21A8 8 0 0023.5 12zm-14 0a6 6 0 116 6 6 6 0 01-6-6zM19 24.68l-2.28-2.16a1.77 1.77 0 00-2.44 0L12 24.68v-5.5a7.88 7.88 0 007 0v5.5z"/><path d="M19.5 12a4 4 0 10-4 4 4 4 0 004-4zm-4 2.12A2.12 2.12 0 1117.62 12a2.12 2.12 0 01-2.12 2.12z"/></g></svg><svg viewBox="0 0 32 32" width="32" height="32" id="family" x="128" y="128" xmlns="http://www.w3.org/2000/svg"><g fill="#767676" data-name="Arrow Left"><path d="M31 14.85a1 1 0 01-.66-.24L16 2.32 1.66 14.61a1 1 0 01-1.31-1.52l15-12.85a1 1 0 011.3 0l15 12.85a1 1 0 01.1 1.41 1 1 0 01-.75.35z"/><path d="M16 32a2.25 2.25 0 01-1.64-.71l-7.27-7.73a5.83 5.83 0 01-1.17-1.75 6 6 0 01-.35-3.42 5.8 5.8 0 014.53-4.65A5.75 5.75 0 0116 16.2a6 6 0 011.15-1.27 5.74 5.74 0 014.76-1.19 5.81 5.81 0 014.53 4.63 5.92 5.92 0 01-.34 3.41 5.8 5.8 0 01-1.17 1.76l-7.28 7.75A2.29 2.29 0 0116 32zm-.19-2.08a.22.22 0 00.38 0l7.29-7.75a3.79 3.79 0 00.78-1.17 3.93 3.93 0 00.23-2.28 3.82 3.82 0 00-2.95-3 3.71 3.71 0 00-3.11.78 3.92 3.92 0 00-1.42 3 1 1 0 11-2 0 3.92 3.92 0 00-1.42-3 3.68 3.68 0 00-3.1-.78 3.81 3.81 0 00-3 3.05A4 4 0 007.77 21a3.66 3.66 0 00.78 1.15z"/></g></svg><svg viewBox="0 0 32 32" width="32" height="32" id="family--sm" x="160" xmlns="http://www.w3.org/2000/svg"><g fill="#767676"><path d="M27.65 13.67l-11-9.43a1 1 0 00-1.3 0l-11 9.43a1 1 0 001.3 1.52L16 6.32l10.35 8.87a1 1 0 101.3-1.52z"/><path d="M20.39 14.08a4.47 4.47 0 00-3.71.94 4.31 4.31 0 00-.67.68 4.31 4.31 0 00-.67-.68 4.47 4.47 0 00-7.26 2.69 4.5 4.5 0 001.19 4l5.34 5.67a1.91 1.91 0 002.8 0l5.34-5.68a4.43 4.43 0 001.18-4 4.54 4.54 0 00-3.54-3.62zm1.43 5.5a3 3 0 01-.52.77L16 26l-5.3-5.63a2.4 2.4 0 01-.52-.76 2.66 2.66 0 01-.16-1.53 2.52 2.52 0 012-2 2.12 2.12 0 01.5-.05 2.4 2.4 0 011.55.56 2.6 2.6 0 01.95 2 1 1 0 102 0 2.59 2.59 0 01.94-2 2.42 2.42 0 012.04-.54 2.51 2.51 0 011.95 2 2.69 2.69 0 01-.13 1.53z"/></g></svg><svg viewBox="0 0 32 32" width="32" height="32" id="first-time" x="160" y="32" xmlns="http://www.w3.org/2000/svg"><path d="M27 10.5A11 11 0 109 19v12.5a1 1 0 00.62.92 1 1 0 001.09-.21l5.29-5.3 5.29 5.3a1 1 0 00.71.29.84.84 0 00.38-.08 1 1 0 00.62-.92V19a11 11 0 004-8.5zm-20 0a9 9 0 119 9 9 9 0 01-9-9zm14 18.59l-3.59-3.59a2 2 0 00-2.82 0L11 29.09v-8.8a10.94 10.94 0 0010 0z" fill="#767676"/><path d="M13.71 9.7L15 8.41V16a1 1 0 002 0V6a1 1 0 00-.62-.92 1 1 0 00-1.09.21l-3 3a1 1 0 001.42 1.41z" fill="#767676"/></svg><svg viewBox="0 0 32 32" width="32" height="32" id="first-time--sm" x="160" y="64" xmlns="http://www.w3.org/2000/svg"><g data-name="First time" fill="#767676"><path d="M15.5 4A8 8 0 0010 17.79V27a1 1 0 001.69.73l3.81-3.61 3.81 3.61A1 1 0 0020 28a1.14 1.14 0 00.4-.08A1 1 0 0021 27v-9.21A8 8 0 0015.5 4zM19 20v4.68l-2.28-2.16a1.77 1.77 0 00-2.44 0L12 24.68v-5.5a7.88 7.88 0 007 0zm-3.5-2a6 6 0 116-6 6 6 0 01-6 6z"/><path d="M16.38 8.08a1 1 0 00-1.09.21l-2 2a1 1 0 001.42 1.42l.26-.27V15a1 1 0 002 0V9a1 1 0 00-.59-.92z"/></g></svg><svg viewBox="0 0 32 32" width="32" height="32" id="friendly" x="160" y="96" xmlns="http://www.w3.org/2000/svg"><g fill="#767676" data-name="Arrow Left"><path d="M23 16a2.06 2.06 0 01-1.5-.66l-6.1-6.62a4.83 4.83 0 01-1-1.53 5.29 5.29 0 01-.31-3A5.09 5.09 0 0118 .1a4.9 4.9 0 014.09 1 4.75 4.75 0 01.9.95 5.39 5.39 0 01.9-.95A4.92 4.92 0 0128 .1a5.07 5.07 0 013.93 4.08 5.33 5.33 0 01-.29 3 5.15 5.15 0 01-1 1.55l-6.11 6.63A2.07 2.07 0 0123 16zM19 2a3 3 0 00-.6.05 3.08 3.08 0 00-2.4 2.5 3.37 3.37 0 00.19 1.89 3.16 3.16 0 00.63.94L22.93 14l6.15-6.65a3.11 3.11 0 00.62-.94 3.3 3.3 0 00.18-1.87 3.08 3.08 0 00-2.35-2.49 2.88 2.88 0 00-2.43.61A3.24 3.24 0 0024 5.19a1 1 0 11-2 0 3.2 3.2 0 00-1.17-2.52A2.84 2.84 0 0019 2zM10.51 24A6.65 6.65 0 014 17.39a6.47 6.47 0 0112.94 0A6.61 6.61 0 0110.51 24zm0-11A4.47 4.47 0 006 17.39 4.69 4.69 0 0010.51 22a4.59 4.59 0 004.43-4.62A4.43 4.43 0 0010.51 13z"/><path d="M20 32H1a1 1 0 01-1-1c0-5.2 4.43-9 10.53-9S21 25.71 21 31a1 1 0 01-1 1zM2.05 30H18.9c-.51-3.56-3.82-6-8.39-6s-7.94 2.44-8.46 6z"/></g></svg><svg viewBox="0 0 32 32" width="32" height="32" id="friendly--sm" x="160" y="128" xmlns="http://www.w3.org/2000/svg"><g fill="#767676"><path d="M27.93 7.38a4 4 0 00-3.14-3.2A4 4 0 0021.5 5a4.64 4.64 0 00-.5.49 4.64 4.64 0 00-.5-.49 4 4 0 00-3.29-.83 4 4 0 00-3.14 3.21 4.14 4.14 0 00.25 2.36 4 4 0 00.8 1.2l4.59 4.88a1.82 1.82 0 001.29.56 1.79 1.79 0 001.29-.56l4.6-4.89a4 4 0 00.8-1.21 4.1 4.1 0 00.24-2.34zm-2 1.6a2.25 2.25 0 01-.43.62L21 14.35l-4.45-4.74a1.88 1.88 0 01-.43-.61A2.18 2.18 0 0116 7.75a2.08 2.08 0 011.58-1.65 2 2 0 011.67.42A2.11 2.11 0 0120 8.17a1 1 0 002 0 2.11 2.11 0 01.77-1.65 2 2 0 011.67-.42A2.09 2.09 0 0126 7.74 2.17 2.17 0 0125.89 9zM15.29 20.62A4.94 4.94 0 0016.87 17a5 5 0 00-5-5A4.89 4.89 0 007 17a5.05 5.05 0 001.47 3.59A6.69 6.69 0 004 27a1 1 0 001 1h14a1 1 0 001-1 6.83 6.83 0 00-4.71-6.38zM11.87 14a3 3 0 11-3 3 3 3 0 013-3zM6 26c.51-2.37 2.94-4 6-4s5.5 1.6 6 4z"/></g></svg><svg viewBox="0 0 32 32" width="32" height="32" id="grooming" y="160" xmlns="http://www.w3.org/2000/svg"><path d="M30.46 4.79l-.67-.67-3.5-3.5A1 1 0 1024.87 2l2.79 2.79-1.58 1.63-3.29-3.3a1 1 0 10-1.42 1.42l3.29 3.29-1.58 1.59-3.29-3.3a1 1 0 10-1.42 1.42l3.29 3.29-1.58 1.59-3.29-3.3a1 1 0 10-1.42 1.42l3.29 3.29-1.58 1.59-3.29-3.3a1 1 0 10-1.42 1.42l3.29 3.29-1.58 1.59-3.29-3.3a1 1 0 10-1.42 1.42l3.29 3.29-1.58 1.59-3.29-3.3a1 1 0 10-1.42 1.42l3.29 3.29-1.58 1.59-3.29-3.3a1 1 0 10-1.42 1.42l3.29 3.29-1.58 1.59-3.29-3.3a1 1 0 10-1.42 1.42l4 4 .67.67a5 5 0 007.07 0l18.35-18.35a5 5 0 000-7.07zM29 10.45L10.7 28.79a3 3 0 01-4.2 0L29.07 6.25a2.93 2.93 0 01.85 2.08 3 3 0 01-.92 2.12z" fill="#767676"/></svg><svg viewBox="0 0 32 32" width="32" height="32" id="grooming--sm" x="32" y="160" xmlns="http://www.w3.org/2000/svg"><path d="M25 8.55l-.24-.24-2.44-2.42a1 1 0 00-1.41 0 1 1 0 000 1.42l1.47 1.47-1.64 1.63L19.25 9a1 1 0 10-1.4 1.42l1.48 1.46-1.62 1.62-1.49-1.5a1 1 0 00-1.41 0 1 1 0 000 1.42l1.48 1.45-1.61 1.6L13.19 15a1 1 0 10-1.4 1.43l1.49 1.44-1.66 1.66-1.49-1.47a1 1 0 00-1.42 0 1 1 0 000 1.41l1.5 1.53-1.7 1.7-1.77-1.83a1 1 0 00-1.42 0 1 1 0 000 1.41l2.78 2.78a.41.41 0 00.11.07l.09.09a3.94 3.94 0 002.76 1.18 3.47 3.47 0 002.48-1l11.69-11.71a3.14 3.14 0 00.94-2.29A4 4 0 0025 8.55zm-1.15 3.72l-11.7 11.67a1.46 1.46 0 01-1.08.46A2.08 2.08 0 0110 24l13.8-13.81a1.9 1.9 0 01.4 1.17 1.23 1.23 0 01-.37.91z" fill="#767676"/></svg><svg viewBox="0 0 32 32" width="32" height="32" id="guard-dog" x="64" y="160" xmlns="http://www.w3.org/2000/svg"><g fill="#767676"><path d="M25 12h-2V7A7 7 0 009 7v5H7a3 3 0 00-3 3v14a3 3 0 003 3h18a3 3 0 003-3V15a3 3 0 00-3-3zM11 7a5 5 0 0110 0v5H11zm15 22a1 1 0 01-1 1H7a1 1 0 01-1-1V15a1 1 0 011-1h18a1 1 0 011 1z"/><path d="M16 27a1 1 0 01-1-1v-3a1 1 0 012 0v3a1 1 0 01-1 1z"/><path d="M16 24a4 4 0 114-4 4 4 0 01-4 4zm0-6a2 2 0 102 2 2 2 0 00-2-2z"/></g></svg><svg viewBox="0 0 32 32" width="32" height="32" id="guard-dog--sm" x="96" y="160" xmlns="http://www.w3.org/2000/svg"><g data-name="Guard dog" fill="#767676"><path d="M22.55 13H22V9.57a5.58 5.58 0 00-4.1-5.3 6.46 6.46 0 00-5.71 1A5.33 5.33 0 0010 9.5V13h-.55A2.45 2.45 0 007 15.45v10.1A2.45 2.45 0 009.45 28h13.1A2.45 2.45 0 0025 25.55v-10.1A2.45 2.45 0 0022.55 13zM12 9.5a3.34 3.34 0 011.39-2.65 4.47 4.47 0 014-.65A3.57 3.57 0 0120 9.57V13h-8zm11 16.05a.45.45 0 01-.45.45H9.45a.45.45 0 01-.45-.45v-10.1a.45.45 0 01.45-.45h13.1a.45.45 0 01.45.45z"/><path d="M16 16a3 3 0 00-1 5.82V23a1 1 0 002 0v-1.18A3 3 0 0016 16zm0 4a1 1 0 111-1 1 1 0 01-1 1z"/></g></svg><svg viewBox="0 0 32 32" width="32" height="32" id="heat" x="128" y="160" xmlns="http://www.w3.org/2000/svg"><path d="M22 19.19V6.31c0-2.75-1.19-4.84-3.26-5.74a6.19 6.19 0 00-5.95.4A6.29 6.29 0 0010 6.28v12.8a8 8 0 00-1.61 7.4 7.79 7.79 0 005 5.12A8.55 8.55 0 0016 32a8 8 0 008-8 7.73 7.73 0 00-2-4.81zm-2.46 9.65a6.1 6.1 0 01-5.51.85 5.79 5.79 0 01-3.73-3.79 6.22 6.22 0 011.46-5.81 1 1 0 00.24-.65V6.28a4.32 4.32 0 011.89-3.64A3.84 3.84 0 0116 2a4.77 4.77 0 012 .41c1.85.8 2.05 3 2.05 3.9v13.24a1 1 0 00.23.64A6.19 6.19 0 0122 24a6 6 0 01-2.46 4.84z" fill="#767676"/><path d="M17 20.45V6a1 1 0 00-2 0v14.47a3.65 3.65 0 102 0zm-1 5.17A1.66 1.66 0 1117.69 24 1.66 1.66 0 0116 25.62z" fill="#767676"/></svg><svg viewBox="0 0 32 32" width="32" height="32" id="heat--sm" x="160" y="160" xmlns="http://www.w3.org/2000/svg"><g fill="#767676"><path d="M21 18V8.41a4.86 4.86 0 00-2.84-4.54 5.09 5.09 0 00-4.88.37A5 5 0 0011 8.41V18a6.34 6.34 0 00-1 5.71 6.12 6.12 0 004 4 6.68 6.68 0 002 .29 6.22 6.22 0 005-10zm-2.48 7.15a4.37 4.37 0 01-3.93.6 4.09 4.09 0 01-2.65-2.69 4.29 4.29 0 01.84-4.06 1 1 0 00.22-.65V8.41a3 3 0 011.38-2.5A2.92 2.92 0 0116 5.42a3.45 3.45 0 011.35.29A2.91 2.91 0 0119 8.41v10a1 1 0 00.24.65 4.24 4.24 0 01-.74 6.16z"/><path d="M17 20V8.7a1 1 0 00-2 0V20a2 2 0 103 1.72A2 2 0 0017 20z"/></g></svg><svg viewBox="0 0 32 32" width="32" height="32" id="human-interaction" x="192" xmlns="http://www.w3.org/2000/svg"><path d="M26.25 18.09a14.12 14.12 0 00-5.84-3.42 8 8 0 10-8.81 0A13.39 13.39 0 002 27.2V29a3 3 0 003 3h22a3 3 0 003-3v-2.19a12.16 12.16 0 00-3.75-8.72zM10 8a6 6 0 116 6 6 6 0 01-6-6zm18 21a1 1 0 01-1 1H5a1 1 0 01-1-1v-1.8C4 21.13 9.28 16.11 15.77 16a12.63 12.63 0 019.08 3.51 10.22 10.22 0 013.15 7.3z" fill="#767676"/></svg><svg viewBox="0 0 32 32" width="32" height="32" id="human-interaction--sm" x="192" y="32" xmlns="http://www.w3.org/2000/svg"><path data-name="Human interaction" d="M20.52 14.79a6.14 6.14 0 10-7.77.15A10 10 0 006 24.21v1.32A2.46 2.46 0 008.47 28h16.07A2.46 2.46 0 0027 25.54v-1.4a10.22 10.22 0 00-6.48-9.35zm-4-8.8a4.13 4.13 0 011.15 8.09 4.32 4.32 0 01-1.14.19 3.73 3.73 0 01-.47 0A4.13 4.13 0 0116.54 6zM25 25.53a.47.47 0 01-.47.47H8.47a.47.47 0 01-.47-.47v-1.32c0-4.3 3.76-7.87 8.38-7.95H17a9 9 0 015.41 2.1A7.94 7.94 0 0125 24.14z" fill="#767676"/></svg><svg viewBox="0 0 32 32" width="32" height="32" id="hunt" x="192" y="64" xmlns="http://www.w3.org/2000/svg"><path d="M16 0a16 16 0 1016 16A16 16 0 0016 0zm0 30a14 14 0 1114-14 14 14 0 01-14 14z" fill="#767676"/><path d="M22.58 8.21L11.63 10.9a1 1 0 00-.75.83L8.21 22.58a1 1 0 00.26 1 1 1 0 00.71.29 1 1 0 00.24 0l10.87-2.77a.91.91 0 00.4-.21 1 1 0 00.37-.56l2.73-10.91a1 1 0 00-.26-.94 1 1 0 00-.95-.27zM19.26 19.3l-8.71 2.15 2.15-8.76 8.75-2.14z" fill="#767676"/><circle cx="16" cy="16" r="2" fill="#767676"/></svg><svg viewBox="0 0 32 32" width="32" height="32" id="hunt--sm" x="192" y="96" xmlns="http://www.w3.org/2000/svg"><g fill="#767676"><path d="M16 4a12 12 0 1012 12A12 12 0 0016 4zm0 22a10 10 0 1110-10 10 10 0 01-10 10z"/><path d="M20.76 10l-8 2a1 1 0 00-.72.75v.06l-2 7.94a1 1 0 00.26.95 1 1 0 00.7.3 1 1 0 00.24 0l8-2a1 1 0 00.39-.2 1 1 0 00.37-.56l2-8a1 1 0 00-.26-1 1 1 0 00-.98-.24zm-7 3.76l5.83-1.42-1.42 5.86-5.8 1.43z"/><circle cx="16" cy="16" r="2"/></g></svg><svg viewBox="0 0 32 32" width="32" height="32" id="incompatible" x="192" y="128" xmlns="http://www.w3.org/2000/svg"><g data-name="Arrow Left" fill="#767676"><path d="M16 32a16 16 0 1116-16 16 16 0 01-16 16zm0-30a14 14 0 1014 14A14 14 0 0016 2z"/><path d="M16 19a1 1 0 01-1-1v-8a1 1 0 012 0v8a1 1 0 01-1 1zM16 23a1 1 0 01-.38-.08 1 1 0 01-.33-.21 1.15 1.15 0 01-.21-.33A1 1 0 0115 22a1.36 1.36 0 010-.2.64.64 0 01.06-.18.76.76 0 01.09-.18 1.58 1.58 0 01.12-.15 1 1 0 01.33-.21 1 1 0 011.09.21A1 1 0 0117 22a1 1 0 01-.08.38.93.93 0 01-.21.33 1.58 1.58 0 01-.15.12.76.76 0 01-.18.09l-.18.08z"/></g></svg><svg viewBox="0 0 32 32" width="32" height="32" id="incompatible--sm" xmlns="http://www.w3.org/2000/svg"><g fill="#767676"><path d="M15.89 4A11.92 11.92 0 004 16 11.95 11.95 0 1015.89 4zM16 26A10.11 10.11 0 015.89 16 10.11 10.11 0 0116 6a10 10 0 010 20z"/><path d="M16 10a1 1 0 00-1 1v7a1 1 0 002 0v-7a1 1 0 00-1-1zM16.6 20.29a1 1 0 00-1.42 0 1 1 0 00-.21.33 1 1 0 00-.08.38 1.23 1.23 0 000 .19.6.6 0 00.06.19.76.76 0 00.09.18l.12.15a1 1 0 001.42 0 1.58 1.58 0 00.12-.15.76.76 0 00.09-.18.6.6 0 00.06-.19 1.23 1.23 0 000-.19 1 1 0 00-.08-.38 1 1 0 00-.17-.33z"/></g></svg><svg viewBox="0 0 32 32" width="32" height="32" id="indoor-outdoor" y="192" xmlns="http://www.w3.org/2000/svg"><g fill="#767676"><path d="M10.68 13.29a1 1 0 00-1.25 0l-9 7.25a1 1 0 00-.38.78V31a1 1 0 001 1H19a1 1 0 00.71-.29A1 1 0 0020 31v-9.69a1 1 0 00-.37-.78zM12 30H8v-5h4zm6 0h-4v-5.67A1.36 1.36 0 0012.57 23H7.43A1.36 1.36 0 006 24.33V30H2v-8.21l8.05-6.44 8 6.44zM32 5.37a3.84 3.84 0 00-3.58-3.76 4.44 4.44 0 00-6.84 0A3.84 3.84 0 0018 5.37a3.66 3.66 0 00.57 2 3.38 3.38 0 00-.27 1.53 4.34 4.34 0 004.36 4.1 4.25 4.25 0 001.34-.21V18h-1a1 1 0 000 2h4a1 1 0 000-2h-1v-5.2a4.76 4.76 0 001.35.21 4.28 4.28 0 004.35-4.2 3.92 3.92 0 00-.28-1.47A3.63 3.63 0 0032 5.37zm-2.61 2.37a2 2 0 01.31 1.07A2.28 2.28 0 0127.34 11a2.46 2.46 0 01-1.66-.64 1 1 0 00-1.36 0 2.46 2.46 0 01-1.66.64 2.31 2.31 0 01-2.36-2.24 1.54 1.54 0 01.31-1 1 1 0 00-.13-1.21A1.67 1.67 0 0120 5.37a1.85 1.85 0 011.88-1.78h.16a1 1 0 00.9-.48 2.44 2.44 0 014.12 0 1 1 0 00.9.48h.12A1.86 1.86 0 0130 5.37a1.67 1.67 0 01-.48 1.16 1 1 0 00-.13 1.21z"/></g></svg><svg viewBox="0 0 32 32" width="32" height="32" id="indoor-outdoor--sm" x="32" y="192" xmlns="http://www.w3.org/2000/svg"><g data-name="Indoor outdoor" fill="#767676"><path d="M12.17 13.81a1 1 0 00-1.26 0l-6.54 5.31a1 1 0 00-.37.78V27a1 1 0 001 1h13a1 1 0 001-1v-7.1a1 1 0 00-.37-.78zM12 26h-1v-3h1zm5 0h-3v-3.78A1.23 1.23 0 0012.77 21h-2.55A1.22 1.22 0 009 22.22V26H6v-5.61l5.53-4.5 5.47 4.5zM27 8.2a3 3 0 00-2.54-3 3.14 3.14 0 00-4.92 0 3 3 0 00-2.54 3 3.07 3.07 0 00.37 1.46 3.46 3.46 0 00-.17 1.06 3.29 3.29 0 003.22 3.34A2.8 2.8 0 0021 14v3h-.2a1 1 0 100 2h2.41a1 1 0 000-2H23v-3a2.8 2.8 0 00.58.08 3.29 3.29 0 003.22-3.34 3.46 3.46 0 00-.17-1.06A3.07 3.07 0 0027 8.2zm-2.31 1.85a1.38 1.38 0 01.18.67 1.29 1.29 0 01-2.2 1 .92.92 0 00-1.34 0 1.29 1.29 0 01-2.2-1 1.38 1.38 0 01.18-.67 1 1 0 00-.12-1.17 1 1 0 01-.26-.68 1 1 0 01.93-1h.12a1 1 0 00.9-.5 1.3 1.3 0 012.24 0 1 1 0 00.9.5h.05a1 1 0 011 1 1 1 0 01-.26.69 1 1 0 00-.12 1.16z"/></g></svg><svg viewBox="0 0 32 32" width="32" height="32" id="indoors" x="64" y="192" xmlns="http://www.w3.org/2000/svg"><g data-name="Arrow Left" fill="#767676"><path d="M30.83 10.6L18.06.8a3.07 3.07 0 00-4.12 0L1.17 10.6A3 3 0 000 13v16.07A3 3 0 003 32h26a3 3 0 003-2.93V13a3 3 0 00-1.17-2.4zM12 30v-9a4 4 0 018 0v9zm18-.93a1 1 0 01-1 .93h-7v-9a6 6 0 00-12 0v9H3a1 1 0 01-1-.93V13a1 1 0 01.39-.79L15.2 2.35l.08-.07a1.07 1.07 0 011.44 0l.08.07 12.81 9.84A1 1 0 0130 13z"/><path d="M19 11h-6a1 1 0 010-2h6a1 1 0 010 2z"/></g></svg><svg viewBox="0 0 32 32" width="32" height="32" id="indoors--sm" x="96" y="192" xmlns="http://www.w3.org/2000/svg"><path d="M27 27a1 1 0 00.71-.26A1 1 0 0028 26V14a1 1 0 00-.36-.77l-10.94-9a1 1 0 00-1.27 0l-11.06 9A1 1 0 004 14v12a1 1 0 001 1h22m-9-2h-4v-7h4zm8 0h-6v-7.62A1.38 1.38 0 0018.62 16h-5.24A1.38 1.38 0 0012 17.38V25H6V14.47l10.06-8.18L26 14.47z" fill="#767676"/></svg><svg viewBox="0 0 32 32" width="32" height="32" id="low-maintenance" x="128" y="192" xmlns="http://www.w3.org/2000/svg"><g data-name="Arrow Left" fill="#767676"><path d="M30.7 21.5a3 3 0 00-3.62-1.64H27l-4.74 1.88A2.29 2.29 0 0019.7 20h-5.07c-3.83-4.27-8.1-2.94-10.23-2H2.07a1 1 0 000 2h2.56a1 1 0 00.44-.1A6.36 6.36 0 0113 21c.19.2.88 1 1.15 1h5.48c.36 0 .78.56.78 1s-.43 1-.78 1h-7.28c-.84 0-1 .55-1 1 0 .73.67.94 1.23.94h7.27a2.57 2.57 0 002.36-2.07l5.43-2.13a1 1 0 011.21.56 1 1 0 01-.49 1.38L18.89 29s-2.35 1.43-4.15.86L2.35 25.4a1 1 0 00-1.28.6 1 1 0 00.6 1.28l12.42 4.48a5.14 5.14 0 001.58.24 9 9 0 004.24-1.27l9.47-5.27a3 3 0 001.32-3.96zM8.5 8.3l5.84 6.21a2 2 0 001.46.63 2 2 0 001.47-.63l5.84-6.22a4.84 4.84 0 001-1.47A5 5 0 0024.38 4a4.8 4.8 0 00-7.78-2.91 5.22 5.22 0 00-.8.83 5.15 5.15 0 00-.8-.83 4.81 4.81 0 00-4-1A4.9 4.9 0 007.22 4a5.06 5.06 0 00.3 2.86A4.68 4.68 0 008.5 8.3zm.69-4a2.83 2.83 0 012.22-2.29 2.73 2.73 0 012.32.58 2.94 2.94 0 011.07 2.33 1 1 0 002 0 2.94 2.94 0 011.07-2.28 2.75 2.75 0 012.33-.58 2.83 2.83 0 012.21 2.28 3 3 0 01-.17 1.72 2.77 2.77 0 01-.58.86l-5.86 6.22L10 6.93a2.82 2.82 0 01-.59-.86 3 3 0 01-.22-1.72z"/></g></svg><svg viewBox="0 0 32 32" width="32" height="32" id="low-maintenance--sm" x="160" y="192" xmlns="http://www.w3.org/2000/svg"><g data-name="Low maintenance" fill="#767676"><path d="M10.12 10.71l4.59 4.87a1.78 1.78 0 001.29.56 1.75 1.75 0 001.29-.56l4.6-4.89a3.91 3.91 0 00.8-1.21 4.1 4.1 0 00.24-2.35 4 4 0 00-3.14-3.19 4 4 0 00-3.29.82 3.94 3.94 0 00-.5.5 3.94 3.94 0 00-.5-.5 4 4 0 00-6.43 2.38 4.13 4.13 0 00.25 2.36 4 4 0 00.8 1.21zM11 7.5a2.09 2.09 0 011.59-1.65 3 3 0 01.41 0 2 2 0 011.26.46A2.11 2.11 0 0115 7.92a1 1 0 002 0 2.11 2.11 0 01.77-1.65 2 2 0 011.67-.42A2.11 2.11 0 0121 7.49a2.21 2.21 0 01-.12 1.25 2.21 2.21 0 01-.43.61L16 14.1l-4.45-4.73a2 2 0 01-.43-.62A2.21 2.21 0 0111 7.5zM28.26 20.26a2.62 2.62 0 00-3.15-1.41H25l-3.78 1.5A2.3 2.3 0 0019.18 19h-4a7.82 7.82 0 00-8.33-1.4H5a1 1 0 000 2h2.06a.91.91 0 00.43-.1 5.88 5.88 0 016.56 1.2 1 1 0 00.71.3h4.42c.15 0 .33.2.33.46s-.18.46-.33.46h-5.85a1 1 0 100 2h5.85a2.33 2.33 0 002.1-1.41l4.43-1.75a.62.62 0 01.73.35.64.64 0 01-.3.85l-7.67 4.26a4.55 4.55 0 01-3.17.68l-10-3.6a1 1 0 10-.68 1.88l10 3.61A4.36 4.36 0 0016 29a7.43 7.43 0 003.51-1l7.62-4.23a2.66 2.66 0 001.13-3.51z"/></g></svg><svg viewBox="0 0 32 32" width="32" height="32" id="medicine" x="192" y="192" xmlns="http://www.w3.org/2000/svg"><g fill="#767676"><path d="M19 19h-2v-2a1 1 0 00-2 0v2h-2a1 1 0 000 2h2v2a1 1 0 002 0v-2h2a1 1 0 000-2z"/><path d="M23 7.84V6h1a1 1 0 001-1V1a1 1 0 00-1-1H8a1 1 0 00-1 1v4a1 1 0 001 1h1v1.84a9.06 9.06 0 00-5 8.08V31a1 1 0 001 1h22a1 1 0 001-1V15.92a9.07 9.07 0 00-5-8.08zM6 15.92a7.09 7.09 0 01.28-2 1.55 1.55 0 00.21 0h19a1.55 1.55 0 00.21 0 7.09 7.09 0 01.28 2V26H6zM9 2h14v2H9zm1.4 7.37a1 1 0 00.6-1V6h10v2.4a1 1 0 00.32.72.84.84 0 00.36.28 7.13 7.13 0 013.13 2.6H7.19a7.06 7.06 0 013.21-2.63zM6 30v-2h20v2z"/></g></svg><svg viewBox="0 0 32 32" width="32" height="32" id="medicine--sm" x="224" xmlns="http://www.w3.org/2000/svg"><g fill="#767676"><path d="M18 18h-1v-1a1 1 0 00-2 0v1h-1a1 1 0 000 2h1v1a1 1 0 002 0v-1h1a1 1 0 000-2z"/><path d="M21 9.67V9h1a1 1 0 001-1V5a1 1 0 00-1-1H10a1 1 0 00-1 1v3a1 1 0 001 1h1v.67a7 7 0 00-4 6.27V27a1 1 0 001 1h16a1 1 0 001-1V15.94a7 7 0 00-4-6.27zM11 6h10v1H11zm1.33 5.27a1 1 0 00.67-1.11.76.76 0 000-.16V9h6v1a.76.76 0 000 .16 1 1 0 00.64 1.11A4.89 4.89 0 0122 13H10a4.89 4.89 0 012.33-1.73zM23 26H9v-1h14zm0-3H9v-7.06a4.92 4.92 0 01.1-.94h13.8a4.92 4.92 0 01.1.94z"/></g></svg><svg viewBox="0 0 32 32" width="32" height="32" id="microchip" x="224" y="32" xmlns="http://www.w3.org/2000/svg"><g fill="#767676"><path d="M18.71 9.29A1 1 0 0018 9h-8a1 1 0 00-1 1v12a1 1 0 001 1h12a1 1 0 001-1v-8a1 1 0 00-.29-.71zM21 21H11V11h6.59L21 14.41z"/><path d="M31 19h-3v-2h3a1 1 0 000-2h-3v-2h3a1 1 0 000-2h-3V5a1 1 0 00-1-1h-6V1a1 1 0 00-2 0v3h-2V1a1 1 0 00-2 0v3h-2V1a1 1 0 00-2 0v3H5a1 1 0 00-1 1v6H1a1 1 0 000 2h3v2H1a1 1 0 000 2h3v2H1a1 1 0 000 2h3v6a1 1 0 001 1h6v3a1 1 0 002 0v-3h2v3a1 1 0 002 0v-3h2v3a1 1 0 002 0v-3h6a1 1 0 001-1v-6h3a1 1 0 000-2zm-5 7H6V6h20z"/></g></svg><svg viewBox="0 0 32 32" width="32" height="32" id="microchip--sm" x="224" y="64" xmlns="http://www.w3.org/2000/svg"><g fill="#767676"><path d="M12 21h8a1 1 0 001-1v-5.33a1 1 0 00-.29-.71L18 11.29a1 1 0 00-.71-.29H12a1 1 0 00-1 1v8a1 1 0 001 1zm1-8h3.92L19 15.08V19h-6z"/><path d="M27 17.5h-2v-3h2a1 1 0 000-2h-2V8a1 1 0 00-1-1h-4.53a.7.7 0 000-.14V5a1 1 0 00-2 0v1.86a.7.7 0 000 .14h-3a.7.7 0 000-.14V5a1 1 0 00-2 0v1.86a.7.7 0 000 .14H8a1 1 0 00-1 1v4.5H5a1 1 0 000 2h2v3H5a1 1 0 000 2h2V24a1 1 0 001 1h4.5v2a1 1 0 002 0v-2h3v2a1 1 0 002 0v-2H24a1 1 0 001-1v-4.5h2a1 1 0 000-2zM23 23H9V9h14z"/></g></svg><svg viewBox="0 0 32 32" width="32" height="32" id="need-space" x="224" y="96" xmlns="http://www.w3.org/2000/svg"><g fill="#767676"><path d="M26.69 20.29L24 17.57A1 1 0 0022.55 19l1 1H8.43l1-1A1 1 0 108 17.57l-2.69 2.72A1 1 0 005 21a1 1 0 00.29.71L8 24.44A1 1 0 009.45 23l-1-1h15.12l-1 1A1 1 0 0024 24.44l2.73-2.73A1 1 0 0027 21a1 1 0 00-.31-.71z"/><path d="M30.83 10.61L18.06.8a3.07 3.07 0 00-4.12 0L1.17 10.61A3 3 0 000 13v16.08A3 3 0 003 32h26a3 3 0 003-2.92V13a3 3 0 00-1.17-2.39zM30 29.08a1 1 0 01-1 .92H3a1 1 0 01-1-.92V13a1 1 0 01.39-.8L15.2 2.36l.08-.08a1.07 1.07 0 011.44 0 .6.6 0 01.08.08l12.81 9.83A1 1 0 0130 13z"/></g></svg><svg viewBox="0 0 32 32" width="32" height="32" id="need-space--sm" x="224" y="128" xmlns="http://www.w3.org/2000/svg"><g data-name="Need space" fill="#767676"><path d="M27.64 13.2l-10.94-9a1 1 0 00-1.27 0l-11.06 9A1 1 0 004 14v12a1 1 0 001 1h22a1 1 0 00.71-.29A1 1 0 0028 26V14a1 1 0 00-.36-.8zM26 25H6V14.47l10.06-8.18L26 14.47z"/><path d="M20.59 18h-9.18l.3-.29a1 1 0 00-1.42-1.42l-2 2a1 1 0 000 1.42l2 2a1 1 0 001.42 0 1 1 0 000-1.42l-.3-.29h9.18l-.3.29a1 1 0 000 1.42 1 1 0 001.42 0l2-2a1 1 0 000-1.42l-2-2a1 1 0 00-1.42 1.42z"/></g></svg><svg viewBox="0 0 32 32" width="32" height="32" id="no-alone" x="224" y="160" xmlns="http://www.w3.org/2000/svg"><path d="M29 32H3a3 3 0 01-3-2.92V13a3 3 0 011.17-2.38L13.94.8a3.07 3.07 0 014.12 0l12.77 9.81A3 3 0 0132 13v16.08A3 3 0 0129 32zM16 2a1.09 1.09 0 00-.72.28l-.08.08-12.81 9.83A1 1 0 002 13v16.08A1 1 0 003 30h26a1 1 0 001-.92V13a1 1 0 00-.39-.8L16.8 2.36a.6.6 0 00-.08-.08A1.09 1.09 0 0016 2z" fill="#767676"/><g data-name="No alone"><g data-name="May not get on well with children" fill="#767676"><path d="M16 22a1 1 0 01-1-1V11a1 1 0 012 0v10a1 1 0 01-1 1zM16 26a1.05 1.05 0 01-.71-.29 1.15 1.15 0 01-.21-.33A1 1 0 0115 25a1.05 1.05 0 01.29-.71 1 1 0 011.09-.21.93.93 0 01.33.21A1 1 0 0117 25a1 1 0 01-.07.38 1.46 1.46 0 01-.22.33.93.93 0 01-.33.21A1 1 0 0116 26z"/></g></g></svg><svg viewBox="0 0 32 32" width="32" height="32" id="no-alone--sm" x="224" y="192" xmlns="http://www.w3.org/2000/svg"><g data-name="No alone" fill="#767676"><path d="M27.64 13.2l-10.94-9a1 1 0 00-1.27 0l-11.06 9A1 1 0 004 14v12a1 1 0 001 1h22a1 1 0 00.71-.29A1 1 0 0028 26V14a1 1 0 00-.36-.8zM26 25H6V14.47l10.06-8.18L26 14.47z"/><path d="M15 12v7a1 1 0 002 0v-7a1 1 0 00-2 0zM16.71 21.29a1 1 0 00-1.09-.21 1.15 1.15 0 00-.33.21 1 1 0 00-.21.33A1 1 0 0015 22a1.05 1.05 0 00.29.71 1.15 1.15 0 00.33.21A1 1 0 0016 23a1 1 0 00.71-.29A1.05 1.05 0 0017 22a.84.84 0 00-.08-.38 1 1 0 00-.21-.33z"/></g></svg><svg viewBox="0 0 32 32" width="32" height="32" id="no-garden" y="224" xmlns="http://www.w3.org/2000/svg"><path d="M31.8.2a1 1 0 00-1.41 0l-4.67 4.66a5.87 5.87 0 00-4.36-2.16 6.67 6.67 0 00-10.72 0A5.77 5.77 0 005 8.39a5.56 5.56 0 001.06 3.25 6 6 0 00-.57 2.56 6.43 6.43 0 004.73 6.14L.17 30.42a1 1 0 000 1.41 1 1 0 00.7.3 1 1 0 00.71-.3l11.29-11.28a6.85 6.85 0 002.13-.61V30h-2a1 1 0 000 2h6a1 1 0 000-2h-2V19.94a6.67 6.67 0 002.9.67 6.51 6.51 0 006.59-6.41 6 6 0 00-.57-2.56 5.55 5.55 0 00.8-4.94l5.08-5.09a1 1 0 000-1.41zM7.51 14.5a4.14 4.14 0 01.64-2.19A1 1 0 008 11.13a3.56 3.56 0 01-1-2.44A3.77 3.77 0 0110.89 5h.2a1 1 0 00.91-.46 4.67 4.67 0 018 0 1 1 0 00.9.46h.23a3.91 3.91 0 013 1.44L11.72 18.87a4.47 4.47 0 01-4.21-4.37zM25 8.69a3.56 3.56 0 01-1 2.44 1 1 0 00-.14 1.18 4.14 4.14 0 01.64 2.19 4.51 4.51 0 01-4.59 4.41 4.62 4.62 0 01-3.21-1.27 1 1 0 00-.65-.27L25 8.45v.24z" fill="#767676"/></svg><svg viewBox="0 0 32 32" width="32" height="32" id="no-garden--sm" x="32" y="224" xmlns="http://www.w3.org/2000/svg"><path data-name="No garden" d="M27.71 4a1 1 0 00-1.42 0l-4 4A4.36 4.36 0 0020 7a4.94 4.94 0 00-8 0 4.39 4.39 0 00-4 4.42 4.41 4.41 0 00.65 2.41 4.89 4.89 0 00-.37 1.85 5 5 0 002.19 4.11L4.29 26a1 1 0 000 1.42 1 1 0 001.42 0l6.81-6.82a4.28 4.28 0 00.72.07 4.79 4.79 0 001.76-.39V27h-1a1 1 0 000 2h4a1 1 0 000-2h-1v-6.72a4.79 4.79 0 001.76.34 5 5 0 005-5 4.89 4.89 0 00-.37-1.85 4.41 4.41 0 00.61-2.36 4.48 4.48 0 00-.43-1.9l4.14-4.14a1 1 0 000-1.37zM10.32 16.15a2.88 2.88 0 01.34-1.87 1 1 0 00-.07-1.2A2.42 2.42 0 0112.35 9h.16a1 1 0 00.93-.5 2.94 2.94 0 015.12 0 1 1 0 00.93.5h.14a2.47 2.47 0 011.26.36l-9 9a3.05 3.05 0 01-1.57-2.21zm11.75-4.72a2.46 2.46 0 01-.66 1.65 1 1 0 00-.07 1.2 2.88 2.88 0 01.34 1.87 3 3 0 01-2.25 2.42 2.93 2.93 0 01-2.73-.77 1 1 0 00-1.4 0 .54.54 0 01-.12.09L22 11.05a2.33 2.33 0 01.07.38z" fill="#767676"/></svg><svg viewBox="0 0 32 32" width="32" height="32" id="outdoor" x="64" y="224" xmlns="http://www.w3.org/2000/svg"><g fill="#767676"><path d="M16 32a1 1 0 01-1-1V18.81a1 1 0 012 0V31a1 1 0 01-1 1z"/><path d="M19 32h-6a1 1 0 010-2h6a1 1 0 010 2zM19.9 20.61a6.66 6.66 0 01-3.9-1.25 6.66 6.66 0 01-3.9 1.25 6.51 6.51 0 01-6.59-6.41 6 6 0 01.57-2.56A5.56 5.56 0 015 8.39a5.77 5.77 0 015.64-5.69 6.67 6.67 0 0110.72 0A5.77 5.77 0 0127 8.39a5.56 5.56 0 01-1.06 3.25 6 6 0 01.57 2.56 6.51 6.51 0 01-6.61 6.41zM16 17.37a1 1 0 01.69.27 4.62 4.62 0 003.21 1.27 4.51 4.51 0 004.59-4.41 4.14 4.14 0 00-.64-2.19 1 1 0 01.15-1.18 3.56 3.56 0 001-2.44A3.78 3.78 0 0021.13 5h-.23a1 1 0 01-.9-.46 4.67 4.67 0 00-8 0 1 1 0 01-.9.46h-.2A3.77 3.77 0 007 8.69a3.56 3.56 0 001 2.44 1 1 0 01.14 1.18 4.14 4.14 0 00-.64 2.19 4.51 4.51 0 004.59 4.41 4.62 4.62 0 003.21-1.27 1 1 0 01.7-.27z"/></g></svg><svg viewBox="0 0 34 34" width="32" height="32" id="outdoor--sm" x="96" y="224" xmlns="http://www.w3.org/2000/svg"><path d="M25 11.41A4.39 4.39 0 0021 7a4.94 4.94 0 00-8 0 4.39 4.39 0 00-4 4.42 4.41 4.41 0 00.65 2.41 4.89 4.89 0 00-.37 1.85 5 5 0 005 5 4.79 4.79 0 001.72-.4V27h-1a1 1 0 000 2h4a1 1 0 000-2h-1v-6.72a4.79 4.79 0 001.76.34 5 5 0 005-5 4.89 4.89 0 00-.37-1.85 4.41 4.41 0 00.61-2.36zm-2.66 2.87a2.88 2.88 0 01.34 1.87 3 3 0 01-2.25 2.42 2.93 2.93 0 01-2.73-.77 1 1 0 00-1.4 0 2.93 2.93 0 01-2.73.77 3 3 0 01-2.25-2.42 2.88 2.88 0 01.34-1.87 1 1 0 00-.07-1.2A2.42 2.42 0 0113.35 9h.16a1 1 0 00.93-.5 2.94 2.94 0 015.12 0 1 1 0 00.93.5h.14a2.42 2.42 0 011.78 4.08 1 1 0 00-.07 1.2z" fill="#767676"/></svg><svg viewBox="0 0 32 32" width="32" height="32" id="pairs" x="128" y="224" xmlns="http://www.w3.org/2000/svg"><g data-name="Arrow Left" fill="#767676"><path d="M23.78 19c-.93 0-1.49-1-2.08-2.1l-.15-.27a5.78 5.78 0 011.92-7.89 5.35 5.35 0 014.11-.52 6 6 0 013.62 2.85 6.14 6.14 0 01.8 2.66 1 1 0 01-.34.81 1 1 0 01-.86.23c-.15 0-3.89-.69-5.93 3.51a1.21 1.21 0 01-1.06.72zm.2-1zm-.9-.62zM26.13 10a3.35 3.35 0 00-1.66.44 3.79 3.79 0 00-1.18 5.18l.16.29c.06.1.14.24.22.4a7.65 7.65 0 016.1-3.63 4.29 4.29 0 00-.31-.65 4 4 0 00-2.4-1.91 3.71 3.71 0 00-.93-.12z"/><circle cx="17" cy="13" r="2"/><circle cx="18" cy="8" r="2"/><circle cx="23" cy="5" r="2"/><circle cx="28" cy="5" r="2"/><path d="M8.18 30a1.21 1.21 0 01-1.07-.73c-2-4.21-5.73-3.55-5.88-3.52a1.07 1.07 0 01-.86-.23 1 1 0 01-.37-.81A6.31 6.31 0 01.79 22a6 6 0 013.62-2.87 5.3 5.3 0 014.09.53 5.84 5.84 0 011.9 7.92l-.14.27C9.67 29 9.11 30 8.18 30zm.7-1.62zm-6.65-4.71a7.56 7.56 0 016 3.63c.09-.15.17-.29.22-.39l.16-.29a3.85 3.85 0 00-1.12-5.22 3.31 3.31 0 00-2.56-.32 4.09 4.09 0 00-2.7 2.59z"/><circle cx="15" cy="24" r="2"/><circle cx="14" cy="19" r="2"/><circle cx="9" cy="16" r="2"/><circle cx="4" cy="16" r="2"/></g></svg><svg viewBox="0 0 32 32" width="32" height="32" id="pairs--sm" x="160" y="224" xmlns="http://www.w3.org/2000/svg"><g fill="#767676"><path d="M8.48 19.81a4.83 4.83 0 00-6.62 1.66l-.12.2c-.5.83-1 1.69-.57 2.44a1.19 1.19 0 001.09.58 5.1 5.1 0 015 2.83 1 1 0 00.61.59.86.86 0 00.32.05A1.07 1.07 0 008.7 28a4.74 4.74 0 001.6-1.64 4.83 4.83 0 00-1.82-6.55zm.09 5.56a1.76 1.76 0 01-.14.23 7 7 0 00-5-2.86l.13-.22a2.83 2.83 0 013.88-.94 2.81 2.81 0 011.13 3.79z"/><circle cx="13.54" cy="24" r="2"/><circle cx="3.54" cy="17" r="2"/><circle cx="8.54" cy="16" r="2"/><circle cx="12.54" cy="19" r="2"/><path d="M30.2 11.88a5.74 5.74 0 00-7.78-2.32 5.38 5.38 0 00-2.59 3.49 6 6 0 00.65 4.39l.15.27c.6 1.07 1.17 2.09 2.1 2.09a1.24 1.24 0 001.08-.72c2.05-4.17 5.79-3.51 5.94-3.48a1.05 1.05 0 00.87-.23 1 1 0 00.35-.83 6.24 6.24 0 00-.77-2.66zm-7.57 5.22c-.09-.15-.17-.28-.22-.38l-.16-.29a4 4 0 01-.44-2.91 3.42 3.42 0 011.62-2.2 3.3 3.3 0 011.66-.44 4 4 0 013.63 2.63 7.68 7.68 0 00-6.09 3.59zM16 12a2 2 0 102 2 2 2 0 00-2-2zM17.05 6.91a2 2 0 102 2 2 2 0 00-2-2zM22.14 7.93a2 2 0 10-2-2 2 2 0 002 2zM27.23 7.93a2 2 0 10-2-2 2 2 0 002 2z"/></g></svg><svg viewBox="0 0 32 32" width="32" height="32" id="patient" x="192" y="224" xmlns="http://www.w3.org/2000/svg"><path d="M16 29.56a3 3 0 01-2.16-.92L2.42 16.78a8.23 8.23 0 01-1.74-2.52A8.5 8.5 0 0116 6.94a8.64 8.64 0 012.08-2.55 8.5 8.5 0 0113.26 9.83 8.39 8.39 0 01-1.74 2.53L18.16 28.64a3 3 0 01-2.16.92zm-.72-2.31a1 1 0 001.44 0l11.44-11.88a6.43 6.43 0 001.34-1.93 6.58 6.58 0 00.38-3.78 6.49 6.49 0 00-5.09-5.1 6.57 6.57 0 00-5.43 1.37 6.49 6.49 0 00-2.36 5 1 1 0 01-2 0 6.49 6.49 0 00-2.36-5 6.57 6.57 0 00-5.43-1.37 6.49 6.49 0 00-4.69 8.92 6.34 6.34 0 001.34 1.92z" fill="#767676"/></svg><svg viewBox="0 0 32 32" width="32" height="32" id="patient--sm" x="224" y="224" xmlns="http://www.w3.org/2000/svg"><path d="M16 26a2.47 2.47 0 01-1.78-.75l-8.37-8.7A6.45 6.45 0 019.23 5.7a6.53 6.53 0 015.41 1.37A6.41 6.41 0 0116 8.61a6.41 6.41 0 011.36-1.54 6.49 6.49 0 0110.13 7.52 6.37 6.37 0 01-1.32 1.94l-8.39 8.71A2.44 2.44 0 0116 26zm-.34-2.14a.48.48 0 00.68 0l8.39-8.72a4.56 4.56 0 00.92-1.33 4.42 4.42 0 00.26-2.62 4.5 4.5 0 00-8.91.89 1 1 0 01-2 0 4.5 4.5 0 10-8.64 1.75 4.42 4.42 0 00.93 1.33z" fill="#767676"/></svg><svg viewBox="0 0 32 32" width="32" height="32" id="quiet-home" x="256" xmlns="http://www.w3.org/2000/svg"><g data-name="Arrow Left" fill="#767676"><path d="M31.65 13.1L16.65.24a1 1 0 00-1.3 0L.35 13.1a1 1 0 101.3 1.52L16 2.32l14.35 12.3a1 1 0 101.3-1.52z"/><path d="M21.48 14a1 1 0 00-1 0l-7.78 5H9a1 1 0 00-1 1v5a1 1 0 001 1h3.7l7.78 5a1 1 0 00.54.16.92.92 0 00.46-.11.93.93 0 00.52-.83v-15.4a.93.93 0 00-.52-.82zM10 21h2v3h-2zm10 8l-6-4v-4.31l6-4z"/></g></svg><svg viewBox="0 0 32 32" width="32" height="32" id="quiet-home--sm" x="256" y="32" xmlns="http://www.w3.org/2000/svg"><g data-name="Quiet home" fill="#767676"><path d="M27.12 15.3a1 1 0 01-.65-.24L16.12 6.19 5.77 15.06a1 1 0 01-1.3-1.52l11-9.42a1 1 0 011.3 0l11 9.42a1 1 0 01.11 1.46 1 1 0 01-.76.3z"/><path d="M19.47 14.12a1 1 0 00-1 .05l-5.62 3.74a1 1 0 00-.29.09H10a1 1 0 00-1 1v4a1 1 0 001 1h2.7l5.75 3.83A1 1 0 0020 27V15a1 1 0 00-.53-.88zM11 20h1v2h-1zm7 5.13l-4-2.67v-2.92l4-2.67z"/></g></svg><svg viewBox="0 0 32 32" width="32" height="32" id="sleep" x="256" y="64" xmlns="http://www.w3.org/2000/svg"><g fill="#767676"><path d="M17 7h3.2l-4.05 6.47A1 1 0 0017 15h5a1 1 0 000-2h-3.2l4.05-6.47A1 1 0 0022 5h-5a1 1 0 000 2zM31 8h-3.2l4.05-6.47a1 1 0 000-1A1 1 0 0031 0h-5a1 1 0 000 2h3.2l-4.05 6.47A1 1 0 0026 10h5a1 1 0 000-2z"/><path d="M28.6 21.22a13.44 13.44 0 01-6.25 1.12A13.58 13.58 0 0110.67 3.39a1 1 0 00-.21-1.1 1 1 0 00-1.11-.21A15.62 15.62 0 0014.67 32h.92a15.64 15.64 0 0014.33-9.47 1 1 0 00-.22-1.11 1 1 0 00-1.1-.2zM14.79 30A13.62 13.62 0 018 5.1a14.88 14.88 0 00-.41 2.73 15.63 15.63 0 0014.64 16.51 15.29 15.29 0 004.68-.44A13.63 13.63 0 0114.79 30z"/></g></svg><svg viewBox="0 0 32 32" width="32" height="32" id="sleep--sm" x="256" y="96" xmlns="http://www.w3.org/2000/svg"><g fill="#767676"><path d="M15.13 13.49A1 1 0 0016 14h3.09a1 1 0 100-2h-1.32l2.09-3.49A1 1 0 0019 7h-2.88a1 1 0 100 2h1.11l-2.09 3.49a1 1 0 00-.01 1zM26 9h-1.23l2.09-3.49A1 1 0 0026 4h-3a1 1 0 000 2h1.19l-2.05 3.49A1 1 0 0023 11h3a1 1 0 000-2z"/><path d="M24.76 20a8.93 8.93 0 01-4.13.75 9 9 0 01-7.72-12.57 1 1 0 00-.22-1.1 1 1 0 00-1.11-.21A11 11 0 0015.34 28H16a11 11 0 0010.1-6.69A1 1 0 0024.76 20zm-9.3 6a9 9 0 01-5.14-16 8.39 8.39 0 00-.13 1.11 11 11 0 0010.32 11.63 10.36 10.36 0 002.49-.13A9 9 0 0115.46 26z"/></g></svg><svg viewBox="0 0 32 32" width="32" height="32" id="sm-home" x="256" y="128" xmlns="http://www.w3.org/2000/svg"><path d="M30.83 10.61L18.06.8a3.07 3.07 0 00-4.12 0L1.17 10.61A3 3 0 000 13v16.08A3 3 0 003 32h26a3 3 0 003-2.92V13a3 3 0 00-1.17-2.39zM30 29.08a1 1 0 01-1 .92H3a1 1 0 01-1-.92V13a1 1 0 01.39-.8L15.2 2.36l.08-.08a1.07 1.07 0 011.44 0 .6.6 0 01.08.08l12.81 9.83A1 1 0 0130 13z" fill="#767676"/><path d="M13.93 20.62a.91.91 0 00-.22-.33L11 17.57a1 1 0 00-1.42 0 1 1 0 000 1.41l1 1H6a1 1 0 000 2h4.57l-1 1A1 1 0 1011 24.43l2.72-2.72a.91.91 0 00.22-.33A1 1 0 0014 21a1 1 0 00-.07-.38zM26 20h-4.58l1-1A1 1 0 0021 17.57l-2.7 2.72a1 1 0 000 1.42l2.7 2.72a1 1 0 001.41 0 1 1 0 000-1.41l-1-1H26a1 1 0 000-2z" fill="#767676"/></svg><svg viewBox="0 0 32 32" width="32" height="32" id="sm-home--sm" x="256" y="160" xmlns="http://www.w3.org/2000/svg"><g data-name="Sm home" fill="#767676"><path d="M27.64 13.2l-10.94-9a1 1 0 00-1.27 0l-11.06 9A1 1 0 004 14v12a1 1 0 001 1h22a1 1 0 001-1V14a1 1 0 00-.36-.8zM26 25H6V14.48l10.06-8.19L26 14.47z"/><path d="M19.29 21.71a1 1 0 001.42 0 1 1 0 000-1.42l-.3-.29H23a1 1 0 000-2h-2.59l.3-.29a1 1 0 00-1.42-1.42l-2 2a1 1 0 000 1.42zM12.71 16.29a1 1 0 00-1.42 1.42l.3.29H9a1 1 0 000 2h2.59l-.3.29a1 1 0 000 1.42 1 1 0 001.42 0l2-2a1 1 0 000-1.42z"/></g></svg><svg viewBox="0 0 32 32" width="32" height="32" id="sporting" x="256" y="192" xmlns="http://www.w3.org/2000/svg"><path d="M31 22h-1v-5h.93a1 1 0 000-2H30v-3h.93a1 1 0 100-2H30V9a1 1 0 10-2 0v1H4V9a1 1 0 00-2 0v1h-.89a1 1 0 100 2H2v3h-.93a1 1 0 000 2H2v5H1a1 1 0 000 2h4a1 1 0 000-2H4v-5h24v5h-1a1 1 0 100 2h4a1 1 0 000-2zm-3-7H4v-3h24z" fill="#767676"/></svg><svg viewBox="0 0 32 32" width="32" height="32" id="sporting--sm" x="256" y="224" xmlns="http://www.w3.org/2000/svg"><g fill="#767676"><path d="M6 22a1 1 0 01-1-1V11a1 1 0 012 0v10a1 1 0 01-1 1zM26 22a1 1 0 01-1-1V11a1 1 0 012 0v10a1 1 0 01-1 1z"/><path d="M26.9 17H5.1a1 1 0 110-2h21.8a1 1 0 010 2zM27 22h-2a1 1 0 010-2h2a1 1 0 010 2zM7 22H5a1 1 0 010-2h2a1 1 0 010 2zM26.89 13H5.11a1 1 0 010-2h21.77a1 1 0 010 2z"/></g></svg><svg viewBox="0 0 32 32" width="32" height="32" id="startled" y="256" xmlns="http://www.w3.org/2000/svg"><g data-name="Arrow Left" fill="#767676"><path d="M18 22h-4a1 1 0 01-1-1V1a1 1 0 011-1h4a1 1 0 011 1v20a1 1 0 01-1 1zm-3-2h2V2h-2zM16 32a4 4 0 114-4 4 4 0 01-4 4zm0-6a2 2 0 102 2 2 2 0 00-2-2z"/></g></svg><svg viewBox="0 0 32 32" width="32" height="32" id="startled--sm" x="32" y="256" xmlns="http://www.w3.org/2000/svg"><g fill="#767676"><path d="M17 4h-3a1 1 0 00-1 1v16a1 1 0 001 1h3a1 1 0 001-1V5a1 1 0 00-1-1zm-1 16h-1V6h1zM16 24a2 2 0 102 2 2 2 0 00-2-2zM28.52 7.13l-3-.26a1 1 0 00-.73.23 1 1 0 00-.35.68l-1 11a1 1 0 00.91 1.08l3 .26h.09a.94.94 0 00.64-.24 1 1 0 00.36-.67l1-11a1 1 0 00-.92-1.08zM26.56 18l-1-.08.78-9 1 .08z"/><circle cx="25" cy="24" r="2"/><path d="M8.51 18.76l-.87-10a1 1 0 00-1.08-.91l-3 .26a1 1 0 00-.9 1.09l.87 10a1 1 0 00.36.67.94.94 0 00.64.24h.09l3-.26a1 1 0 00.89-1.09zM5.44 18l-.7-8 1-.09.7 8z"/><circle cx="7" cy="24" r="2"/></g></svg><svg viewBox="0 0 32 32" width="32" height="32" id="training" x="64" y="256" xmlns="http://www.w3.org/2000/svg"><path d="M31.84 9.46A1 1 0 0031 9H7.84a1.07 1.07 0 00-.31.06 8.5 8.5 0 109.13 11l12.68-4.81a1 1 0 00.56-.51l2-4.31a1 1 0 00-.06-.97zM8.53 24a6.5 6.5 0 116.52-6.5A6.52 6.52 0 018.53 24zm19.73-10.48L17 17.76v-.26a8.46 8.46 0 00-3-6.5h5v2a1 1 0 002 0v-2h8.43z" fill="#767676"/><path d="M8.53 13A4.49 4.49 0 1013 17.5 4.49 4.49 0 008.53 13zm0 7A2.49 2.49 0 1111 17.5 2.5 2.5 0 018.53 20z" fill="#767676"/></svg><svg viewBox="0 0 32 32" width="32" height="32" id="training--sm" x="96" y="256" xmlns="http://www.w3.org/2000/svg"><path d="M27.77 10.46a1 1 0 00-.85-.46H10a.58.58 0 00-.18 0 6.5 6.5 0 106.83 8.53l9.16-3.47a1 1 0 00.55-.52l1.47-3.16a1 1 0 00-.06-.92zM10.5 21a4.5 4.5 0 114.5-4.5 4.51 4.51 0 01-4.5 4.5zm14.22-7.63L17 16.31A6.5 6.5 0 0015.18 12H18v1a1 1 0 002 0v-1h5.36z" fill="#767676"/></svg><svg viewBox="0 0 32 32" width="32" height="32" id="vaccination" x="128" y="256" xmlns="http://www.w3.org/2000/svg"><path d="M31.71 5.23L30.3 3.82 28.18 1.7 26.77.29a1 1 0 00-1.42 1.42l.71.7-4.24 4.23-1.41-1.41a1 1 0 00-1.41 0l-2.82 2.83-2.82 2.82-2.83 2.82-2.83 2.83-2.82 2.82a1 1 0 00-.29.71 1 1 0 00.29.71l.71.7-2.12 2.12a1 1 0 00-.29.7 1 1 0 00.29.71l1.06 1.06-4.24 4.23a1 1 0 000 1.42 1 1 0 001.42 0l4.23-4.24L7 28.53a1 1 0 00.71.29 1 1 0 00.7-.29l2.12-2.12.7.71a1 1 0 00.71.29 1 1 0 00.71-.29L26.77 13a1 1 0 000-1.41l-1.41-1.41 4.23-4.24.7.71a1 1 0 001.42 0 1 1 0 000-1.42zm-24 21.18l-1.06-1.06-1.06-1.06L7 22.88 9.12 25zM11.94 25L7 20.06l1.41-1.41 2.12 2.12a1 1 0 101.41-1.42l-2.11-2.11 1.41-1.41 2.11 2.11a1 1 0 00.71.3 1 1 0 00.71-.3 1 1 0 000-1.41l-2.12-2.12L14.06 13l2.12 2.12a1 1 0 00.7.29 1 1 0 00.71-.29 1 1 0 000-1.42l-2.12-2.11 1.41-1.41L19 12.3a1 1 0 001.41-1.42L18.3 8.76l1.41-1.4 4.93 4.93zm12-16.24l-.7-.7 4.23-4.23.7.7z" fill="#767676"/></svg><svg viewBox="0 0 32 32" width="32" height="32" id="vaccination--sm" x="160" y="256" xmlns="http://www.w3.org/2000/svg"><path d="M27.49 9.24l-4.95-4.95a1 1 0 00-1.41 0 1 1 0 000 1.42l1.76 1.76-.7.71-1.77-1.77a1 1 0 00-1.42 0L7.69 17.73a1 1 0 000 1.41l.71.71-.46.46a1 1 0 000 1.41l.35.36-3.78 3.78a1 1 0 00.71 1.71 1 1 0 00.7-.3l3.79-3.78.35.35a1 1 0 001.41 0l.46-.46.71.71a1 1 0 00.71.29 1 1 0 00.71-.29l11.31-11.31a1 1 0 000-1.42L23.6 9.6l.71-.71 1.77 1.77a1 1 0 00.7.29 1 1 0 00.71-.29 1 1 0 000-1.42zM13.35 22l-3.54-3.57L11.23 17l1.41 1.41a1 1 0 00.71.3 1 1 0 00.71-.3 1 1 0 000-1.41l-1.42-1.41 1.42-1.42 1.41 1.42a1 1 0 00.71.29 1 1 0 00.7-1.71l-1.41-1.41 1.41-1.42 1.42 1.42a1 1 0 101.41-1.42L18.3 10l1.41-1.41 3.54 3.53z" fill="#767676"/></svg><svg viewBox="0 0 32 32" width="32" height="32" id="versatile" x="192" y="256" xmlns="http://www.w3.org/2000/svg"><path d="M31.71 22.3l-3-3.05a1 1 0 00-1.41 0 1 1 0 000 1.42L28.59 22h-5.24a3.26 3.26 0 01-2.62-1.22L17 16.31l4.24-5.14A3.34 3.34 0 0123.88 10h4.76l-1.35 1.37a1 1 0 00.71 1.7 1 1 0 00.71-.3l3-3a1 1 0 000-1.41l-3-3.05a1 1 0 00-1.41 0 1 1 0 000 1.42L28.57 8h-4.7a5.28 5.28 0 00-4.17 1.94l-3.94 4.78-3.9-4.72a5.29 5.29 0 00-4.15-2H3.43l1.31-1.32a1 1 0 000-1.42 1 1 0 00-1.41 0l-2.95 3A1 1 0 000 9a1 1 0 00.29.72l3 3a1 1 0 00.71.3 1 1 0 00.71-1.7L3.36 10h4.33a3.26 3.26 0 012.58 1.22l4.21 5.09-3.73 4.52A3.3 3.3 0 018.19 22H3.41l1.33-1.34a1 1 0 000-1.42 1 1 0 00-1.41 0l-3 3.05a1 1 0 000 1.41l3 3a1 1 0 00.71.3 1 1 0 00.71-1.7L3.38 24h4.84a5.27 5.27 0 004.11-1.94l3.43-4.15L19.14 22a5.29 5.29 0 004.15 2h5.33l-1.33 1.35a1 1 0 00.71 1.7 1 1 0 00.71-.3l3-3a1 1 0 000-1.45z" fill="#767676"/></svg><svg viewBox="0 0 32 32" width="32" height="32" id="versatile--sm" x="224" y="256" xmlns="http://www.w3.org/2000/svg"><path d="M27.7 20.29l-2-2a1 1 0 10-1.41 1.41l.31.31H22a2.22 2.22 0 01-1.72-.78v-.07l-2.95-3.65 3-3.71A2.18 2.18 0 0122 11h2.59l-.29.29a1 1 0 001.41 1.42l2-2a1 1 0 000-1.48l-2-2a1 1 0 00-1.41 0 1 1 0 000 1.42l.29.29H22a4.17 4.17 0 00-3.32 1.59L16 13.9l-2.62-3.25A4.19 4.19 0 0010 9H7.41l.3-.29a1 1 0 10-1.42-1.42l-2 2a1 1 0 00-.21.33 1 1 0 000 .76 1 1 0 00.21.33l2 2a1 1 0 001.42 0 1 1 0 000-1.42l-.3-.29H10a2.21 2.21 0 011.77.84l2.94 3.65-2.94 3.65v.07A2.14 2.14 0 0110 20H7.4l.31-.31a1 1 0 000-1.41 1 1 0 00-1.42 0l-2 2A1 1 0 004 21a1 1 0 00.34.74l2 2a1 1 0 001.42 0 1 1 0 000-1.41L7.43 22H10a4.19 4.19 0 003.37-1.65L16 17.09l2.61 3.24A4.21 4.21 0 0022 22h2.57l-.27.28a1 1 0 000 1.41 1 1 0 001.41 0l1.92-1.92A1 1 0 0028 21a1 1 0 00-.3-.71z" fill="#767676"/></svg><svg viewBox="0 0 32 32" width="32" height="32" id="watchdog" x="256" y="256" xmlns="http://www.w3.org/2000/svg"><g data-name="View/Show" fill="#767676"><path d="M16 24C7.68 24 .59 17 .29 16.71a1 1 0 010-1.42C.59 15 7.68 8 16 8s15.41 7 15.71 7.29a1 1 0 010 1.42C31.41 17 24.32 24 16 24zM2.48 16c2 1.72 7.52 6 13.52 6s11.54-4.27 13.52-6c-2-1.72-7.52-6-13.52-6S4.46 14.27 2.48 16z"/><path d="M16 21a5 5 0 115-5 5 5 0 01-5 5zm0-8a3 3 0 103 3 3 3 0 00-3-3z"/><path d="M16 17a1 1 0 01-.71-1.71 1 1 0 01.9-.27.6.6 0 01.19.06.76.76 0 01.18.09l.15.12a1 1 0 010 1.42 1.58 1.58 0 01-.15.12.76.76 0 01-.18.09.6.6 0 01-.19.06z"/></g></svg><svg viewBox="0 0 32 32" width="32" height="32" id="watchdog--sm" x="288" xmlns="http://www.w3.org/2000/svg"><g fill="#767676"><path d="M27.7 16.26C27.47 16 22.2 11 16 11S4.53 16 4.3 16.26a1 1 0 000 1.44c.23.21 5.5 5.3 11.7 5.3s11.47-5.05 11.7-5.26a1 1 0 000-1.44zM16 21c-4.07 0-7.85-2.71-9.47-4 1.62-1.32 5.4-4 9.47-4s7.85 2.66 9.48 4c-1.62 1.29-5.4 4-9.48 4z"/><path d="M13 17a3 3 0 103-3 3 3 0 00-3 3zm4 0a1 1 0 11-1-1 1 1 0 011 1z"/></g></svg></svg>