
<svg width="1.25rem" height="1.25rem" viewBox="0 0 20 20" version="1.1" xmlns="http://www.w3.org/2000/svg" xmlns:xlink="http://www.w3.org/1999/xlink">
    <!-- Generator: Sketch 49.3 (51167) - http://www.bohemiancoding.com/sketch -->
    <desc>Created with Sketch.</desc>
    <defs></defs>
    <g id="Page-1" stroke="none" stroke-width="1" fill="none" fill-rule="evenodd">
        <g id="Dashboard-01" transform="translate(-486.000000, -873.000000)" fill="#4A4A4A">
            <g id="Group-10" transform="translate(486.000000, 755.000000)">
                <g id="Group-3" transform="translate(0.000000, 116.000000)">
                    <path d="M20,17.7142857 C18.90625,17.7142857 18.3258929,17.2232143 17.8683036,16.8325893 C17.4888393,16.4977679 17.2321429,16.2857143 16.6741071,16.2857143 C16.1049107,16.2857143 15.8482143,16.4977679 15.46875,16.8325893 C15.0111607,17.2232143 14.4308036,17.7142857 13.3370536,17.7142857 C12.2433036,17.7142857 11.6629464,17.2232143 11.2053571,16.8325893 C10.8258929,16.4977679 10.5691964,16.2857143 10,16.2857143 C9.43080357,16.2857143 9.18526786,16.4977679 8.80580357,16.8325893 C8.33705357,17.2232143 7.76785714,17.7142857 6.67410714,17.7142857 C5.56919643,17.7142857 5,17.2232143 4.54241071,16.8325893 C4.15178571,16.4977679 3.90625,16.2857143 3.33705357,16.2857143 C2.76785714,16.2857143 2.51116071,16.4977679 2.13169643,16.8325893 C1.67410714,17.2232143 1.09375,17.7142857 0,17.7142857 L0,22 L20,22 L20,17.7142857 Z M20,14.1428571 C20,12.9598214 19.0401786,12 17.8571429,12 L17.1428571,12 L17.1428571,7 L14.2857143,7 L14.2857143,12 L11.4285714,12 L11.4285714,7 L8.57142857,7 L8.57142857,12 L5.71428571,12 L5.71428571,7 L2.85714286,7 L2.85714286,12 L2.14285714,12 C0.959821429,12 0,12.9598214 0,14.1428571 L0,16.2857143 C0.569196429,16.2857143 0.825892857,16.0736607 1.20535714,15.7388393 C1.66294643,15.3482143 2.23214286,14.8571429 3.33705357,14.8571429 C4.43080357,14.8571429 5.01116071,15.3482143 5.46875,15.7388393 C5.84821429,16.0736607 6.10491071,16.2857143 6.67410714,16.2857143 C7.24330357,16.2857143 7.48883929,16.0736607 7.86830357,15.7388393 C8.33705357,15.3482143 8.90625,14.8571429 10,14.8571429 C11.1049107,14.8571429 11.6741071,15.3482143 12.1316964,15.7388393 C12.5111607,16.0736607 12.7678571,16.2857143 13.3370536,16.2857143 C13.90625,16.2857143 14.1517857,16.0736607 14.5424107,15.7388393 C15,15.3482143 15.5691964,14.8571429 16.6741071,14.8571429 C17.7678571,14.8571429 18.3370536,15.3482143 18.7946429,15.7388393 C19.1852679,16.0736607 19.4308036,16.2857143 20,16.2857143 L20,14.1428571 Z M5.71428571,4.5 C5.71428571,3.31696429 4.82142857,2 4.28571429,2 C4.28571429,3.83035714 2.85714286,3.47321429 2.85714286,4.85714286 C2.85714286,5.64955357 3.49330357,6.28571429 4.28571429,6.28571429 C5.078125,6.28571429 5.71428571,5.68303571 5.71428571,4.5 Z M11.4285714,4.5 C11.4285714,3.31696429 10.5357143,2 10,2 C10,3.83035714 8.57142857,3.47321429 8.57142857,4.85714286 C8.57142857,5.64955357 9.20758929,6.28571429 10,6.28571429 C10.7924107,6.28571429 11.4285714,5.68303571 11.4285714,4.5 Z M17.1428571,4.5 C17.1428571,3.31696429 16.25,2 15.7142857,2 C15.7142857,3.83035714 14.2857143,3.47321429 14.2857143,4.85714286 C14.2857143,5.64955357 14.921875,6.28571429 15.7142857,6.28571429 C16.5066964,6.28571429 17.1428571,5.68303571 17.1428571,4.5 Z" id="birthday-cake---FontAwesome"></path>
                </g>
            </g>
        </g>
    </g>
</svg>