
<svg width="68px" height="58px" viewBox="0 0 68 58" version="1.1" xmlns="http://www.w3.org/2000/svg" xmlns:xlink="http://www.w3.org/1999/xlink">
    <!-- Generator: Sketch 49.3 (51167) - http://www.bohemiancoding.com/sketch -->
    <desc>Created with Sketch.</desc>
    <defs></defs>
    <g id="Page-1" stroke="none" stroke-width="1" fill="none" fill-rule="evenodd">
        <g id="Dashboard-01-Copy-11" transform="translate(-731.000000, -766.000000)" fill="#5FCC78">
            <g id="Icons/Check" transform="translate(731.000000, 766.000000)">
                <path d="M66.5695562,11.8970687 L33.7202437,54.5819437 C33.2240562,55.2268812 32.6343687,55.7581312 31.9862437,56.1746312 C31.9703062,56.1852562 31.9554312,56.1980062 31.9384312,56.2086312 C31.8629937,56.2564437 31.7833062,56.2925687 31.7057437,56.3371937 C30.6485562,56.9481312 29.4564312,57.2721937 28.2526187,57.2721937 C26.7853062,57.2721937 25.3073687,56.8057562 24.0536187,55.8410062 C24.0525562,55.8399437 24.0504312,55.8378187 24.0493687,55.8367562 L2.68993125,39.4030687 C-0.32756875,37.0815062 -0.89175625,32.7539437 1.43086875,29.7364437 C3.75136875,26.7200062 8.07786875,26.1558187 11.0964312,28.4773812 L26.9978062,40.7131312 L55.6438687,3.48950625 C57.9654312,0.47306875 62.2919312,-0.09111875 65.3104937,2.23044375 C68.3269312,4.55200625 68.8911187,8.87956875 66.5695562,11.8970687" id="Check"></path>
            </g>
        </g>
    </g>
</svg>