
<svg width="90px" height="134px" viewBox="0 0 90 134" version="1.1" xmlns="http://www.w3.org/2000/svg" xmlns:xlink="http://www.w3.org/1999/xlink">
    <!-- Generator: Sketch 49.3 (51167) - http://www.bohemiancoding.com/sketch -->
    <desc>Created with Sketch.</desc>
    <defs></defs>
    <g id="Page-1" stroke="none" stroke-width="1" fill="none" fill-rule="evenodd">
        <g id="Assets" transform="translate(-4597.000000, -1838.000000)" fill="#4A4A4A" fill-rule="nonzero">
            <g id="Group-19" transform="translate(4597.000000, 1838.000000)">
                <g id="Group">
                    <path d="M66.654375,57.9664286 C62.731875,56.6783467 45.91875,51.1539486 37.576875,48.337922 C33.346875,59.3281691 11.000625,118.791469 18.70125,129.016799 C27.19125,140.294126 57.68625,127.075233 66.564375,129.016799 C75.444375,130.964031 74.349375,124.748375 74.349375,124.748375 L66.654375,57.9664286 Z" id="Shape"></path>
                    <path d="M89.015625,24.5688449 C86.686875,21.3637496 73.438125,22.0417868 73.438125,22.0417868 C73.438125,22.0417868 70.07625,14.7760228 67.910625,13.4312805 C65.379375,11.8655621 58.30875,12.1431986 58.30875,12.1431986 C58.30875,12.1431986 58.966875,1.62134486 55.779375,0.837541358 C49.696875,-0.660184362 41.60625,32.0159224 39.061875,43.0175016 C45.909375,45.8146414 58.7325,50.8026535 65.97,52.0170767 L65.89875,51.3975887 C65.89875,51.3975887 66.15,46.084723 69.669375,44.8174167 C72.035625,43.9656206 83.74125,41.5462175 87.01125,38.2372447 C89.424375,35.7895113 91.04625,27.3565412 89.015625,24.5688449 Z" id="Shape"></path>
                    <path d="M17.926875,125.322535 C5.2725,115.52027 5.15625,92.9618383 1.921875,99.776207 C-1.1025,106.148624 1.854375,121.526282 7.5075,128.278324 C12.70125,134.480759 23.41125,134.184236 23.836875,130.295438" id="Shape"></path>
                </g>
            </g>
        </g>
    </g>
</svg>