
<svg width="90px" height="105px" viewBox="0 0 90 105" version="1.1" xmlns="http://www.w3.org/2000/svg" xmlns:xlink="http://www.w3.org/1999/xlink">
    <!-- Generator: Sketch 49.3 (51167) - http://www.bohemiancoding.com/sketch -->
    <desc>Created with Sketch.</desc>
    <defs></defs>
    <g id="Page-1" stroke="none" stroke-width="1" fill="none" fill-rule="evenodd">
        <g id="Assets" transform="translate(-5119.000000, -1853.000000)" fill="#4A4A4A" fill-rule="nonzero">
            <g id="Group" transform="translate(5164.000000, 1905.500000) scale(-1, 1) translate(-5164.000000, -1905.500000) translate(5119.000000, 1853.000000)">
                <path d="M12.464,45.664 C18.04,43.982 26.722,40.902 33.886,36.318 C33.608,32.59 34.81,28.432 35.32,25.896 C36.122,21.876 35.052,19.58 32.906,13.832 C32.52,12.798 30.772,1.322 27.28,0.966 C23.836,0.616 19.238,12.222 19.238,12.222 C19.238,12.222 9.318,12.222 8.132,16.646 C6.706,21.96 1.224,24.85 1.01,25.626 C0.186,28.618 1.636,36.744 6.404,37.984 C9.312,38.742 11.418,42.524 12.464,45.664 Z" id="Shape"></path>
                <path d="M36.318,42.002 C35.858,41.578 35.488,41.102 35.172,40.596 C31.318,42.688 19.734,48.824 13.308,50.582 C15.934,62.954 14.434,94.194 14.512,95.532 C14.62,97.516 13.326,98.75 14.286,100.332 C15.75,102.752 18.626,102.98 22.02,102.366 C25.416,101.742 50.694,108.75 66.532,102.126 C85.962,90.424 53.548,48.76 36.318,42.002 Z" id="Shape"></path>
                <path d="M72.43,88.81 C77.734,92.148 87.372,77.926 79.38,73.13 C74.348,70.112 73.792,69.194 72.372,66.852 C68.956,61.236 73.43,45.532 82.046,43.51 C88.45,42.01 88.866,47.892 85.348,49.812 C76.994,54.778 76.294,63.114 81.98,67.178 C85.194,69.476 87.46,71.114 88.86,76.236 C90.838,83.46 84.902,94.952 73.496,98.566 C73.496,98.566 67.152,99.992 65.982,97.394" id="Shape"></path>
            </g>
        </g>
    </g>
</svg>