
<svg width="352" height="320" viewBox="0 0 352 320" xmlns="http://www.w3.org/2000/svg" xmlns:xlink="http://www.w3.org/1999/xlink"><svg viewBox="0 0 32 32" width="32" height="32" x="32" xmlns="http://www.w3.org/2000/svg"><g fill="#767676"><path d="M25 32H7a3 3 0 0 1-3-3V13a3 3 0 0 1 3-3h5a1 1 0 0 1 0 2H7a1 1 0 0 0-1 1v16a1 1 0 0 0 1 1h18a1 1 0 0 0 1-1V13a1 1 0 0 0-1-1h-5a1 1 0 0 1 0-2h5a3 3 0 0 1 3 3v16a3 3 0 0 1-3 3z"/><path d="M22.62 5.22l-4.75-3.8a3 3 0 0 0-3.74 0l-4.75 3.8a1 1 0 1 0 1.24 1.56L15 3.28V16a1 1 0 0 0 2 0V3.28l4.38 3.5A1 1 0 0 0 22 7a1 1 0 0 0 .78-.38 1 1 0 0 0-.16-1.4z"/></g></svg><svg viewBox="0 0 32 32" width="32" height="32" x="224" y="96" xmlns="http://www.w3.org/2000/svg"><g data-name="Address Book" fill="#767676"><path d="M26 32H7a3 3 0 0 1-3-3V3a3 3 0 0 1 3-3h19a3 3 0 0 1 3 3v26a3 3 0 0 1-3 3zM7 2a1 1 0 0 0-1 1v26a1 1 0 0 0 1 1h19a1 1 0 0 0 1-1V3a1 1 0 0 0-1-1z"/><path d="M24 19H9a1 1 0 0 1 0-2h15a1 1 0 0 1 0 2zm0-4H9a1 1 0 0 1 0-2h15a1 1 0 0 1 0 2zm0-5a1 1 0 0 1-.71-.29L22 8.41l-1.29 1.3a1 1 0 0 1-1.09.21A1 1 0 0 1 19 9V1a1 1 0 0 1 1-1h4a1 1 0 0 1 1 1v8a1 1 0 0 1-.62.92.84.84 0 0 1-.38.08zm-2-4a1 1 0 0 1 .71.29l.29.3V2h-2v4.59l.29-.3A1 1 0 0 1 22 6zM7 6H3a1 1 0 0 1 0-2h4a1 1 0 0 1 0 2zm0 22H3a1 1 0 0 1 0-2h4a1 1 0 0 1 0 2zm0-4H3a1 1 0 0 1 0-2h4a1 1 0 0 1 0 2zm0-14H3a1 1 0 0 1 0-2h4a1 1 0 0 1 0 2z"/></g></svg><svg viewBox="0 0 32 32" width="32" height="32" y="32" xmlns="http://www.w3.org/2000/svg"><g data-name="Expert Advice" fill="#767676"><path d="M29 12h-6V3a3 3 0 0 0-3-3H3a3 3 0 0 0-3 3v10a3 3 0 0 0 3 3h1v1.59a2 2 0 0 0 1.23 1.84 1.9 1.9 0 0 0 .77.16A2 2 0 0 0 7.41 19L9 17.41V25a3 3 0 0 0 3 3h7.59l3 3a2 2 0 0 0 1.41.59 1.9 1.9 0 0 0 .77-.16A2 2 0 0 0 26 29.59V28h3a3 3 0 0 0 3-3V15a3 3 0 0 0-3-3zM6 17.59V16a2 2 0 0 0-2-2H3a1 1 0 0 1-1-1V3a1 1 0 0 1 1-1h17a1 1 0 0 1 1 1v9h-9a3 3 0 0 0-2.95 2.54zM30 25a1 1 0 0 1-1 1h-3a2 2 0 0 0-2 2v1.59l-3-3a2 2 0 0 0-1.41-.59H12a1 1 0 0 1-1-1V15a1 1 0 0 1 1-1h17a1 1 0 0 1 1 1z"/><path d="M26 21H15a1 1 0 0 1 0-2h11a1 1 0 0 1 0 2zM17 9H6a1 1 0 0 1 0-2h11a1 1 0 0 1 0 2z"/></g></svg><svg viewBox="0 0 32 32" width="32" height="32" x="32" y="32" xmlns="http://www.w3.org/2000/svg"><g data-name="Expert Advice" fill="#767676"><path d="M16 11H9a1 1 0 0 1 0-2h7a1 1 0 0 1 0 2z"/><path d="M25 13h-4V7a3 3 0 0 0-3-3H7a3 3 0 0 0-3 3v6a3 3 0 0 0 3 3v.92a2 2 0 0 0 1.13 1.8 1.94 1.94 0 0 0 .87.2 2 2 0 0 0 1.25-.44l.75-.6V22a3 3 0 0 0 3 3h1v.92a2 2 0 0 0 1.13 1.8 1.94 1.94 0 0 0 .87.2 2 2 0 0 0 1.25-.44l3.1-2.48H25a3 3 0 0 0 3-3v-6a3 3 0 0 0-3-3zM9 16.92V15a1 1 0 0 0-1-1H7a1 1 0 0 1-1-1V7a1 1 0 0 1 1-1h11a1 1 0 0 1 1 1v6h-5a3 3 0 0 0-2.89 2.23zM26 22a1 1 0 0 1-1 1h-4a1 1 0 0 0-.62.22L17 25.92V24a1 1 0 0 0-1-1h-2a1 1 0 0 1-1-1v-6a1 1 0 0 1 1-1h11a1 1 0 0 1 1 1z"/><path d="M23 20h-7a1 1 0 0 1 0-2h7a1 1 0 0 1 0 2z"/></g></svg><svg viewBox="0 0 32 32" width="32" height="32" x="64" xmlns="http://www.w3.org/2000/svg"><path d="M29.29 13.88l-8.58-8.59a1 1 0 0 0-1.42 1.42l8.3 8.29H3a1 1 0 0 0 0 2h24.59l-8.3 8.29a1 1 0 0 0 0 1.42 1 1 0 0 0 1.42 0l8.58-8.59a3 3 0 0 0 0-4.24z" fill="#767676"/></svg><svg viewBox="0 0 32 32" width="32" height="32" x="64" y="32" xmlns="http://www.w3.org/2000/svg"><path d="M9.93 32a7.94 7.94 0 0 1-5.52-2.62C.54 25.49.76 21.51 5.07 17.2L19.45 2.82A9.87 9.87 0 0 1 23 .26c2-.68 4-.11 5.79 1.74 4.32 4.32.8 7.93-.7 9.47-2 2.07-4.67 4.66-7.23 7.18-1.79 1.75-3.57 3.49-5.07 5-3.13 3.13-5.4 1.79-6.48.71a3.69 3.69 0 0 1-.94-4.16A7.25 7.25 0 0 1 10 17.85l9.41-9.28a1 1 0 0 1 1.44 0 1 1 0 0 1 0 1.44l-9.4 9.28a5.18 5.18 0 0 0-1.21 1.63 1.64 1.64 0 0 0 .5 1.94c1 1 2.05.81 3.57-.72s3.28-3.24 5.08-5c2.56-2.5 5.2-5.09 7.13-7.07s3.46-4 .79-6.66c-1.66-1.65-2.87-1.5-3.64-1.23a8.12 8.12 0 0 0-2.8 2.07L6.52 18.65c-3.52 3.52-3.71 6.21-.65 9.26 2.89 2.89 5.81 2.67 9.19-.72L26.55 15.7a1 1 0 0 1 1.45 0 1 1 0 0 1 0 1.46L16.51 28.65C14.07 31.09 11.86 32 9.93 32z" fill="#767676"/></svg><svg viewBox="0 0 32 32" width="32" height="32" y="64" xmlns="http://www.w3.org/2000/svg"><g data-name="Skip - Back" fill="#767676"><path d="M16 32a16 16 0 1 1 16-16 16 16 0 0 1-16 16zm0-30a14 14 0 1 0 14 14A14 14 0 0 0 16 2z"/><path d="M20.48 10.13a1 1 0 0 0-1 0L12 14.82V11a1 1 0 0 0-2 0v10a1 1 0 0 0 2 0v-3.82l7.47 4.67A1 1 0 0 0 20 22a.91.91 0 0 0 .48-.13A1 1 0 0 0 21 21V11a1 1 0 0 0-.52-.87zM19 19.2L13.89 16 19 12.8z"/></g></svg><svg viewBox="0 0 32 32" width="32" height="32" x="32" y="64" xmlns="http://www.w3.org/2000/svg"><path d="M27 8.92A3.14 3.14 0 0 0 24 6h-3V5a5 5 0 0 0-10 0v1H8a3.14 3.14 0 0 0-3 2.9l-2 20a2.76 2.76 0 0 0 .73 2.1A3.08 3.08 0 0 0 6 32h20a3.08 3.08 0 0 0 2.28-1 2.78 2.78 0 0 0 .72-2.1zM13 5a3 3 0 0 1 6 0v1h-6zm13.8 24.69a1.08 1.08 0 0 1-.8.31H6a1.08 1.08 0 0 1-.81-.31.75.75 0 0 1-.19-.59l2-20A1.16 1.16 0 0 1 8 8h3v3a1 1 0 0 0 2 0V8h6v3a1 1 0 0 0 2 0V8h3a1.16 1.16 0 0 1 1 1.1l2 20a.77.77 0 0 1-.2.59z" fill="#767676" data-name="Speciality Retailer"/></svg><svg viewBox="0 0 32 32" width="32" height="32" x="64" y="64" xmlns="http://www.w3.org/2000/svg"><path d="M31.37 14.1a2.93 2.93 0 0 0-2.3-1.1h-5.49l-4.81-8.32A3.06 3.06 0 0 0 16 3a3 3 0 0 0-2.73 1.62L8.42 13H2.93a2.93 2.93 0 0 0-2.3 1.1 2.83 2.83 0 0 0-.56 2.41l3 13.31A2.93 2.93 0 0 0 5.91 32h20.18a2.92 2.92 0 0 0 2.85-2.21l3-13.28a2.83 2.83 0 0 0-.57-2.41zM15 5.57A1.06 1.06 0 0 1 16 5a1.1 1.1 0 0 1 1 .62L21.27 13H10.73zM2 16.07a.83.83 0 0 1 .17-.72 1 1 0 0 1 .76-.35h4.18l.71 6H3.13zM5.91 30a.92.92 0 0 1-.9-.65L3.58 23h4.47l.83 7zM15 30h-4.11l-.82-7H15zm0-9H9.83l-.71-6H15zm6.11 9H17v-7h4.93zm1.06-9H17v-6h5.88zM27 29.32a.93.93 0 0 1-.91.68h-3l.91-7h4.47zm3-13.25L28.87 21h-4.69l.71-6h4.18a1 1 0 0 1 .74.35.83.83 0 0 1 .19.72z" fill="#767676" data-name="Online Retailer"/></svg><svg viewBox="0 0 32 32" width="32" height="32" x="96" xmlns="http://www.w3.org/2000/svg"><path d="M26.78 14.17A3 3 0 0 0 24.41 13h-.92l-5.12-6.58a3 3 0 0 0-4.74 0L8.51 13h-.92a3 3 0 0 0-2.37 1.17 2.94 2.94 0 0 0-.53 2.59l2.37 9.06A2.93 2.93 0 0 0 9.91 28h12.18a2.93 2.93 0 0 0 2.85-2.18l2.37-9.06a2.94 2.94 0 0 0-.53-2.59zm-1.58 1.22a1 1 0 0 1 .18.86L24.66 19h-2.42l.62-4h1.55a1 1 0 0 1 .79.39zM15 21v5h-2.14l-.77-5zm-3.22-2l-.61-4H15v4zM17 21h2.91l-.77 5H17zm0-2v-4h3.83l-.61 4zM15.21 7.64a1 1 0 0 1 1.58 0L21 13H11zM6.8 15.39a1 1 0 0 1 .79-.39h1.55l.62 4H7.34l-.72-2.75a1 1 0 0 1 .18-.86zM9 25.32L7.87 21h2.2l.76 5h-.92a.93.93 0 0 1-.91-.68zm13.09.68h-.92l.76-5h2.2L23 25.32a.93.93 0 0 1-.91.68z" fill="#767676" data-name="Online Retailer"/></svg><svg viewBox="0 0 32 32" width="32" height="32" x="96" y="32" xmlns="http://www.w3.org/2000/svg"><path d="M23 32a1 1 0 0 1-.75-.34l-5.5-6.28a1 1 0 0 0-1.5 0l-5.5 6.28A1 1 0 0 1 8 31V3a3 3 0 0 1 3-3h10a3 3 0 0 1 3 3v28a1 1 0 0 1-.65.94A1 1 0 0 1 23 32zm-7-9a3 3 0 0 1 2.26 1L22 28.34V3a1 1 0 0 0-1-1H11a1 1 0 0 0-1 1v25.34l3.74-4.28A3 3 0 0 1 16 23z" fill="#767676"/></svg><svg viewBox="0 0 32 32" width="32" height="32" x="96" y="64" xmlns="http://www.w3.org/2000/svg"><g fill="#767676"><path d="M18 27h-4a1 1 0 0 1 0-2h4a1 1 0 0 1 0 2zm-9 0H5a1 1 0 0 1 0-2h4a1 1 0 0 1 0 2zm9-4h-4a1 1 0 0 1 0-2h4a1 1 0 0 1 0 2zm9 0h-4a1 1 0 0 1 0-2h4a1 1 0 0 1 0 2zM9 23H5a1 1 0 0 1 0-2h4a1 1 0 0 1 0 2zm9-4h-4a1 1 0 0 1 0-2h4a1 1 0 0 1 0 2zm9 0h-4a1 1 0 0 1 0-2h4a1 1 0 0 1 0 2zM9 19H5a1 1 0 0 1 0-2h4a1 1 0 0 1 0 2zm9-4h-4a1 1 0 0 1 0-2h4a1 1 0 0 1 0 2zm9 0h-4a1 1 0 0 1 0-2h4a1 1 0 0 1 0 2zM9 15H5a1 1 0 0 1 0-2h4a1 1 0 0 1 0 2z"/><path d="M29 4h-3V2a2 2 0 0 0-2-2h-2a2 2 0 0 0-2 2v2h-8V2a2 2 0 0 0-2-2H8a2 2 0 0 0-2 2v2H3a3 3 0 0 0-3 3v22a3 3 0 0 0 3 3h26a3 3 0 0 0 3-3V7a3 3 0 0 0-3-3zm-7-2h2v2h-2zM8 2h2v2H8zm22 27a1 1 0 0 1-1 1H3a1 1 0 0 1-1-1V10h28zm0-21H2V7a1 1 0 0 1 1-1h26a1 1 0 0 1 1 1z"/></g></svg><svg viewBox="0 0 32 32" width="32" height="32" y="96" xmlns="http://www.w3.org/2000/svg"><path d="M31.42 5a2.76 2.76 0 0 0-2.16-1H5.74a2.81 2.81 0 0 0-1.37.37L4 2.76A1 1 0 0 0 3 2H1a1 1 0 0 0 0 2h1.22l2.89 12.15.65 2.85c0 .07 0 .14.07.2l.84 3.54A2.94 2.94 0 0 0 9.54 25H27a1 1 0 0 0 0-2H9.54a.94.94 0 0 1-.92-.73L8.32 21h18.26a2.74 2.74 0 0 0 2.67-2l2.68-11.75A2.58 2.58 0 0 0 31.42 5zM5 6.8a.6.6 0 0 1 .12-.52.75.75 0 0 1 .62-.28h3.67l.6 5H6zM8.42 19a.75.75 0 0 1-.65-.35L6.44 13h3.81l.75 6zm8.08 0H13l-.72-6h4.22zm0-8H12l-.6-5h5.1zm5.5 8h-3.5v-6h4.23zm1-8h-4.5V6h5.07zm4.33 7.48a.71.71 0 0 1-.72.52H24l.72-6h3.81zM30 6.8L29 11h-4l.6-5h3.67a.75.75 0 0 1 .6.28.6.6 0 0 1 .13.52zM25.51 26A2.5 2.5 0 1 0 28 28.51 2.5 2.5 0 0 0 25.51 26zm0 3a.5.5 0 1 1 .49-.49.49.49 0 0 1-.49.49zm-15-3A2.49 2.49 0 1 0 13 28.51 2.5 2.5 0 0 0 10.51 26zm0 3a.49.49 0 1 1 .49-.49.49.49 0 0 1-.49.49z" fill="#767676"/></svg><svg viewBox="0 0 32 32" width="32" height="32" x="32" y="96" xmlns="http://www.w3.org/2000/svg"><g fill="#767676"><path d="M26.78 8.17A3 3 0 0 0 24.41 7H7.72L7 4.68A1 1 0 0 0 6 4H5a1 1 0 0 0 0 2h.28L6 8.27l3 11.55A2.93 2.93 0 0 0 11.91 22h10.18a2.93 2.93 0 0 0 2.85-2.18l2.37-9.06a2.94 2.94 0 0 0-.53-2.59zM25.2 9.39a1 1 0 0 1 .18.86L24.66 13h-3.42l.62-4h2.55a1 1 0 0 1 .79.39zM14.78 13l-.61-4h5.66l-.61 4zm4.13 2l-.77 5h-2.28l-.77-5zm-6.77-6l.62 4H9.34l-1-4zM11 19.32L9.87 15h3.2l.76 5h-1.92a.93.93 0 0 1-.91-.68zm11.09.68h-1.92l.76-5h3.2L23 19.32a.93.93 0 0 1-.91.68z"/><circle cx="12" cy="26" r="2"/><circle cx="23" cy="26" r="2"/></g></svg><svg viewBox="0 0 32 32" width="32" height="32" x="64" y="96" xmlns="http://www.w3.org/2000/svg"><g fill="#767676"><path d="M16 32a16 16 0 1 1 16-16 16 16 0 0 1-16 16zm0-30a14 14 0 1 0 14 14A14 14 0 0 0 16 2z"/><path d="M22 22a1 1 0 0 1-.64-.23l-5.28-4.4A3 3 0 0 1 15 15.06V7a1 1 0 0 1 2 0v8.06a1 1 0 0 0 .36.77l5.28 4.4a1 1 0 0 1 .13 1.41A1 1 0 0 1 22 22z"/></g></svg><svg viewBox="0 0 32 32" width="32" height="32" x="96" y="96" xmlns="http://www.w3.org/2000/svg"><path d="M17.41 16l9.3-9.29a1 1 0 1 0-1.42-1.42L16 14.59l-9.29-9.3a1 1 0 0 0-1.42 1.42l9.3 9.29-9.3 9.29a1 1 0 0 0 0 1.42 1 1 0 0 0 1.42 0l9.29-9.3 9.29 9.3a1 1 0 0 0 1.42 0 1 1 0 0 0 0-1.42z" fill="#767676"/></svg><svg viewBox="0 0 32 32" width="32" height="32" x="128" xmlns="http://www.w3.org/2000/svg"><path d="M18.16 15.75l7.05-7a1 1 0 1 0-1.42-1.42l-7 7.05-7-7a1 1 0 1 0-1.5 1.33l7.05 7-7 7a1 1 0 0 0 0 1.42 1 1 0 0 0 1.42 0l7-7 7 7.05a1 1 0 0 0 1.42 0 1 1 0 0 0 0-1.42z" fill="#767676"/></svg><svg viewBox="0 0 32 32" width="32" height="32" x="128" y="32" xmlns="http://www.w3.org/2000/svg"><path d="M7 10H1a1 1 0 0 1 0-2h6a1 1 0 0 0 1-1V1a1 1 0 0 1 2 0v6a3 3 0 0 1-3 3zm2 22a1 1 0 0 1-1-1v-6a1 1 0 0 0-1-1H1a1 1 0 0 1 0-2h6a3 3 0 0 1 3 3v6a1 1 0 0 1-1 1zm22-22h-6a3 3 0 0 1-3-3V1a1 1 0 0 1 2 0v6a1 1 0 0 0 1 1h6a1 1 0 0 1 0 2zm-8 22a1 1 0 0 1-1-1v-6a3 3 0 0 1 3-3h6a1 1 0 0 1 0 2h-6a1 1 0 0 0-1 1v6a1 1 0 0 1-1 1z" fill="#767676"/></svg><svg viewBox="0 0 32 32" width="32" height="32" x="128" y="64" xmlns="http://www.w3.org/2000/svg"><path d="M9.59 31a1.54 1.54 0 0 1-.51-.1A1.91 1.91 0 0 1 8 29v-5.31c-4.81-2-8-5.6-8-9.18C0 8.71 7.18 4 16 4s16 4.71 16 10.51S24.82 25 16 25h-.27l-4.86 5.34a1.75 1.75 0 0 1-1.28.66zM16 6C8.28 6 2 9.82 2 14.51c0 2.86 3 6 7.34 7.55A1 1 0 0 1 10 23v5.35l4.56-5a1 1 0 0 1 .77-.33H16c7.72 0 14-3.82 14-8.52S23.72 6 16 6z" fill="#767676"/></svg><svg viewBox="0 0 32 32" width="32" height="32" x="128" y="96" xmlns="http://www.w3.org/2000/svg"><g fill="#767676"><path d="M29 0H3a3 3 0 0 0-3 3v21a3 3 0 0 0 3 3h8.86A4 4 0 0 1 8 30a1 1 0 0 0 0 2h16a1 1 0 0 0 0-2 4 4 0 0 1-3.86-3H29a3 3 0 0 0 3-3V3a3 3 0 0 0-3-3zM3 2h26a1 1 0 0 1 1 1v16H2V3a1 1 0 0 1 1-1zm16.53 28h-7.06a6.06 6.06 0 0 0 1.44-3h4.18a6.06 6.06 0 0 0 1.44 3zM29 25H3a1 1 0 0 1-1-1v-3h28v3a1 1 0 0 1-1 1z"/><path d="M16 24a1.05 1.05 0 0 1-.71-.29 1 1 0 0 1-.21-.33.94.94 0 0 1 0-.76 1.15 1.15 0 0 1 .21-.33 1 1 0 0 1 1.42 0 1.15 1.15 0 0 1 .21.33A1 1 0 0 1 17 23a1 1 0 0 1-1 1z"/></g></svg><svg viewBox="0 0 32 32" width="32" height="32" y="128" xmlns="http://www.w3.org/2000/svg"><g fill="#767676"><path d="M16 28a12 12 0 1 1 12-12 12 12 0 0 1-12 12zm0-22a10 10 0 1 0 10 10A10 10 0 0 0 16 6z"/><path d="M13.81 21a1 1 0 0 1-.7-.29l-2.63-2.63a1 1 0 0 1 1.41-1.41l1.92 1.92 6.3-6.3a1 1 0 0 1 1.41 0 1 1 0 0 1 0 1.42l-7 7a1 1 0 0 1-.71.29z"/></g></svg><svg viewBox="0 0 32 32" width="32" height="32" x="32" y="128" xmlns="http://www.w3.org/2000/svg"><path d="M23.53 32a11.77 11.77 0 0 1-4.72-1 33.69 33.69 0 0 1-11.7-8.74C.84 14.89-1.3 8.83.76 4.21A9.42 9.42 0 0 1 3.44.77a3.46 3.46 0 0 1 4.49.12A.3.3 0 0 1 8 1l4.25 4.76a3.08 3.08 0 0 1 .3 4.24 1.59 1.59 0 0 1-.13.13l-2.14 1.82a25.67 25.67 0 0 0 3.57 5.2 25.82 25.82 0 0 0 5.25 4.53l3.33-2.86a2.86 2.86 0 0 1 3.91.16L31 23.67a3.51 3.51 0 0 1 .24 4.68A9.86 9.86 0 0 1 23.53 32zM5.6 2.05a1.4 1.4 0 0 0-.87.31 7.24 7.24 0 0 0-2.11 2.69c-1.71 3.83.32 9.17 6 15.86a31.72 31.72 0 0 0 11 8.21 8.78 8.78 0 0 0 7.39 0A8 8 0 0 0 29.65 27a1.47 1.47 0 0 0-.12-1.93l-4.63-4.68a.85.85 0 0 0-1.14-.05l-3.89 3.35a1 1 0 0 1-1.19.1 27.64 27.64 0 0 1-6.35-5.31A27.86 27.86 0 0 1 8.1 12.1a1 1 0 0 1 .26-1.23L11 8.6a1 1 0 0 0-.16-1.38l-.09-.08-4.21-4.75a1.51 1.51 0 0 0-.94-.34z" fill="#767676"/></svg><svg viewBox="0 0 32 32" width="32" height="32" x="64" y="128" xmlns="http://www.w3.org/2000/svg"><path d="M21.54 28a8.75 8.75 0 0 1-3.54-.78 24.84 24.84 0 0 1-8.67-6.47c-1.74-2.05-7-8.26-4.7-13.51a7.1 7.1 0 0 1 2-2.61 2.8 2.8 0 0 1 3.63.08l.08.09 3.11 3.48a2.5 2.5 0 0 1 .23 3.44.74.74 0 0 1-.12.13l-1.42 1.21a18.49 18.49 0 0 0 2.49 3.6 18.74 18.74 0 0 0 3.65 3.18l2.29-2a2.35 2.35 0 0 1 3.22.14l3.4 3.47a2.81 2.81 0 0 1 .19 3.76 7.49 7.49 0 0 1-2.47 2 7.4 7.4 0 0 1-3.37.79zM8.37 6a.77.77 0 0 0-.48.16 5.17 5.17 0 0 0-1.48 1.9c-1.21 2.72.27 6.55 4.4 11.39a23.09 23.09 0 0 0 8 6 6.21 6.21 0 0 0 5.21 0A5.82 5.82 0 0 0 25.83 24a.84.84 0 0 0-.08-1.1l-3.39-3.5a.35.35 0 0 0-.49 0L19 21.84a1 1 0 0 1-1.17.1 20.83 20.83 0 0 1-4.72-4 20.34 20.34 0 0 1-3.11-4.7 1 1 0 0 1 .25-1.19l1.94-1.65a.52.52 0 0 0-.1-.66L12 9.65 8.89 6.18A.9.9 0 0 0 8.37 6z" fill="#767676"/></svg><svg viewBox="0 0 32 32" width="32" height="32" x="96" y="128" xmlns="http://www.w3.org/2000/svg"><g fill="#767676"><path d="M18 23h-6a1 1 0 0 1 0-2h5V10H6v11h2a1 1 0 0 1 0 2H6a2 2 0 0 1-2-2V10a2 2 0 0 1 2-2h11a2 2 0 0 1 2 2v12a1 1 0 0 1-1 1zm5 2a3 3 0 1 1 3-3 3 3 0 0 1-3 3zm0-4a1 1 0 1 0 1 1 1 1 0 0 0-1-1z"/><path d="M10 25a3 3 0 1 1 3-3 3 3 0 0 1-3 3zm0-4a1 1 0 1 0 1 1 1 1 0 0 0-1-1zm16.88-3H21a1 1 0 0 1-1-1v-4a1 1 0 0 1 1-1h4c.55 0 0 0 1 1 .39.39-.45 1-1 1h-3v2h4.88a1 1 0 0 1 1 1 1 1 0 0 1-1 1z"/><path d="M26 23h-1a1 1 0 0 1 0-2h1v-4.66L22.46 11H19v10h2a1 1 0 0 1 0 2h-3a1 1 0 0 1-1-1V10a1 1 0 0 1 1-1h4.46a2 2 0 0 1 1.67.9l3.48 5.26a1.94 1.94 0 0 1 .39 1.18V21a2 2 0 0 1-2 2z"/></g></svg><svg viewBox="0 0 32 32" width="32" height="32" x="128" y="128" xmlns="http://www.w3.org/2000/svg"><g fill="#767676"><path d="M29 0H15a3 3 0 0 0-3 3v2H3a3 3 0 0 0-3 3v21a3 3 0 0 0 3 3h14a3 3 0 0 0 3-3v-2h9a3 3 0 0 0 3-3V3a3 3 0 0 0-3-3zM18 29a1 1 0 0 1-1 1H3a1 1 0 0 1-1-1V8a1 1 0 0 1 1-1h14a1 1 0 0 1 1 1zm12-5a1 1 0 0 1-1 1h-9V8a3 3 0 0 0-3-3h-3V3a1 1 0 0 1 1-1h14a1 1 0 0 1 1 1z"/><path d="M15 16H5a1 1 0 0 1 0-2h10a1 1 0 0 1 0 2zm0-4H5a1 1 0 0 1 0-2h10a1 1 0 0 1 0 2zm0 8H5a1 1 0 0 1 0-2h10a1 1 0 0 1 0 2zm0 4H5a1 1 0 0 1 0-2h10a1 1 0 0 1 0 2zm-3 4H5a1 1 0 0 1 0-2h7a1 1 0 0 1 0 2zm15-17h-8a1 1 0 0 1 0-2h8a1 1 0 0 1 0 2zm0-4h-4a1 1 0 0 1 0-2h4a1 1 0 0 1 0 2zm0 8h-8a1 1 0 0 1 0-2h8a1 1 0 0 1 0 2zm0 4h-8a1 1 0 0 1 0-2h8a1 1 0 0 1 0 2zm-3 4h-5a1 1 0 0 1 0-2h5a1 1 0 0 1 0 2z"/></g></svg><svg viewBox="0 0 32 32" width="32" height="32" x="160" xmlns="http://www.w3.org/2000/svg"><path d="M16 21.17a3 3 0 0 1-2.12-.88l-8.59-8.58a1 1 0 0 1 1.42-1.42l8.58 8.59a1 1 0 0 0 1.42 0l8.58-8.59a1 1 0 0 1 1.42 1.42l-8.59 8.58a3 3 0 0 1-2.12.88z" fill="#767676" data-name="Arrow Down"/></svg><svg viewBox="0 0 32 32" width="32" height="32" x="160" y="32" xmlns="http://www.w3.org/2000/svg"><path d="M28.71 4.29a3.84 3.84 0 0 0-5.42 0L6.56 21a3 3 0 0 0-.63.94l-2.85 6.67A1 1 0 0 0 4 30a1 1 0 0 0 .39-.08L11 27.07a3 3 0 0 0 .94-.64L28.71 9.71a3.84 3.84 0 0 0 0-5.42zM12 23.59L9.41 21 22 8.41 24.59 11zm-1.75 1.64L5.9 27.1l1.87-4.35a1.11 1.11 0 0 1 .23-.32L10.59 25a.85.85 0 0 1-.34.23zm17-16.94L26 9.59 23.41 7l1.3-1.29a1.82 1.82 0 0 1 2.58 2.58z" fill="#767676"/></svg><svg viewBox="0 0 32 32" width="32" height="32" x="160" y="64" xmlns="http://www.w3.org/2000/svg"><g fill="#767676"><path d="M16 18.6a3 3 0 0 1-1.66-.51L.45 8.83a1 1 0 0 1 1.1-1.66l13.9 9.26a1 1 0 0 0 1.1 0l13.9-9.26a1 1 0 1 1 1.1 1.66l-13.89 9.26a3 3 0 0 1-1.66.51z"/><path d="M29 27H3a3 3 0 0 1-3-3V8a3 3 0 0 1 3-3h26a3 3 0 0 1 3 3v16a3 3 0 0 1-3 3zM3 7a1 1 0 0 0-1 1v16a1 1 0 0 0 1 1h26a1 1 0 0 0 1-1V8a1 1 0 0 0-1-1z"/></g></svg><svg viewBox="0 0 32 32" width="32" height="32" x="160" y="96" xmlns="http://www.w3.org/2000/svg"><path d="M26 7H8a3 3 0 0 0-3 3v11a3 3 0 0 0 3 3h18a3 3 0 0 0 3-3V10a3 3 0 0 0-3-3zm-.59 2L17 15.78 8.59 9zM26 22H8a1 1 0 0 1-1-1V10.28l8.86 7.15a2 2 0 0 0 1.12.35 2.18 2.18 0 0 0 1.22-.39l8.8-7.11V21a1 1 0 0 1-1 1z" fill="#767676"/></svg><svg viewBox="0 0 32 32" width="32" height="32" x="160" y="128" xmlns="http://www.w3.org/2000/svg"><path d="M9 32H3a3 3 0 0 1-3-3v-6a1 1 0 0 1 2 0v6a1 1 0 0 0 1 1h6a1 1 0 0 1 0 2zm20 0h-6a1 1 0 0 1 0-2h6a1 1 0 0 0 1-1v-6a1 1 0 0 1 2 0v6a3 3 0 0 1-3 3zM1 10a1 1 0 0 1-1-1V3a3 3 0 0 1 3-3h6a1 1 0 0 1 0 2H3a1 1 0 0 0-1 1v6a1 1 0 0 1-1 1zm30 0a1 1 0 0 1-1-1V3a1 1 0 0 0-1-1h-6a1 1 0 0 1 0-2h6a3 3 0 0 1 3 3v6a1 1 0 0 1-1 1z" fill="#767676"/></svg><svg viewBox="0 0 32 32" width="32" height="32" y="160" xmlns="http://www.w3.org/2000/svg"><g fill="#767676"><path d="M21 19a1 1 0 0 0-1 1v5a1 1 0 0 1-1 1H3a1 1 0 0 1-1-1V7a1 1 0 0 1 1-1h16a1 1 0 0 1 1 1v5a1 1 0 0 0 2 0V7a3 3 0 0 0-3-3H3a3 3 0 0 0-3 3v18a3 3 0 0 0 3 3h16a3 3 0 0 0 3-3v-5a1 1 0 0 0-1-1z"/><path d="M30.58 14.13l-3.8-4.76a1 1 0 0 0-1.56 1.25l3.5 4.38H16a1 1 0 0 0 0 2h12.72l-3.5 4.37a1 1 0 0 0 .16 1.41A1 1 0 0 0 26 23a1 1 0 0 0 .78-.38l3.8-4.75a3 3 0 0 0 0-3.74z"/></g></svg><svg viewBox="0 0 32 32" width="32" height="32" x="32" y="160" xmlns="http://www.w3.org/2000/svg"><g data-name="Fast Forward" fill="#767676"><path d="M16 32a16 16 0 1 1 16-16 16 16 0 0 1-16 16zm0-30a14 14 0 1 0 14 14A14 14 0 0 0 16 2z"/><path d="M10 22a1 1 0 0 1-.77-.36 1 1 0 0 1 .13-1.41L14.44 16l-5.08-4.23a1 1 0 0 1 1.28-1.54l6 5a1 1 0 0 1 0 1.54l-6 5A1 1 0 0 1 10 22z"/><path d="M17 22a1 1 0 0 1-.77-.36 1 1 0 0 1 .13-1.41L21.44 16l-5.08-4.23a1 1 0 0 1 1.28-1.54l6 5a1 1 0 0 1 0 1.54l-6 5A1 1 0 0 1 17 22z"/></g></svg><svg viewBox="0 0 32 32" width="32" height="32" x="64" y="160" xmlns="http://www.w3.org/2000/svg"><path d="M28 12a12 12 0 1 0-13 12v3h-2a1 1 0 0 0 0 2h2v2a1 1 0 0 0 2 0v-2h2a1 1 0 0 0 0-2h-2v-3a12 12 0 0 0 11-12zM6 12a10 10 0 1 1 10 10A10 10 0 0 1 6 12z" fill="#767676"/></svg><svg viewBox="0 0 32 32" width="32" height="32" x="96" y="160" xmlns="http://www.w3.org/2000/svg"><path d="M31 15H12.86a4 4 0 0 0-7.72 0H1a1 1 0 0 0 0 2h4.14a4 4 0 0 0 7.72 0H31a1 1 0 0 0 0-2zM9 18a2 2 0 1 1 2-2 2 2 0 0 1-2 2zM31 5h-2a.5.5 0 0 0-.13 0 4 4 0 0 0-7.73 0H1a1 1 0 0 0 0 2h20.14a4 4 0 0 0 7.73 0A.5.5 0 0 0 29 7h2a1 1 0 0 0 0-2zm-6 3a2 2 0 1 1 2-2 2 2 0 0 1-2 2zm6 17h-8.14a4 4 0 0 0-7.72 0H1a1 1 0 0 0 0 2h14.14a4 4 0 0 0 7.72 0H31a1 1 0 0 0 0-2zm-12 3a2 2 0 1 1 2-2 2 2 0 0 1-2 2z" fill="#767676"/></svg><svg viewBox="0 0 32 32" width="32" height="32" x="128" y="160" xmlns="http://www.w3.org/2000/svg"><path d="M31.5 24.41l-1.2-6a3 3 0 0 0-2.3-2.33V15a4 4 0 0 0-4-4l-1.14-.06a4 4 0 0 0-3-2.83A4 4 0 0 0 12.14 8H12a4 4 0 0 0-3.87 3H8a4 4 0 0 0-4 4v1.08a3 3 0 0 0-2.3 2.33l-1.2 6A3 3 0 0 0 3.44 28h25.12a3 3 0 0 0 2.94-3.59zM8 13h1a1 1 0 0 0 1-1 2 2 0 0 1 4 0 1 1 0 0 0 2 0 4 4 0 0 0-1.95-3.42 2 2 0 0 1 3.77-.4 4 4 0 0 0-1.27.66 1 1 0 0 0 1.22 1.58A2 2 0 0 1 19 10a2 2 0 0 1 1.93 1.47A2 2 0 0 0 22.87 13H24a2 2 0 0 1 2 2v1H6v-1a2 2 0 0 1 2-2zm-3.36 5h22.72a1 1 0 0 1 1 .8L29 22H3l.64-3.2a1 1 0 0 1 1-.8zm24.69 7.63a1 1 0 0 1-.77.37H3.44a1 1 0 0 1-.77-.37 1 1 0 0 1-.21-.83l.16-.8h26.76l.16.8a1 1 0 0 1-.21.83z" fill="#767676"/></svg><svg viewBox="0 0 32 32" width="32" height="32" x="160" y="160" xmlns="http://www.w3.org/2000/svg"><path data-name="Food(2)" d="M26 8a.93.93 0 0 0-.22-.59 1.33 1.33 0 0 0-.1-.28.75.75 0 0 0-.07-.13L24 4.69V1a1 1 0 0 0-.62-.92 1 1 0 0 0-1.09.21l-2.13 2.14-1.33-2a1 1 0 0 0-1.66 0L16 2.2 14.83.45a1 1 0 0 0-1.66 0l-1.33 2L9.71.29A1 1 0 0 0 8.62.08 1 1 0 0 0 8 1v3.69L6.39 7a.75.75 0 0 0-.07.12A3 3 0 0 0 6 8.47V29a3 3 0 0 0 3 3h14a3 3 0 0 0 3-3V8.17A1 1 0 0 0 26 8zM9.82 5.57v-.09a1.08 1.08 0 0 0 .08-.19 1.06 1.06 0 0 0 0-.19L10 5V3.41l1.29 1.3a1 1 0 0 0 .81.29 1 1 0 0 0 .73-.45L14 2.8l1.17 1.75a1 1 0 0 0 1.66 0L18 2.8l1.17 1.75a1 1 0 0 0 .73.45 1 1 0 0 0 .81-.29L22 3.41V5.1a1.06 1.06 0 0 0 0 .19 1.08 1.08 0 0 0 .08.19v.09l1 1.43H8.83zM24 9v17H8V9zm-1 21H9a1 1 0 0 1-1-1v-1h16v1a1 1 0 0 1-1 1z" fill="#767676"/></svg><svg viewBox="0 0 32 32" width="32" height="32" x="192" xmlns="http://www.w3.org/2000/svg"><path d="M1 28a.92.92 0 0 1-.36-.07 1 1 0 0 1-.63-1C0 26.7 2.25 7.67 21 7V2a1 1 0 0 1 1.72-.7l8.39 8.59a2.95 2.95 0 0 1 0 4.25l-8.39 8.56A1 1 0 0 1 21 22v-5C9.23 17.56 1.88 27.49 1.81 27.59A1 1 0 0 1 1 28zM23 4.45V8a1 1 0 0 1-1 1C9 9 4.35 18.21 2.77 23.5 6.19 20.11 12.87 15 22 15a1 1 0 0 1 1 1v3.55l6.67-6.83A1 1 0 0 0 30 12a1 1 0 0 0-.3-.69z" fill="#767676"/></svg><svg viewBox="0 0 32 32" width="32" height="32" x="192" y="32" xmlns="http://www.w3.org/2000/svg"><path d="M14 15H1a1 1 0 0 1-1-1V1a1 1 0 0 1 1-1h13a1 1 0 0 1 1 1v13a1 1 0 0 1-1 1zM2 13h11V2H2zm12 19H1a1 1 0 0 1-1-1V18a1 1 0 0 1 1-1h13a1 1 0 0 1 1 1v13a1 1 0 0 1-1 1zM2 30h11V19H2zm29-15H18a1 1 0 0 1-1-1V1a1 1 0 0 1 1-1h13a1 1 0 0 1 1 1v13a1 1 0 0 1-1 1zm-12-2h11V2H19zm12 19H18a1 1 0 0 1-1-1V18a1 1 0 0 1 1-1h13a1 1 0 0 1 1 1v13a1 1 0 0 1-1 1zm-12-2h11V19H19z" fill="#767676"/></svg><svg viewBox="0 0 32 32" width="32" height="32" x="192" y="64" xmlns="http://www.w3.org/2000/svg"><path d="M14 15H7a1 1 0 0 1-1-1V7a1 1 0 0 1 1-1h7a1 1 0 0 1 1 1v7a1 1 0 0 1-1 1zm-6-2h5V8H8zm6 13H7a1 1 0 0 1-1-1v-7a1 1 0 0 1 1-1h7a1 1 0 0 1 1 1v7a1 1 0 0 1-1 1zm-6-2h5v-5H8zm17-9h-7a1 1 0 0 1-1-1V7a1 1 0 0 1 1-1h7a1 1 0 0 1 1 1v7a1 1 0 0 1-1 1zm-6-2h5V8h-5zm6 13h-7a1 1 0 0 1-1-1v-7a1 1 0 0 1 1-1h7a1 1 0 0 1 1 1v7a1 1 0 0 1-1 1zm-6-2h5v-5h-5z" fill="#767676"/></svg><svg viewBox="0 0 32 32" width="32" height="32" x="192" y="96" xmlns="http://www.w3.org/2000/svg"><path d="M30.38 5l-.67-.67-3.5-3.54a1 1 0 0 0-1.42 1.42L27.59 5 26 6.59l-3.29-3.3a1 1 0 0 0-1.42 1.42L24.59 8 23 9.59l-3.29-3.3a1 1 0 0 0-1.42 1.42l3.3 3.29L20 12.59l-3.29-3.3a1 1 0 0 0-1.42 1.42l3.3 3.29L17 15.59l-3.29-3.3a1 1 0 0 0-1.42 1.42l3.3 3.29L14 18.59l-3.29-3.3a1 1 0 0 0-1.42 1.42l3.3 3.29L11 21.59l-3.29-3.3a1 1 0 0 0-1.42 1.42L9.59 23 8 24.59l-3.29-3.3a1 1 0 0 0-1.42 1.42L6.59 26 5 27.59l-3.29-3.3a1 1 0 0 0-1.42 1.42l4 4 .67.67a5 5 0 0 0 7.08 0L30.38 12a5 5 0 0 0 0-7.08zM29 10.62L10.62 29a3 3 0 0 1-4.2 0L29 6.42a3 3 0 0 1 0 4.2z" fill="#767676"/></svg><svg viewBox="0 0 32 32" width="32" height="32" x="192" y="128" xmlns="http://www.w3.org/2000/svg"><g fill="#767676"><path d="M20 24a1 1 0 0 1-.69-.27 1 1 0 0 1 0-1.42l8.89-9.38A6.43 6.43 0 0 0 29.5 11a6.66 6.66 0 0 0 .38-3.78 6.49 6.49 0 0 0-5.09-5.1 6.57 6.57 0 0 0-5.43 1.37A6.49 6.49 0 0 0 17 8.5a1 1 0 0 1-2 0 6.49 6.49 0 0 0-2.36-5 6.57 6.57 0 0 0-5.43-1.38A6.49 6.49 0 0 0 2.52 11a6.34 6.34 0 0 0 1.34 2l8.87 9.35a1 1 0 1 1-1.46 1.38l-8.86-9.39a8.37 8.37 0 0 1-1.73-2.52A8.5 8.5 0 0 1 13.92 2 8.37 8.37 0 0 1 16 4.5a8.5 8.5 0 0 1 15.84 2.34 8.58 8.58 0 0 1-.5 4.94 8.39 8.39 0 0 1-1.74 2.53l-8.87 9.38A1 1 0 0 1 20 24z"/><path d="M23 30h-6V16l2.4 1.8a1 1 0 0 0 .6.2 1 1 0 0 0 .8-.4 1 1 0 0 0-.2-1.4l-2.8-2.1a3 3 0 0 0-3.6 0l-2.8 2.1a1 1 0 1 0 1.2 1.6L15 16v14H9a1 1 0 0 0 0 2h14a1 1 0 0 0 0-2z"/></g></svg><svg viewBox="0 0 32 32" width="32" height="32" x="192" y="160" xmlns="http://www.w3.org/2000/svg"><path d="M17 32a4 4 0 1 1 4-4 4 4 0 0 1-4 4zm0-6a2 2 0 1 0 2 2 2 2 0 0 0-2-2zm0-3a3 3 0 0 1-3-3 9.47 9.47 0 0 1 3-7.2c.25-.26.54-.53.85-.81 1-.91 2.11-2 2.11-3a3 3 0 0 0-6 0v1a3 3 0 0 1-6 0V9A9 9 0 0 1 26 9c0 2.76-1.75 4.61-3.3 6.25S20 18.11 20 20a3 3 0 0 1-3 3zm0-19a5 5 0 0 1 5 5c0 1.92-1.53 3.33-2.76 4.46-.27.25-.54.5-.76.73A7.56 7.56 0 0 0 16 20a1 1 0 0 0 2 0c0-2.69 1.73-4.52 3.25-6.13S24 11 24 9a7 7 0 0 0-14 0v1a1 1 0 0 0 2 0V9a5 5 0 0 1 5-5z" fill="#767676"/></svg><svg viewBox="0 0 32 32" width="32" height="32" y="192" xmlns="http://www.w3.org/2000/svg"><g data-name="View/Hide" fill="#767676"><path d="M16 24c-.44 0-.87 0-1.3-.06a1 1 0 0 1-.91-1.08 1 1 0 0 1 1.08-.86c.37 0 .75.05 1.13.05 6 0 11.54-4.28 13.52-6a29.66 29.66 0 0 0-5.73-3.9 1 1 0 1 1 .91-1.79 31 31 0 0 1 7 5 1 1 0 0 1 0 1.42C31.41 17 24.32 24 16 24zm8.62-18.78a1 1 0 0 0-1.4.16l-2.65 3.3A16.93 16.93 0 0 0 16 8C7.68 8 .59 15 .29 15.29a1 1 0 0 0 0 1.42 30 30 0 0 0 9.12 5.93l-2.19 2.74a1 1 0 0 0 .16 1.4A1 1 0 0 0 8 27a1 1 0 0 0 .78-.38l3.08-3.85L24.78 6.62a1 1 0 0 0-.16-1.4zM2.48 16c2-1.72 7.5-6 13.52-6a14.58 14.58 0 0 1 3.21.39L10.73 21a27.83 27.83 0 0 1-8.25-5z"/><path d="M16 21a5 5 0 1 1 5-5 5 5 0 0 1-5 5zm0-8a3 3 0 1 0 3 3 3 3 0 0 0-3-3z"/></g></svg><svg viewBox="0 0 32 32" width="32" height="32" x="32" y="192" xmlns="http://www.w3.org/2000/svg"><g fill="#767676"><path d="M30.83 10.61L18.06.8a3.07 3.07 0 0 0-4.12 0L8 5.36V3a1 1 0 0 0-1-1H3a1 1 0 0 0-1 1v7l-.83.64A3 3 0 0 0 0 13v16.08A3 3 0 0 0 3 32h26a3 3 0 0 0 3-2.92V13a3 3 0 0 0-1.17-2.39zM4 4h2v2.9L4 8.43zm26 25.08a1 1 0 0 1-1 .92H3a1 1 0 0 1-1-.92V13a1 1 0 0 1 .39-.8L15.2 2.36l.08-.08a1.07 1.07 0 0 1 1.44 0 .6.6 0 0 1 .08.08l12.81 9.83A1 1 0 0 1 30 13z"/><path d="M19 32a1 1 0 0 1-1-1v-5a2 2 0 0 0-4 0v5a1 1 0 0 1-2 0v-5a4 4 0 0 1 8 0v5a1 1 0 0 1-1 1zM9 20H5a1 1 0 0 1-1-1v-4a1 1 0 0 1 1-1h4a1 1 0 0 1 1 1v4a1 1 0 0 1-1 1zm-3-2h2v-2H6zm12 2h-4a1 1 0 0 1-1-1v-4a1 1 0 0 1 1-1h4a1 1 0 0 1 1 1v4a1 1 0 0 1-1 1zm-3-2h2v-2h-2zm12 2h-4a1 1 0 0 1-1-1v-4a1 1 0 0 1 1-1h4a1 1 0 0 1 1 1v4a1 1 0 0 1-1 1zm-3-2h2v-2h-2zM9 28H5a1 1 0 0 1-1-1v-4a1 1 0 0 1 1-1h4a1 1 0 0 1 1 1v4a1 1 0 0 1-1 1zm-3-2h2v-2H6zm21 2h-4a1 1 0 0 1-1-1v-4a1 1 0 0 1 1-1h4a1 1 0 0 1 1 1v4a1 1 0 0 1-1 1zm-3-2h2v-2h-2z"/></g></svg><svg viewBox="0 0 32 32" width="32" height="32" x="64" y="192" xmlns="http://www.w3.org/2000/svg"><path d="M29 8h-1V6a3 3 0 0 0-3-3H3a3 3 0 0 0-3 3v16a3 3 0 0 0 3 3h1v1a3 3 0 0 0 3 3h22a3 3 0 0 0 3-3V11a3 3 0 0 0-3-3zM3 5h22a1 1 0 0 1 1 1v9.59l-3.29-3.3a1 1 0 0 0-1.35-.06l-5.3 4.42-7.35-7.36a1 1 0 0 0-1.36 0L2 13.83V6a1 1 0 0 1 1-1zm0 18a1 1 0 0 1-1-1v-5.54l6-5.1 7.34 7.35a1 1 0 0 0 1.35.06l5.3-4.42L26 18.41V22a1 1 0 0 1-1 1zm27 3a1 1 0 0 1-1 1H7a1 1 0 0 1-1-1v-1h19a3 3 0 0 0 3-3V10h1a1 1 0 0 1 1 1z" fill="#767676"/></svg><svg viewBox="0 0 32 32" width="32" height="32" x="96" y="192" xmlns="http://www.w3.org/2000/svg"><path d="M22 32H11a1 1 0 0 1-1-1v-4a1 1 0 0 1 1-1h1v-7a1 1 0 0 0-1-1 1 1 0 0 1-1-1v-4a1 1 0 0 1 1-1h7a3 3 0 0 1 3 3v11h1a1 1 0 0 1 1 1v4a1 1 0 0 1-1 1zm-10-2h9v-2h-1a1 1 0 0 1-1-1V15a1 1 0 0 0-1-1h-6v2.17A3 3 0 0 1 14 19v8a1 1 0 0 1-1 1h-1zm4-20a5 5 0 1 1 5-5 5 5 0 0 1-5 5zm0-8a3 3 0 1 0 3 3 3 3 0 0 0-3-3z" fill="#767676"/></svg><svg viewBox="0 0 32 32" width="32" height="32" x="128" y="192" xmlns="http://www.w3.org/2000/svg"><g fill="#767676"><path d="M28 25h-3.36a9 9 0 0 0-3.49-15.73l7.56-7.56a1 1 0 0 0 .21-1.09A1 1 0 0 0 28 0h-6a1 1 0 0 0-.71.29l-4.76 4.76A4.75 4.75 0 0 0 16 5a5 5 0 0 0-5 5 4.75 4.75 0 0 0 .05.53l-3.76 3.76a1 1 0 0 0 0 1.42l.8.79-.8.79a1 1 0 0 0 0 1.42 1 1 0 0 0 1.42 0l.79-.8.79.8a1 1 0 0 0 1.42 0L15.47 15a4.75 4.75 0 0 0 .53 0 5 5 0 0 0 4.82-3.75A7 7 0 0 1 19 25H5a2 2 0 0 0-2 2v2a3 3 0 0 0 3 3h21a3 3 0 0 0 3-3v-2a2 2 0 0 0-2-2zM22.41 2h3.18l-5.36 5.36a5.24 5.24 0 0 0-1.59-1.59zM11 16.59L9.41 15l2.36-2.36a5.24 5.24 0 0 0 1.59 1.59zM16 13a3 3 0 1 1 3-3 3 3 0 0 1-3 3zm12 16a1 1 0 0 1-1 1H6a1 1 0 0 1-1-1v-2h23z"/><path d="M6.29 22.71a1 1 0 0 0 1.42 0 1 1 0 0 0 0-1.42l-3-3a1 1 0 0 0-1.42 1.42zm9-13.42A1.05 1.05 0 0 0 15 10a1 1 0 0 0 .29.71 1.15 1.15 0 0 0 .33.21.94.94 0 0 0 .76 0 1.15 1.15 0 0 0 .33-.21A1 1 0 0 0 17 10a1 1 0 0 0-1.71-.71z"/></g></svg><svg viewBox="0 0 32 32" width="32" height="32" x="160" y="192" xmlns="http://www.w3.org/2000/svg"><path d="M21 27a1 1 0 0 1-.71-.29l-8.58-8.59a3 3 0 0 1 0-4.24l8.58-8.59a1 1 0 1 1 1.42 1.42l-8.59 8.58a1 1 0 0 0 0 1.42l8.59 8.58a1 1 0 0 1 0 1.42A1 1 0 0 1 21 27z" fill="#767676" data-name="Arrow Left"/></svg><svg viewBox="0 0 32 32" width="32" height="32" x="192" y="192" xmlns="http://www.w3.org/2000/svg"><path d="M16 29.12a3 3 0 0 1-2.16-.92L2.42 16.34a8.23 8.23 0 0 1-1.74-2.52A8.5 8.5 0 0 1 16 6.5 8.64 8.64 0 0 1 18.08 4a8.5 8.5 0 0 1 13.26 9.83 8.39 8.39 0 0 1-1.74 2.53L18.16 28.2a3 3 0 0 1-2.16.92zm-.72-2.31a1 1 0 0 0 1.44 0l11.44-11.89A6.27 6.27 0 0 0 29.5 13a6.58 6.58 0 0 0 .38-3.78 6.49 6.49 0 0 0-5.09-5.1 6.57 6.57 0 0 0-5.43 1.37 6.49 6.49 0 0 0-2.36 5 1 1 0 0 1-2 0 6.49 6.49 0 0 0-2.36-5 6.57 6.57 0 0 0-5.43-1.37A6.49 6.49 0 0 0 2.52 13a6.34 6.34 0 0 0 1.34 2z" fill="#767676"/></svg><svg viewBox="0 0 32 32" width="32" height="32" x="224" xmlns="http://www.w3.org/2000/svg"><path d="M3 5H1a1 1 0 0 1 0-2h2a1 1 0 0 1 0 2zm0 12H1a1 1 0 0 1 0-2h2a1 1 0 0 1 0 2zm0 12H1a1 1 0 0 1 0-2h2a1 1 0 0 1 0 2zM31 5H7a1 1 0 0 1 0-2h24a1 1 0 0 1 0 2zm0 12H7a1 1 0 0 1 0-2h24a1 1 0 0 1 0 2zm0 12H7a1 1 0 0 1 0-2h24a1 1 0 0 1 0 2z" fill="#767676"/></svg><svg viewBox="0 0 32 32" width="32" height="32" x="224" y="32" xmlns="http://www.w3.org/2000/svg"><path d="M4 9H3a1 1 0 0 1 0-2h1a1 1 0 0 1 0 2zm0 8H3a1 1 0 0 1 0-2h1a1 1 0 0 1 0 2zm0 8H3a1 1 0 0 1 0-2h1a1 1 0 0 1 0 2zm25-8H9a1 1 0 0 1 0-2h20a1 1 0 0 1 0 2zm0-8H9a1 1 0 0 1 0-2h20a1 1 0 0 1 0 2zm0 16H9a1 1 0 0 1 0-2h20a1 1 0 0 1 0 2z" fill="#767676"/></svg><svg viewBox="0 0 32 32" width="32" height="32" x="224" y="64" xmlns="http://www.w3.org/2000/svg"><g fill="#767676"><path d="M14.48 29a13 13 0 1 1 13-13 1 1 0 0 1-2 0 11 11 0 1 0-11 11 1 1 0 1 1 0 2z"/><path d="M26.14 17.71a3.56 3.56 0 0 1-1.85-.51l-2.52-1.51a1 1 0 0 1 1-1.71l2.51 1.51a1.63 1.63 0 0 0 2.22-.56l1.5-2.51a1 1 0 0 1 1.72 1L29.24 16a3.6 3.6 0 0 1-3.1 1.71z"/></g></svg><svg viewBox="0 0 32 32" width="32" height="32" xmlns="http://www.w3.org/2000/svg"><path d="M14.94 28.35h-.19A2 2 0 0 1 13 26.92l-2.12-7.12-7.12-2.13A2 2 0 0 1 3.41 14l22-11.42a2 2 0 0 1 2.7 2.7l-11.41 22a2 2 0 0 1-1.76 1.07zm0-2l11.4-22-22 11.41 7.13 2.14a2 2 0 0 1 1.34 1.34z" fill="#767676" data-name="Get Location"/></svg><svg viewBox="0 0 32 32" width="32" height="32" x="224" y="128" xmlns="http://www.w3.org/2000/svg"><g data-name="Get Location(2)" fill="#767676"><path d="M31 15h-2A13 13 0 0 0 17 3.05V1a1 1 0 0 0-2 0v2.05A13 13 0 0 0 3.05 15H1a1 1 0 0 0 0 2h2.05A13 13 0 0 0 15 29v2a1 1 0 0 0 2 0v-2a13 13 0 0 0 12-12h2a1 1 0 0 0 0-2zm-6 2h2a11 11 0 0 1-10 10v-2a1 1 0 0 0-2 0v2a11 11 0 0 1-9.95-10H7a1 1 0 0 0 0-2H5.05A11 11 0 0 1 15 5.05V7a1 1 0 0 0 2 0V5.05A11 11 0 0 1 27 15h-2a1 1 0 0 0 0 2z"/><path d="M16 20a4 4 0 1 1 4-4 4 4 0 0 1-4 4zm0-6a2 2 0 1 0 2 2 2 2 0 0 0-2-2z"/></g></svg><svg viewBox="0 0 32 32" width="32" height="32" x="224" y="160" xmlns="http://www.w3.org/2000/svg"><g fill="#767676"><path d="M25 12h-2V7A7 7 0 0 0 9 7v5H7a3 3 0 0 0-3 3v14a3 3 0 0 0 3 3h18a3 3 0 0 0 3-3V15a3 3 0 0 0-3-3zM11 7a5 5 0 0 1 10 0v5H11zm15 22a1 1 0 0 1-1 1H7a1 1 0 0 1-1-1V15a1 1 0 0 1 1-1h18a1 1 0 0 1 1 1z"/><path d="M16 27a1 1 0 0 1-1-1v-3a1 1 0 0 1 2 0v3a1 1 0 0 1-1 1z"/><path d="M16 24a4 4 0 1 1 4-4 4 4 0 0 1-4 4zm0-6a2 2 0 1 0 2 2 2 2 0 0 0-2-2z"/></g></svg><svg viewBox="0 0 32 32" width="32" height="32" x="224" y="192" xmlns="http://www.w3.org/2000/svg"><path d="M29 1h-5a1 1 0 0 0 0 2h3.59l-5.85 5.84a12 12 0 1 0 1.42 1.42L29 4.41V8a1 1 0 0 0 2 0V3a2 2 0 0 0-2-2zm-7.93 24.07a10 10 0 1 1 0-14.14 10 10 0 0 1 0 14.14z" fill="#767676"/></svg><svg viewBox="0 0 32 32" width="32" height="32" y="224" xmlns="http://www.w3.org/2000/svg"><path d="M31 17H1a1 1 0 0 1 0-2h30a1 1 0 0 1 0 2zM21 7H1a1 1 0 0 1 0-2h20a1 1 0 0 1 0 2zm6 20H1a1 1 0 0 1 0-2h26a1 1 0 0 1 0 2z" fill="#767676"/></svg><svg viewBox="0 0 32 32" width="32" height="32" x="32" y="224" xmlns="http://www.w3.org/2000/svg"><path d="M27 17H5a1 1 0 0 1 0-2h22a1 1 0 0 1 0 2zm-7.33-8H5a1 1 0 0 1 0-2h14.67a1 1 0 0 1 0 2zm4.4 16H5a1 1 0 0 1 0-2h19.07a1 1 0 0 1 0 2z" fill="#767676"/></svg><svg viewBox="0 0 32 32" width="32" height="32" x="64" y="224" xmlns="http://www.w3.org/2000/svg"><path d="M26 17H6a1 1 0 0 1 0-2h20a1 1 0 0 1 0 2z" fill="#767676"/></svg><svg viewBox="0 0 32 32" width="32" height="32" x="96" y="224" xmlns="http://www.w3.org/2000/svg"><g fill="#767676"><path d="M23 32H9a3 3 0 0 1-3-3V3a3 3 0 0 1 3-3h14a3 3 0 0 1 3 3v26a3 3 0 0 1-3 3zM9 2a1 1 0 0 0-1 1v26a1 1 0 0 0 1 1h14a1 1 0 0 0 1-1V3a1 1 0 0 0-1-1z"/><path d="M16 28a1 1 0 0 1-1-1 1 1 0 0 1 .08-.38 1.15 1.15 0 0 1 .21-.33 1 1 0 0 1 1.42 0 1.15 1.15 0 0 1 .21.33A1 1 0 0 1 17 27a1.36 1.36 0 0 1 0 .2.64.64 0 0 1-.06.18.76.76 0 0 1-.09.18l-.12.15A1 1 0 0 1 16 28z"/></g></svg><svg viewBox="0 0 32 32" width="32" height="32" x="128" y="224" xmlns="http://www.w3.org/2000/svg"><path data-name="Mouse Pointer" d="M28.71 27.29l-7.82-7.81 6-1.81a2 2 0 0 0 1.42-1.73 2 2 0 0 0-1.07-2L5.26 2.56a2 2 0 0 0-2.7 2.7L14 27.27a2 2 0 0 0 1.77 1.08h.19a2 2 0 0 0 1.73-1.42l1.81-6 7.81 7.82a1 1 0 0 0 1.42 0 1 1 0 0 0-.02-1.46zm-10.82-8.06l-2.14 7.12L4.34 4.34l22 11.41-7.12 2.14a2 2 0 0 0-1.33 1.34z" fill="#767676"/></svg><svg viewBox="0 0 32 32" width="32" height="32" x="160" y="224" xmlns="http://www.w3.org/2000/svg"><path d="M20.46 31H3.54A2.81 2.81 0 0 1 1 28V12a2.81 2.81 0 0 1 2.54-3H10a1 1 0 0 1 0 2H3.54c-.22 0-.54.4-.54 1v16c0 .6.32 1 .54 1h16.92c.22 0 .54-.4.54-1v-6a1 1 0 0 1 2 0v6a2.81 2.81 0 0 1-2.54 3z" fill="#767676"/><path d="M28.46 23H11.54A2.81 2.81 0 0 1 9 20V4a2.81 2.81 0 0 1 2.54-3h16.92A2.81 2.81 0 0 1 31 4v16a2.81 2.81 0 0 1-2.54 3zM11.54 3c-.22 0-.54.4-.54 1v16c0 .6.32 1 .54 1h16.92c.22 0 .54-.4.54-1V4c0-.6-.32-1-.54-1z" fill="#767676"/><path d="M20 18a1 1 0 0 1-1-.93V6.93a1 1 0 0 1 2 0v10.14a1 1 0 0 1-1 .93z" fill="#767676"/><path d="M25.49 13h-11a1 1 0 1 1 0-2h11a1 1 0 1 1 0 2z" fill="#767676"/></svg><svg viewBox="0 0 32 32" width="32" height="32" x="192" y="224" xmlns="http://www.w3.org/2000/svg"><path d="M19.48 28h-13A2.78 2.78 0 0 1 4 25V13a2.75 2.75 0 0 1 2.52-3H10a1 1 0 1 1 0 2H6.52c-.23 0-.57.41-.57 1v12c0 .62.34 1 .57 1h13c.23 0 .57-.41.57-1v-3A1 1 0 1 1 22 22v3a2.78 2.78 0 0 1-2.52 3z" fill="#767676"/><path d="M25.48 22h-13A2.78 2.78 0 0 1 10 19V7a2.78 2.78 0 0 1 2.52-3h13A2.78 2.78 0 0 1 28 7v12a2.78 2.78 0 0 1-2.52 3zm-13-16c-.23 0-.57.41-.57 1v12c0 .62.34 1 .57 1h13c.23 0 .57-.41.57-1V7c0-.62-.34-1-.57-1z" fill="#767676"/><path d="M19 18.5a1 1 0 0 1-1-1v-9a1 1 0 0 1 2 0v9a1 1 0 0 1-1 1z" fill="#767676"/><path d="M23.51 14h-9a1 1 0 0 1 0-2h9a1 1 0 0 1 0 2z" fill="#767676"/></svg><svg viewBox="0 0 32 32" width="32" height="32" x="224" y="224" xmlns="http://www.w3.org/2000/svg"><g fill="#767676"><path d="M29 32H3a3 3 0 0 1-3-3V3a3 3 0 0 1 3-3h21a3 3 0 0 1 3 3v2h2a3 3 0 0 1 3 3v21a3 3 0 0 1-3 3zM3 2a1 1 0 0 0-1 1v26a1 1 0 0 0 1 1h26a1 1 0 0 0 1-1V8a1 1 0 0 0-1-1h-2v19a1 1 0 0 1-2 0V3a1 1 0 0 0-1-1z"/><path d="M13 11H6a2 2 0 0 1-2-2V7a2 2 0 0 1 2-2h7a2 2 0 0 1 2 2v2a2 2 0 0 1-2 2zM6 7v2h7V7zm16 0h-4a1 1 0 0 1 0-2h4a1 1 0 0 1 0 2zm0 4h-4a1 1 0 0 1 0-2h4a1 1 0 0 1 0 2zm0 4H5a1 1 0 0 1 0-2h17a1 1 0 0 1 0 2zm0 4H5a1 1 0 0 1 0-2h17a1 1 0 0 1 0 2zm0 4H5a1 1 0 0 1 0-2h17a1 1 0 0 1 0 2zm0 4H5a1 1 0 0 1 0-2h17a1 1 0 0 1 0 2z"/></g></svg><svg viewBox="0 0 32 32" width="32" height="32" x="256" xmlns="http://www.w3.org/2000/svg"><path d="M29 0H3a3 3 0 0 0-3 3v26a3 3 0 0 0 3 3h26a3 3 0 0 0 3-3V3a3 3 0 0 0-3-3zm1 3v12h-2.27a4.5 4.5 0 1 0-8.46 0H17v-4a1 1 0 0 0-.31-.72 1 1 0 0 0-1.41 0 2.5 2.5 0 1 1 0-3.52 1 1 0 0 0 1.42 0A1 1 0 0 0 17 6V2h12a1 1 0 0 1 1 1zM3 2h12v2.27a4.5 4.5 0 1 0 0 8.46V15h-4a1 1 0 0 0-.72.31 1 1 0 0 0 0 1.41 2.5 2.5 0 1 1-3.52 0 1 1 0 0 0 0-1.41A1 1 0 0 0 6 15H2V3a1 1 0 0 1 1-1zM2 29V17h2.27a4.5 4.5 0 1 0 8.46 0H15v4a1 1 0 0 0 .31.72 1 1 0 0 0 1.41 0 2.5 2.5 0 1 1 0 3.52 1 1 0 0 0-1.41 0A.94.94 0 0 0 15 26v4H3a1 1 0 0 1-1-1zm27 1H17v-2.27a4.5 4.5 0 1 0 0-8.46V17h4a1 1 0 0 0 .72-.31 1 1 0 0 0 0-1.41 2.5 2.5 0 1 1 3.52 0 1 1 0 0 0 0 1.41A1 1 0 0 0 26 17h4v12a1 1 0 0 1-1 1z" fill="#767676"/></svg><svg viewBox="0 0 32 32" width="32" height="32" x="256" y="32" xmlns="http://www.w3.org/2000/svg"><g fill="#767676"><path d="M16 32a16 16 0 1 1 16-16 16 16 0 0 1-16 16zm0-30a14 14 0 1 0 14 14A14 14 0 0 0 16 2z"/><path d="M13 21a1 1 0 0 1-1-1v-8a1 1 0 0 1 2 0v8a1 1 0 0 1-1 1zm6 0a1 1 0 0 1-1-1v-8a1 1 0 0 1 2 0v8a1 1 0 0 1-1 1z"/></g></svg><svg viewBox="0 0 32 32" width="32" height="32" x="256" y="64" xmlns="http://www.w3.org/2000/svg"><g fill="#767676"><path d="M26 24H6a2 2 0 0 1-2-2V10a2 2 0 0 1 2-2h20a2 2 0 0 1 2 2v12a2 2 0 0 1-2 2zM6 10v12h20V10z"/><path d="M4 12h24v2H4zm15.5 9a2.5 2.5 0 1 1 2.5-2.5 2.5 2.5 0 0 1-2.5 2.5zm0-3a.5.5 0 1 0 .5.5.5.5 0 0 0-.5-.5z"/><path d="M22.5 21a2.5 2.5 0 1 1 2.5-2.5 2.5 2.5 0 0 1-2.5 2.5zm0-3a.5.5 0 1 0 .5.5.5.5 0 0 0-.5-.5z"/></g></svg><svg viewBox="0 0 32 32" width="32" height="32" x="256" y="96" xmlns="http://www.w3.org/2000/svg"><path d="M30 23.17V3a3 3 0 0 0-3-3H5a3 3 0 0 0-3 3v26a3 3 0 0 0 3 3h16.17a3 3 0 0 0 1.21-.26 2.88 2.88 0 0 0 .87-.6l5.83-5.83a2.88 2.88 0 0 0 .6-.87 3 3 0 0 0 .32-1.27zM4 29V3a1 1 0 0 1 1-1h22a1 1 0 0 1 1 1v20h-6a1 1 0 0 0-1 1v6H5a1 1 0 0 1-1-1zm19-.41V25h3.59z" fill="#767676"/></svg><svg viewBox="0 0 32 32" width="32" height="32" x="256" y="128" xmlns="http://www.w3.org/2000/svg"><path d="M19 32h-6a3 3 0 0 1-3-3v-6a1 1 0 0 0-1-1H3a3 3 0 0 1-3-3v-6a3 3 0 0 1 3-3h6a1 1 0 0 0 1-1V3a3 3 0 0 1 3-3h6a3 3 0 0 1 3 3v6a1 1 0 0 0 1 1h6a3 3 0 0 1 3 3v6a3 3 0 0 1-3 3h-6a1 1 0 0 0-1 1v6a3 3 0 0 1-3 3zM3 12a1 1 0 0 0-1 1v6a1 1 0 0 0 1 1h6a3 3 0 0 1 3 3v6a1 1 0 0 0 1 1h6a1 1 0 0 0 1-1v-6a3 3 0 0 1 3-3h6a1 1 0 0 0 1-1v-6a1 1 0 0 0-1-1h-6a3 3 0 0 1-3-3V3a1 1 0 0 0-1-1h-6a1 1 0 0 0-1 1v6a3 3 0 0 1-3 3z" fill="#767676"/></svg><svg viewBox="0 0 32 32" width="32" height="32" x="256" y="160" xmlns="http://www.w3.org/2000/svg"><g fill="#767676"><path d="M16 32a2.82 2.82 0 0 1-2.26-1.14C11.22 27.47 4 16.61 4 11.39 4 5.11 9.38 0 16 0s12 5.11 12 11.39c0 5.22-7.22 16.08-9.74 19.47A2.82 2.82 0 0 1 16 32zm0-30C10.49 2 6 6.21 6 11.39c0 4 6.09 13.9 9.35 18.27a.79.79 0 0 0 1.3 0C19.91 25.29 26 15.44 26 11.39 26 6.21 21.51 2 16 2z"/><path d="M16 17a6 6 0 1 1 6-6 6 6 0 0 1-6 6zm0-10a4 4 0 1 0 4 4 4 4 0 0 0-4-4z"/></g></svg><svg viewBox="0 0 32 32" width="32" height="32" x="256" y="192" xmlns="http://www.w3.org/2000/svg"><g fill="#767676"><path d="M16 27a2.19 2.19 0 0 1-1.77-.9c-1.7-2.28-6.56-9.6-6.56-13.17A8.15 8.15 0 0 1 16 5a8.15 8.15 0 0 1 8.33 7.93c0 3.57-4.86 10.89-6.56 13.17A2.19 2.19 0 0 1 16 27zm0-20a6.15 6.15 0 0 0-6.33 5.93c0 2.62 4 9.1 6.16 12 .11.15.23.15.34 0 2.15-2.88 6.16-9.36 6.16-12A6.15 6.15 0 0 0 16 7z"/><path d="M16 16.67a4 4 0 1 1 4-4 4 4 0 0 1-4 4zm0-6a2 2 0 1 0 2 2 2 2 0 0 0-2-2z"/></g></svg><svg viewBox="0 0 32 32" width="32" height="32" x="256" y="224" xmlns="http://www.w3.org/2000/svg"><g fill="#767676"><path d="M16 32a16 16 0 1 1 16-16 16 16 0 0 1-16 16zm0-30a14 14 0 1 0 14 14A14 14 0 0 0 16 2z"/><path d="M13 22a.91.91 0 0 1-.48-.13A1 1 0 0 1 12 21V11a1 1 0 0 1 1.53-.85l8 5a1 1 0 0 1 0 1.7l-8 5A1 1 0 0 1 13 22zm1-9.2v6.4l5.11-3.2z"/></g></svg><svg viewBox="0 0 32 32" width="32" height="32" y="256" xmlns="http://www.w3.org/2000/svg"><path d="M26 15h-9V6a1 1 0 0 0-2 0v9H6a1 1 0 0 0 0 2h9v9a1 1 0 0 0 2 0v-9h9a1 1 0 0 0 0-2z" fill="#767676"/></svg><svg viewBox="0 0 32 32" width="32" height="32" x="32" y="256" xmlns="http://www.w3.org/2000/svg"><g fill="#767676"><path d="M10 15H6a1 1 0 0 1 0-2h4a1 1 0 0 1 0 2z"/><path d="M29 8h-2V3a3 3 0 0 0-3-3H8a3 3 0 0 0-3 3v5H3a3 3 0 0 0-3 3v13a3 3 0 0 0 3 3h2v2a3 3 0 0 0 3 3h16a3 3 0 0 0 3-3v-2h2a3 3 0 0 0 3-3V11a3 3 0 0 0-3-3zM7 3a1 1 0 0 1 1-1h16a1 1 0 0 1 1 1v5H7zm18 26a1 1 0 0 1-1 1H8a1 1 0 0 1-1-1v-9h18zm5-5a1 1 0 0 1-1 1h-2v-6a1 1 0 0 0-1-1H6a1 1 0 0 0-1 1v6H3a1 1 0 0 1-1-1V11a1 1 0 0 1 1-1h26a1 1 0 0 1 1 1z"/><path d="M22 28H10a1 1 0 0 1 0-2h12a1 1 0 0 1 0 2zm0-4H10a1 1 0 0 1 0-2h12a1 1 0 0 1 0 2z"/></g></svg><svg viewBox="0 0 32 32" width="32" height="32" x="64" y="256" xmlns="http://www.w3.org/2000/svg"><g fill="#767676"><path d="M27 11a11 11 0 1 0-18 8.48V31a1 1 0 0 0 .62.92 1 1 0 0 0 1.09-.21l5.29-5.3 5.29 5.3A1 1 0 0 0 22 32a.84.84 0 0 0 .38-.08A1 1 0 0 0 23 31V19.48A11 11 0 0 0 27 11zM7 11a9 9 0 1 1 9 9 9 9 0 0 1-9-9zm14 17.59L17.41 25a2 2 0 0 0-2.82 0L11 28.59v-7.8a10.94 10.94 0 0 0 10 0z"/><path d="M16 18a7 7 0 1 1 7-7 7 7 0 0 1-7 7zm0-12a5 5 0 1 0 5 5 5 5 0 0 0-5-5z"/></g></svg><svg viewBox="0 0 32 32" width="32" height="32" x="96" y="256" xmlns="http://www.w3.org/2000/svg"><path d="M16 2c.19 0 .26.15.3.27l2.14 6.89a4.5 4.5 0 0 0 4.28 3.2h6.92c.07 0 .21 0 .3.26a.48.48 0 0 1-.14.55l-5.6 4.25a4.68 4.68 0 0 0-1.61 5.1l2.11 6.88a.45.45 0 0 1-.05.44.4.4 0 0 1-.26.16.21.21 0 0 1-.14-.07l-5.6-4.25a4.39 4.39 0 0 0-5.35 0l-5.6 4.25a.25.25 0 0 1-.15.07.4.4 0 0 1-.26-.16.45.45 0 0 1 0-.44l2.14-6.88a4.67 4.67 0 0 0-1.61-5.1l-5.6-4.25a.48.48 0 0 1-.22-.55c.09-.26.24-.26.3-.26h6.95a4.49 4.49 0 0 0 4.28-3.2l2.14-6.89c0-.12.11-.27.3-.27m0-2a2.29 2.29 0 0 0-2.21 1.68l-2.14 6.88a2.49 2.49 0 0 1-2.37 1.8H2.33A2.45 2.45 0 0 0 1 14.76L6.56 19a2.67 2.67 0 0 1 .91 2.91l-2.14 6.9A2.42 2.42 0 0 0 7.55 32a2.26 2.26 0 0 0 1.36-.48l5.6-4.25a2.41 2.41 0 0 1 1.46-.5 2.44 2.44 0 0 1 1.47.5L23 31.52a2.21 2.21 0 0 0 1.35.48 2.42 2.42 0 0 0 2.22-3.19l-2.14-6.89a2.69 2.69 0 0 1 .95-2.92L31 14.76a2.45 2.45 0 0 0-1.37-4.4h-6.94a2.5 2.5 0 0 1-2.37-1.8l-2.14-6.88A2.29 2.29 0 0 0 16 0z" fill="#767676"/></svg><svg viewBox="0 0 31.94 32" width="31.94" height="32" x="128" y="256" xmlns="http://www.w3.org/2000/svg"><path d="M29.61 10.36h-6.92a2.5 2.5 0 0 1-2.37-1.8l-2.14-6.88a2.29 2.29 0 0 0-4.42 0l-2.14 6.88a2.49 2.49 0 0 1-2.37 1.8H2.33A2.45 2.45 0 0 0 1 14.76L6.56 19a2.67 2.67 0 0 1 .91 2.91l-2.14 6.9A2.42 2.42 0 0 0 7.55 32a2.26 2.26 0 0 0 1.36-.48l5.6-4.25a2.41 2.41 0 0 1 1.46-.5 2.44 2.44 0 0 1 1.47.5L23 31.52a2.21 2.21 0 0 0 1.35.48 2.42 2.42 0 0 0 2.22-3.19l-2.14-6.89a2.69 2.69 0 0 1 .95-2.92L31 14.76a2.45 2.45 0 0 0-1.39-4.4z" fill="#767676" data-name="Layer 2"/></svg><svg viewBox="0 0 32 32" width="32" height="32" x="159.94" y="256" xmlns="http://www.w3.org/2000/svg"><path d="M31.41 12.08a1 1 0 0 0-1.38.34l-1.5 2.51-.09.12A13 13 0 0 0 4.58 8.91 1 1 0 1 0 6.26 10a11 11 0 0 1 20.2 5.55l-.15-.06L23.8 14a1 1 0 0 0-1 1.71l2.52 1.51a3.56 3.56 0 0 0 1.85.51A3.6 3.6 0 0 0 30.24 16l1.51-2.51a1 1 0 0 0-.34-1.41zm-3.97 9.34a1 1 0 0 0-1.39.29 11 11 0 0 1-20.2-5.55l.15.07 2.51 1.51a1 1 0 0 0 1-1.72L7 14.52a3.62 3.62 0 0 0-5 1.23L.56 18.27a1 1 0 0 0 .35 1.37 1.06 1.06 0 0 0 .51.14 1 1 0 0 0 .86-.49l1.51-2.51a.94.94 0 0 1 .09-.12 13 13 0 0 0 23.85 6.14 1 1 0 0 0-.29-1.38z" fill="#767676"/></svg><svg viewBox="0 0 32 32" width="32" height="32" x="191.94" y="256" xmlns="http://www.w3.org/2000/svg"><g fill="#767676"><path d="M16 32a16 16 0 1 1 16-16 16 16 0 0 1-16 16zm0-30a14 14 0 1 0 14 14A14 14 0 0 0 16 2z"/><path d="M22 22a1 1 0 0 1-.64-.23l-6-5a1 1 0 0 1 0-1.54l6-5a1 1 0 1 1 1.28 1.54L17.56 16l5.08 4.23a1 1 0 0 1 .13 1.41A1 1 0 0 1 22 22z"/><path d="M15 22a1 1 0 0 1-.64-.23l-6-5a1 1 0 0 1 0-1.54l6-5a1 1 0 1 1 1.28 1.54L10.56 16l5.08 4.23a1 1 0 0 1 .13 1.41A1 1 0 0 1 15 22z"/></g></svg><svg viewBox="0 0 32 32" width="32" height="32" x="223.94" y="256" xmlns="http://www.w3.org/2000/svg"><path d="M12.59 27a1 1 0 0 1-.66-.25 1 1 0 0 1-.1-1.41l7.49-8.58a1.23 1.23 0 0 0 0-1.52l-7.49-8.58a1 1 0 0 1 1.51-1.32l7.49 8.59a3.21 3.21 0 0 1 0 4.14l-7.49 8.59a1 1 0 0 1-.75.34z" fill="#767676" data-name="Arrow Right"/></svg><svg viewBox="0 0 32 32" width="32" height="32" x="255.94" y="256" xmlns="http://www.w3.org/2000/svg"><g fill="#767676"><path d="M10 25a3 3 0 1 1 3-3 3 3 0 0 1-3 3zm0-4a1 1 0 1 0 1 1 1 1 0 0 0-1-1z"/><path d="M29 32H3a3 3 0 0 1-3-3V3a3 3 0 0 1 3-3h26a3 3 0 0 1 3 3v26a3 3 0 0 1-3 3zM3 2a1 1 0 0 0-1 1v26a1 1 0 0 0 1 1h26a1 1 0 0 0 1-1V3a1 1 0 0 0-1-1z"/><path d="M24 25a1 1 0 0 1-1-1A15 15 0 0 0 8 9a1 1 0 0 1 0-2 17 17 0 0 1 17 17 1 1 0 0 1-1 1z"/><path d="M18.4 25a1 1 0 0 1-1-1A9.41 9.41 0 0 0 8 14.6a1 1 0 0 1 0-2A11.41 11.41 0 0 1 19.4 24a1 1 0 0 1-1 1z"/></g></svg><svg viewBox="0 0 32 32" width="32" height="32" x="288" xmlns="http://www.w3.org/2000/svg"><path d="M0 13.5a13.48 13.48 0 0 0 22.3 10.21l8 8a1 1 0 0 0 1.42 0 1 1 0 0 0 0-1.42l-8-8A13.49 13.49 0 1 0 0 13.5zm2 0A11.5 11.5 0 1 1 13.5 25 11.51 11.51 0 0 1 2 13.5z" fill="#767676"/></svg><svg viewBox="0 0 32 32" width="32" height="32" x="288" y="32" xmlns="http://www.w3.org/2000/svg"><path d="M27.62 26.17l-6-6a10.09 10.09 0 1 0-1.42 1.41l6 6a1 1 0 0 0 1.41 0 1 1 0 0 0 .01-1.41zm-13.7-4.3a8 8 0 1 1 8-8 8 8 0 0 1-8 8z" fill="#767676"/></svg><svg viewBox="0 0 32 32" width="32" height="32" x="288" y="64" xmlns="http://www.w3.org/2000/svg"><g fill="#767676"><path d="M16 21a5 5 0 1 1 5-5 5 5 0 0 1-5 5zm0-8a3 3 0 1 0 3 3 3 3 0 0 0-3-3z"/><path d="M18 31h-4a2 2 0 0 1-2-2v-2.76l-.44-.18L9.64 28a2 2 0 0 1-2.83 0L4 25.19a2 2 0 0 1 0-2.83l1.95-1.95a4.27 4.27 0 0 1-.2-.41H3a2 2 0 0 1-2-2v-4a2 2 0 0 1 2-2h2.76a3.63 3.63 0 0 1 .18-.43L4 9.64a2 2 0 0 1 0-2.83L6.81 4a2 2 0 0 1 2.83 0l1.95 1.95.41-.2V3a2 2 0 0 1 2-2h4a2 2 0 0 1 2 2v2.76l.44.18 1.92-2a2 2 0 0 1 2.83 0L28 6.81a2 2 0 0 1 0 2.83l-1.95 1.95a4.27 4.27 0 0 1 .18.43L29 12a2 2 0 0 1 2 2v4a2 2 0 0 1-2 2h-2.76a3.63 3.63 0 0 1-.18.43l2 1.93a2 2 0 0 1 0 2.83L25.19 28a2 2 0 0 1-2.83 0l-1.95-1.95-.43.18L20 29a2 2 0 0 1-2 2zm-6.41-6.93a1.81 1.81 0 0 1 .79.17l.37.15A2 2 0 0 1 14 26.24V29h4v-2.76a2 2 0 0 1 1.25-1.85l.37-.15a2 2 0 0 1 2.21.42l2 1.95 2.83-2.83-1.95-2a2 2 0 0 1-.42-2.21l.15-.37a2 2 0 0 1 1.8-1.2H29v-4h-2.76a2 2 0 0 1-1.85-1.25l-.15-.37a2 2 0 0 1 .42-2.21l1.95-1.95-2.83-2.83-2 2a2 2 0 0 1-2.21.42l-.37-.15a2 2 0 0 1-1.2-1.9V3h-4v2.76a2 2 0 0 1-1.25 1.85l-.37.15a2 2 0 0 1-2.21-.42L8.22 5.39 5.39 8.22l2 1.95a2 2 0 0 1 .42 2.21l-.15.37A2 2 0 0 1 5.76 14H3v4h2.76a2 2 0 0 1 1.85 1.25l.15.37a2 2 0 0 1-.42 2.21l-1.95 2 2.83 2.83 1.95-1.95a2 2 0 0 1 1.42-.64z"/></g></svg><svg viewBox="0 0 32 32" width="32" height="32" x="288" y="96" xmlns="http://www.w3.org/2000/svg"><path d="M27 22a5 5 0 0 0-4 2.07l-13.1-6a4.66 4.66 0 0 0-.11-2.57L23.2 8.21A5 5 0 1 0 22 5a5.07 5.07 0 0 0 .24 1.46L8.8 13.79a5 5 0 1 0 .2 6.14l13.11 6A4.56 4.56 0 0 0 22 27a5 5 0 1 0 5-5zm0-20a3 3 0 1 1-3 3 3 3 0 0 1 3-3zM5 20a3 3 0 1 1 3-3 3 3 0 0 1-3 3zm22 10a3 3 0 0 1-3-3 3.05 3.05 0 0 1 .26-1.21A3 3 0 1 1 27 30z" fill="#767676"/></svg><svg viewBox="0 0 32 32" width="32" height="32" x="288" y="128" xmlns="http://www.w3.org/2000/svg"><g fill="#767676"><path d="M30.83 10.61L18.06.8a3.07 3.07 0 0 0-4.12 0L1.17 10.61A3 3 0 0 0 0 13v16.08A3 3 0 0 0 3 32h26a3 3 0 0 0 3-2.92V13a3 3 0 0 0-1.17-2.39zM12 30v-9a4 4 0 0 1 8 0v9zm18-.92a1 1 0 0 1-1 .92h-7v-9a6 6 0 0 0-12 0v9H3a1 1 0 0 1-1-.92V13a1 1 0 0 1 .39-.8L15.2 2.36l.08-.08a1.07 1.07 0 0 1 1.44 0 .6.6 0 0 1 .08.08l12.81 9.83A1 1 0 0 1 30 13z"/><path d="M19 11h-6a1 1 0 0 1 0-2h6a1 1 0 0 1 0 2z"/></g></svg><svg viewBox="0 0 32 32" width="32" height="32" x="288" y="160" xmlns="http://www.w3.org/2000/svg"><g fill="#767676"><path d="M9 27H5a1 1 0 0 1-1-1v-4a1 1 0 0 1 1-1h4a1 1 0 0 1 1 1v4a1 1 0 0 1-1 1zm-3-2h2v-2H6zm21 2h-4a1 1 0 0 1-1-1v-4a1 1 0 0 1 1-1h4a1 1 0 0 1 1 1v4a1 1 0 0 1-1 1zm-3-2h2v-2h-2zm-4-5h-8a1 1 0 0 1 0-2h8a1 1 0 0 1 0 2z"/><path d="M29 0H3a3 3 0 0 0-3 3v26a3 3 0 0 0 3 3h26a3 3 0 0 0 3-3V3a3 3 0 0 0-3-3zm1 3v8a2 2 0 0 1-4 0V2h3a1 1 0 0 1 1 1zM8 2h4v9a2 2 0 0 1-4 0zm6 0h4v9a2 2 0 0 1-4 0zm6 0h4v9a2 2 0 0 1-4 0zM2 3a1 1 0 0 1 1-1h3v9a2 2 0 0 1-4 0zm16 27h-4v-4a2 2 0 0 1 4 0zm11 0h-9v-4a4 4 0 0 0-8 0v4H3a1 1 0 0 1-1-1V14.44A3.91 3.91 0 0 0 4 15a4 4 0 0 0 3-1.38 4 4 0 0 0 6 0 4 4 0 0 0 6 0 4 4 0 0 0 6 0A4 4 0 0 0 28 15a3.91 3.91 0 0 0 2-.56V29a1 1 0 0 1-1 1z"/></g></svg><svg viewBox="0 0 32 32" width="32" height="32" x="288" y="192" xmlns="http://www.w3.org/2000/svg"><g data-name="View/Show" fill="#767676"><path d="M16 24C7.68 24 .59 17 .29 16.71a1 1 0 0 1 0-1.42C.59 15 7.68 8 16 8s15.41 7 15.71 7.29a1 1 0 0 1 0 1.42C31.41 17 24.32 24 16 24zM2.48 16c2 1.72 7.52 6 13.52 6s11.54-4.27 13.52-6c-2-1.72-7.52-6-13.52-6S4.46 14.27 2.48 16z"/><path d="M16 21a5 5 0 1 1 5-5 5 5 0 0 1-5 5zm0-8a3 3 0 1 0 3 3 3 3 0 0 0-3-3z"/><path d="M16 17a1 1 0 0 1-.71-1.71 1 1 0 0 1 .9-.27.6.6 0 0 1 .19.06.76.76 0 0 1 .18.09l.15.12a1 1 0 0 1 0 1.42 1.58 1.58 0 0 1-.15.12.76.76 0 0 1-.18.09.6.6 0 0 1-.19.06z"/></g></svg><svg viewBox="0 0 32 32" width="32" height="32" x="288" y="224" xmlns="http://www.w3.org/2000/svg"><g data-name="Skip - Forward" fill="#767676"><path d="M16 32a16 16 0 1 1 16-16 16 16 0 0 1-16 16zm0-30a14 14 0 1 0 14 14A14 14 0 0 0 16 2z"/><path d="M21 10a1 1 0 0 0-1 1v3.82l-7.47-4.67A1 1 0 0 0 11 11v10a1 1 0 0 0 .52.87.91.91 0 0 0 .48.13 1 1 0 0 0 .53-.15L20 17.18V21a1 1 0 0 0 2 0V11a1 1 0 0 0-1-1zm-8 9.2v-6.4l5.11 3.2z"/></g></svg><svg viewBox="0 0 32 32" width="32" height="32" x="288" y="256" xmlns="http://www.w3.org/2000/svg"><g fill="#767676"><path d="M16 32a16 16 0 1 1 16-16 16 16 0 0 1-16 16zm0-30a14 14 0 1 0 14 14A14 14 0 0 0 16 2z"/><path d="M18 21h-4a3 3 0 0 1-3-3v-4a3 3 0 0 1 3-3h4a3 3 0 0 1 3 3v4a3 3 0 0 1-3 3zm-4-8a1 1 0 0 0-1 1v4a1 1 0 0 0 1 1h4a1 1 0 0 0 1-1v-4a1 1 0 0 0-1-1z"/></g></svg><svg viewBox="0 0 32 32" width="32" height="32" y="288" xmlns="http://www.w3.org/2000/svg"><path data-name="Sustainable Development" d="M28.78 24.43c-.07-.09-1.88-2.32-4.28-2.32A5.87 5.87 0 0 0 20.59 24 5.93 5.93 0 0 0 17 25.54v-6.08c1.22-1.09 5-4.82 5-9.46C22 4.58 16.84.39 16.62.22a1 1 0 0 0-1.24 0C15.16.39 10 4.58 10 10c0 4.64 3.78 8.37 5 9.46v3.08A5.93 5.93 0 0 0 11.41 21a5.87 5.87 0 0 0-3.91-1.89c-2.4 0-4.21 2.23-4.28 2.32a1 1 0 0 0 0 1.25C3.29 22.78 5.1 25 7.5 25a5.89 5.89 0 0 0 3.95-1.95A4 4 0 0 1 15 27v4a1 1 0 0 0 2 0v-1a4 4 0 0 1 3.55-3.95A5.89 5.89 0 0 0 24.5 28c2.4 0 4.21-2.22 4.28-2.32a1 1 0 0 0 0-1.25zM7.5 23a3.54 3.54 0 0 1-2.09-.94 3.44 3.44 0 0 1 2.09-.95 3.49 3.49 0 0 1 2.09.95A3.49 3.49 0 0 1 7.5 23zM12 10c0-3.44 2.74-6.45 4-7.66 1.26 1.21 4 4.22 4 7.66 0 2.69-1.67 5.11-3 6.62V12a1 1 0 0 0-2 0v4.61c-1.33-1.5-3-3.92-3-6.61zm12.5 16a3.54 3.54 0 0 1-2.09-.94 3.44 3.44 0 0 1 2.09-.95 3.49 3.49 0 0 1 2.09.95 3.49 3.49 0 0 1-2.09.94z" fill="#767676"/></svg><svg viewBox="0 0 32 32" width="32" height="32" x="32" y="288" xmlns="http://www.w3.org/2000/svg"><g fill="#767676"><path d="M26 32H6a3 3 0 0 1-3-3V3a3 3 0 0 1 3-3h20a3 3 0 0 1 3 3v26a3 3 0 0 1-3 3zM6 2a1 1 0 0 0-1 1v26a1 1 0 0 0 1 1h20a1 1 0 0 0 1-1V3a1 1 0 0 0-1-1z"/><path d="M16 28a1.05 1.05 0 0 1-.71-.29 1 1 0 0 1-.21-.33A.84.84 0 0 1 15 27a1.05 1.05 0 0 1 .29-.71 1 1 0 0 1 .33-.21 1 1 0 0 1 .76 0 1.15 1.15 0 0 1 .33.21A1.05 1.05 0 0 1 17 27a1 1 0 0 1-.08.38 1 1 0 0 1-.21.33A1.05 1.05 0 0 1 16 28z"/></g></svg><svg viewBox="0 0 32 32" width="32" height="32" x="64" y="288" xmlns="http://www.w3.org/2000/svg"><path d="M23 2H9a4 4 0 0 0-4 4 1 1 0 0 0 2 0 2 2 0 0 1 2-2h6v23h-2a1 1 0 0 0 0 2h6a1 1 0 0 0 0-2h-2V4h6a2 2 0 0 1 2 2 1 1 0 0 0 2 0 4 4 0 0 0-4-4zM9.8 22.9a1 1 0 0 0-1.4-.2L6 24.5v-13a1 1 0 0 0-2 0v13l-2.4-1.8a1 1 0 0 0-1.2 1.6l2.8 2.1a3 3 0 0 0 3.6 0l2.8-2.1a1 1 0 0 0 .2-1.4z" data-name="Text - Decrease" fill="#767676"/></svg><svg viewBox="0 0 32 32" width="32" height="32" x="96" y="288" xmlns="http://www.w3.org/2000/svg"><g data-name="Text - Enlarge" fill="#767676"><path d="M23 2H9a4 4 0 0 0-4 4 1 1 0 0 0 2 0 2 2 0 0 1 2-2h6v23h-2a1 1 0 0 0 0 2h6a1 1 0 0 0 0-2h-2V4h6a2 2 0 0 1 2 2 1 1 0 0 0 2 0 4 4 0 0 0-4-4z"/><path d="M9.6 13.2l-2.8-2.1a3 3 0 0 0-3.6 0L.4 13.2a1 1 0 0 0 1.2 1.6L4 13v13a1 1 0 0 0 2 0V13l2.4 1.8a1 1 0 0 0 .6.2 1 1 0 0 0 .8-.4 1 1 0 0 0-.2-1.4z"/></g></svg><svg viewBox="0 0 32 32" width="32" height="32" x="128" y="288" xmlns="http://www.w3.org/2000/svg"><g fill="#767676"><path d="M25 12H11V7a5 5 0 0 1 9.15-2.79 1 1 0 0 0 1.39.26 1 1 0 0 0 .26-1.38A7 7 0 0 0 9 7v5H7a3 3 0 0 0-3 3v14a3 3 0 0 0 3 3h18a3 3 0 0 0 3-3V15a3 3 0 0 0-3-3zm1 17a1 1 0 0 1-1 1H7a1 1 0 0 1-1-1V15a1 1 0 0 1 1-1h18a1 1 0 0 1 1 1z"/><path d="M16 27a1 1 0 0 1-1-1v-3a1 1 0 0 1 2 0v3a1 1 0 0 1-1 1z"/><path d="M16 24a4 4 0 1 1 4-4 4 4 0 0 1-4 4zm0-6a2 2 0 1 0 2 2 2 2 0 0 0-2-2z"/></g></svg><svg viewBox="0 0 32 32" width="32" height="32" x="160" y="288" xmlns="http://www.w3.org/2000/svg"><path d="M26 21a1 1 0 0 1-.71-.29l-8.58-8.59a1 1 0 0 0-1.42 0l-8.58 8.59a1 1 0 0 1-1.42-1.42l8.59-8.58a3 3 0 0 1 4.24 0l8.59 8.58a1 1 0 0 1 0 1.42A1 1 0 0 1 26 21z" fill="#767676" data-name="Arrow Up"/></svg><svg viewBox="0 0 32 32" width="32" height="32" x="192" y="288" xmlns="http://www.w3.org/2000/svg"><path d="M26.25 18.09a14.12 14.12 0 0 0-5.84-3.42 8 8 0 1 0-8.81 0A13.39 13.39 0 0 0 2 27.2V29a3 3 0 0 0 3 3h22a3 3 0 0 0 3-3v-2.19a12.16 12.16 0 0 0-3.75-8.72zM10 8a6 6 0 1 1 6 6 6 6 0 0 1-6-6zm18 21a1 1 0 0 1-1 1H5a1 1 0 0 1-1-1v-1.8C4 21.13 9.28 16.11 15.77 16a12.63 12.63 0 0 1 9.08 3.51 10.22 10.22 0 0 1 3.15 7.3z" fill="#767676"/></svg><svg viewBox="0 0 32 32" width="32" height="32" x="224" y="288" xmlns="http://www.w3.org/2000/svg"><path d="M25.38 18.09a10.46 10.46 0 0 0-4-2.42 6.5 6.5 0 1 0-7.82 0A9.49 9.49 0 0 0 7 24.39V25a3 3 0 0 0 3 3h15a3 3 0 0 0 3-3v-.88a8.44 8.44 0 0 0-2.62-6.03zM17.5 6a4.5 4.5 0 1 1-4.5 4.5A4.51 4.51 0 0 1 17.5 6zM26 25a1 1 0 0 1-1 1H10a1 1 0 0 1-1-1v-.61c0-4 3.74-7.32 8.34-7.39h.16a9.2 9.2 0 0 1 6.5 2.51 6.47 6.47 0 0 1 2 4.61z" fill="#767676"/></svg><svg viewBox="0 0 32 32" width="32" height="32" x="256" y="288" xmlns="http://www.w3.org/2000/svg"><g data-name="Create Account" fill="#767676"><path d="M26.25 18.09a14.19 14.19 0 0 0-5.84-3.42 8 8 0 1 0-8.81 0A13.36 13.36 0 0 0 2 27.2V29a3 3 0 0 0 3 3h22a3 3 0 0 0 3-3v-2.19a12.16 12.16 0 0 0-3.75-8.72zM10 8a6 6 0 1 1 6 6 6 6 0 0 1-6-6zm18 21a1 1 0 0 1-1 1H5a1 1 0 0 1-1-1v-1.8C4 21.13 9.28 16.11 15.77 16a12.66 12.66 0 0 1 9.08 3.51 10.22 10.22 0 0 1 3.15 7.3zm1-23a1 1 0 0 1-1-1V1a1 1 0 0 1 2 0v4a1 1 0 0 1-1 1z"/><path d="M31 4h-4a1 1 0 0 1 0-2h4a1 1 0 0 1 0 2z"/></g></svg><svg viewBox="0 0 32 32" width="32" height="32" x="288" y="288" xmlns="http://www.w3.org/2000/svg"><path d="M24 18a4 4 0 0 0-1 7.85 4.49 4.49 0 0 1-9-.35V19h.13A9.67 9.67 0 0 0 23 9.21V3a3 3 0 0 0-3-3 1 1 0 0 0 0 2 1 1 0 0 1 1 1v6.21A7.66 7.66 0 0 1 14 17a7.5 7.5 0 0 1-8-7.5V3a1 1 0 0 1 1-1 1 1 0 0 0 0-2 3 3 0 0 0-3 3v6.5a9.49 9.49 0 0 0 8 9.38v6.62a6.49 6.49 0 0 0 13 .36A4 4 0 0 0 24 18zm0 6a2 2 0 1 1 2-2 2 2 0 0 1-2 2z" fill="#767676"/></svg><svg viewBox="0 0 32 32" width="32" height="32" x="320" xmlns="http://www.w3.org/2000/svg"><g fill="#767676"><path d="M14 20a1 1 0 0 1-.53-.15A1 1 0 0 1 13 19v-6a1 1 0 0 1 1.45-.89l6 3a1 1 0 0 1 0 1.78l-6 3A1 1 0 0 1 14 20zm1-5.38v2.76L17.76 16z"/><path d="M29 3H3a3 3 0 0 0-3 3v20a3 3 0 0 0 3 3h26a3 3 0 0 0 3-3V6a3 3 0 0 0-3-3zm1 3v2h-3V5h2a1 1 0 0 1 1 1zm-8 2V5h3v3zm-5 0V5h3v3zm-5 0V5h3v3zM7 8V5h3v3zM3 5h2v3H2V6a1 1 0 0 1 1-1zm2 22H3a1 1 0 0 1-1-1v-2h3zm5 0H7v-3h3zm5 0h-3v-3h3zm5 0h-3v-3h3zm5 0h-3v-3h3zm5-1a1 1 0 0 1-1 1h-2v-3h3zM2 22V10h28v12z"/></g></svg><svg viewBox="0 0 32 32" width="32" height="32" x="320" y="32" xmlns="http://www.w3.org/2000/svg"><g data-name="Volume Off" fill="#767676"><path d="M16 32a16 16 0 1 1 16-16 16 16 0 0 1-16 16zm0-30a14 14 0 1 0 14 14A14 14 0 0 0 16 2z"/><path d="M20 9a2 2 0 0 0-2 0l-5 2.89a1 1 0 0 1-.45.11H11a2 2 0 0 0-2 2v4a2 2 0 0 0 2 2h1.53a1 1 0 0 1 .39.08L18 23a2 2 0 0 0 2 0 2 2 0 0 0 1-1.73V10.73A2 2 0 0 0 20 9zm-9 5h1v4h-1zm3 4.39v-4.78l5-2.88v10.54z"/></g></svg><svg viewBox="0 0 32 32" width="32" height="32" x="320" y="64" xmlns="http://www.w3.org/2000/svg"><g data-name="Volume On" fill="#767676"><path d="M16 32a16 16 0 1 1 16-16 16 16 0 0 1-16 16zm0-30a14 14 0 1 0 14 14A14 14 0 0 0 16 2z"/><path d="M24 16a4 4 0 0 0-3-3.86v-1.41A2 2 0 0 0 18 9l-5 2.89a1 1 0 0 1-.45.11H11a2 2 0 0 0-2 2v4a2 2 0 0 0 2 2h1.53a1 1 0 0 1 .39.08L18 23a2 2 0 0 0 2 0 2 2 0 0 0 1-1.73v-1.41A4 4 0 0 0 24 16zm-13-2h1v4h-1zm3 4.39v-4.78l5-2.88v10.54zm7-.67v-3.44a2 2 0 0 1 0 3.44z"/></g></svg><svg viewBox="0 0 32 32" width="32" height="32" x="320" y="96" xmlns="http://www.w3.org/2000/svg"><g data-name="Text - Decrease" fill="#767676"><path d="M29 32H3a3 3 0 0 1-3-3V8a3 3 0 0 1 3-3h4.35a1 1 0 0 0 .88-.53 9 9 0 0 1 15.54 0 1 1 0 0 0 .88.53H29a3 3 0 0 1 3 3v21a3 3 0 0 1-3 3zM3 7a1 1 0 0 0-1 1v21a1 1 0 0 0 1 1h26a1 1 0 0 0 1-1V8a1 1 0 0 0-1-1h-4.35a3 3 0 0 1-2.6-1.52 7 7 0 0 0-12.1 0A3 3 0 0 1 7.35 7z"/><path d="M16 5a6 6 0 1 0 6 6 6 6 0 0 0-6-6zm0 10a4 4 0 0 1-1-7.86V11a1 1 0 0 0 2 0V7.14A4 4 0 0 1 16 15z"/></g></svg></svg>