
<svg width=".9375rem" height=".9375rem" viewBox="0 0 15 15" version="1.1" xmlns="http://www.w3.org/2000/svg" xmlns:xlink="http://www.w3.org/1999/xlink">
    <!-- Generator: Sketch 49.3 (51167) - http://www.bohemiancoding.com/sketch -->
    <desc>Created with Sketch.</desc>
    <defs></defs>
    <g id="Page-1" stroke="none" stroke-width="1" fill="none" fill-rule="evenodd">
        <g id="Dashboard-01" transform="translate(-486.000000, -951.000000)" fill="#4A4A4A">
            <g id="Group-10" transform="translate(486.000000, 755.000000)">
                <g id="Group-5" transform="translate(0.000000, 192.000000)">
                    <path d="M13.9637834,19 L8.82467671,19 C9.00454545,18.7179487 9.08163205,18.4102564 9.00454545,18.0769231 L7.69407325,10.4358974 C7.59129112,9.82051282 7.05168492,9.35897436 6.43499212,9.35897436 L6.30651445,9.35897436 C6.56346979,9.15384615 6.71764299,8.82051282 6.71764299,8.46153846 C6.71764299,7.82051282 6.20373232,7.30769231 5.56134399,7.30769231 L4.73908692,7.30769231 L4.79047799,6.92307692 C4.86756459,6.43589744 5.30438865,6.07692308 5.79260379,6.07692308 L8.10520178,6.07692308 L8.10520178,5.17948718 L7.61698665,5.17948718 C7.28294472,5.17948718 7.02598938,4.92307692 7.02598938,4.58974359 C7.02598938,4.25641026 7.28294472,4 7.61698665,4 L10.2893221,4 C10.623364,4 10.8803194,4.25641026 10.8803194,4.58974359 C10.8803194,4.92307692 10.623364,5.17948718 10.2893221,5.17948718 L9.80110698,5.17948718 L9.80110698,6.07692308 L12.113705,6.07692308 C12.6019201,6.07692308 13.0130486,6.43589744 13.1158308,6.92307692 L14.9916047,17.8205128 C15.0686913,18.4358974 14.6061717,19 13.9637834,19 Z M8.46493925,18.1794872 L7.15446705,10.5384615 C7.10307598,10.2051282 6.79472959,9.94871795 6.46068765,9.94871795 L5.09882439,9.94871795 L5.09882439,9.05128205 L5.58703952,9.05128205 C5.92108145,9.05128205 6.17803679,8.79487179 6.17803679,8.46153846 C6.17803679,8.12820513 5.92108145,7.87179487 5.58703952,7.87179487 L2.88900853,7.87179487 C2.55496659,7.87179487 2.29801126,8.12820513 2.29801126,8.46153846 C2.29801126,8.79487179 2.55496659,9.05128205 2.88900853,9.05128205 L3.37722366,9.05128205 L3.37722366,9.94871795 L2.01536039,9.94871795 C1.68131846,9.94871795 1.37297206,10.2051282 1.321581,10.5384615 L0.011108798,18.1794872 C-0.0659778019,18.6153846 0.268064131,19 0.704888197,19 L7.77115985,19 C8.20798392,19 8.54202585,18.5897436 8.46493925,18.1794872 Z" id="Shape"></path>
                </g>
            </g>
        </g>
    </g>
</svg>