<?xml version="1.0" encoding="UTF-8"?>
<svg width="60px" height="50px" viewBox="0 0 60 50" version="1.1" xmlns="http://www.w3.org/2000/svg" xmlns:xlink="http://www.w3.org/1999/xlink">
    <title>Group 6 Copy@2x</title>
    <defs>
        <linearGradient x1="21.4190413%" y1="62.5493246%" x2="131.859192%" y2="37.5490218%" id="linearGradient-1">
            <stop stop-color="#7B0511" offset="0%"></stop>
            <stop stop-color="#E0E0E0" offset="100%"></stop>
        </linearGradient>
    </defs>
    <g id="PO---FR-Updated" stroke="none" stroke-width="1" fill="none" fill-rule="evenodd">
        <g id="FR---Breeder-reco-V2.2" transform="translate(-969.000000, -911.000000)">
            <g id="Product-Details" transform="translate(0.000000, 385.000000)">
                <g id="Product-A" transform="translate(140.000000, 0.000000)">
                    <g id="CLUB" transform="translate(515.000000, 413.000000)">
                        <g id="Group-15" transform="translate(24.000033, 107.000000)">
                            <g id="Group-110" transform="translate(290.000000, 7.000000)">
                                <g id="Group-4" transform="translate(0.000000, 41.800000)"></g>
                                <path d="M0,45.400635 C0,47.3882872 13.4303479,49 30,49 C46.5683291,49 60,47.3882872 60,45.400635 C60,43.4117128 46.5683291,41.8 30,41.8 C13.4303479,41.8 0,43.4117128 0,45.400635" id="Fill-2" fill="#EBEBEB"></path>
                                <g id="Group-9" transform="translate(9.000000, 0.000000)">
                                    <path d="M41.5764258,19.3256642 L41.5764258,35.4257518 C41.5764258,35.8805166 41.20623,36.2492133 40.7496164,36.2492133 L3.92704467,36.2492133 C3.47043102,36.2492133 3.10023529,35.8805166 3.10023529,35.4257518 L3.10023529,19.3256642 C3.10023529,18.8708994 3.47043102,18.5022026 3.92704467,18.5022026 L40.7495266,18.5022026 C41.2063199,18.5022026 41.5764258,18.8708994 41.5764258,19.3256642 Z" id="Path" stroke="#7B0511" fill="url(#linearGradient-1)" fill-rule="nonzero"></path>
                                    <path d="M41.7845477,20.2712804 C41.6269522,23.3335531 41.5481544,24.8646895 41.5481544,24.8646895 C41.5481544,24.8646895 41.2260515,25.1748001 40.5818457,25.7950214 C40.1524615,26.2082723 39.5816511,26.4317181 38.9974055,26.4317181 C38.8105688,26.4317181 38.6227468,26.4092318 38.4379701,26.3633741 L35.7448695,25.6859544 L33.051769,26.3633741 C32.8660071,26.4093204 32.6780955,26.4317181 32.4912587,26.4317181 C31.9070132,26.4317181 31.3361131,26.2082723 30.9068185,25.7950214 L28.9177146,23.879974 L26.2431545,23.1372203 C25.4813871,22.92608 24.8857666,22.3383396 24.6710745,21.5854051 L23.9196074,18.9459294 C23.4108697,18.6707384 23.2725021,18.5307732 23.5045045,18.5260338 C24.2822178,18.5101464 30.0466007,18.6501116 40.7976531,18.9459294 L41.7845477,20.2712804 Z" id="Path" fill="#860210" fill-rule="nonzero"></path>
                                    <path d="M38.4761905,21.968836 L38.4761905,38.0689236 C38.4761905,38.5236884 38.1059948,38.8923851 37.6493811,38.8923851 L0.826809374,38.8923851 C0.370195723,38.8923851 0,38.5236884 0,38.0689236 L0,21.968836 C0,21.5140712 0.370195723,21.1453744 0.826809374,21.1453744 L37.6492913,21.1453744 C38.1059948,21.1453744 38.4761905,21.5138923 38.4761905,21.968836 Z" id="Path" stroke="#A60617" fill="#FFFFFF" fill-rule="nonzero"></path>
                                    <g id="Crown" transform="translate(24.761905, 27.186910)" fill="#EC001A">
                                        <path d="M2.18197521,5.08532694 C2.08877037,5.08532694 1.99631833,5.04314082 1.93618196,4.96345715 C1.83490366,4.82876694 1.86251708,4.63784662 1.99795484,4.53704823 C2.81259981,3.93200885 4.05945862,3.5705358 5.33305804,3.5705358 L5.33316714,3.5705358 C6.60206431,3.5705358 7.84575919,3.93180312 8.66003322,4.53704823 C8.7960274,4.63784662 8.82379356,4.82849624 8.72164245,4.96319727 C8.6209533,5.09789831 8.42847762,5.12534744 8.29249435,5.02439746 C7.74268073,4.6160714 6.6765038,4.17968984 5.33338534,4.17968984 L5.33305804,4.17968984 C3.98372082,4.17968984 2.91574373,4.6160714 2.36554826,5.02461402 C2.31075783,5.06566318 2.24626833,5.08532694 2.18197521,5.08532694" id="Fill-28"></path>
                                        <path d="M2.46246798,5.60565518 C2.4020043,5.60565518 2.34171519,5.57960287 2.29995139,5.52962055 C2.22694112,5.44074386 2.23981501,5.30945366 2.32931042,5.23644006 C3.03373082,4.66194663 4.15659654,4.31905453 5.33360899,4.31905453 C6.5047191,4.31905453 7.62440998,4.66178421 8.32893948,5.23638592 C8.418664,5.30912881 8.43190884,5.44051647 8.35829851,5.52944731 C8.28462272,5.61837814 8.15233797,5.63111194 8.06284256,5.55816331 C7.430636,5.04307261 6.41052144,4.73555577 5.33360899,4.73555577 C4.26737752,4.73555577 3.21784938,5.05071722 2.59584374,5.5582716 C2.55699294,5.59026851 2.50962136,5.60565518 2.46246798,5.60565518" id="Fill-30"></path>
                                        <path d="M0.818331606,1.22225275 C0.693476619,1.22225275 0.570029033,1.25578725 0.461866473,1.31931546 C0.300331788,1.41414759 0.185088584,1.56623849 0.138098857,1.74686132 C0.0918728369,1.92781982 0.118067946,2.11543758 0.214109404,2.2757578 C0.338757099,2.48481511 0.569483529,2.61614862 0.816804194,2.61842252 L0.821604631,2.61870405 C0.946906931,2.61859577 1.07056181,2.58496382 1.17872437,2.52121904 C1.34047726,2.42632194 1.45507676,2.27461003 1.50179374,2.09409548 C1.548718,1.9134185 1.52143189,1.72553005 1.42571773,1.56514486 C1.30008813,1.35354295 1.06696148,1.22225275 0.818331606,1.22225275" id="Fill-32"></path>
                                        <path d="M5.32923623,1.75949008 C4.94090275,1.75949008 4.62482674,2.07281076 4.62482674,2.45762911 C4.62482674,2.84271815 4.94090275,3.15609297 5.32923623,3.15609297 C5.71713332,3.15609297 6.03245653,2.84271815 6.03245653,2.45762911 C6.03245653,2.07281076 5.71713332,1.75949008 5.32923623,1.75949008" id="Fill-34"></path>
                                        <path d="M5.32923623,0.0108215609 C4.94090275,0.0108215609 4.62482674,0.324153068 4.62482674,0.708971412 C4.62482674,1.09406046 4.94090275,1.407327 5.32923623,1.407327 C5.71713332,1.407327 6.03245653,1.09406046 6.03245653,0.708971412 C6.03245653,0.324153068 5.71713332,0.0108215609 5.32923623,0.0108215609" id="Fill-36"></path>
                                        <path d="M3.45742716,2.00277272 C3.39477055,2.00277272 3.33213577,2.01095873 3.27127933,2.0273091 C2.89675801,2.12902787 2.67541425,2.51394367 2.77832906,2.88528108 C2.86084202,3.18468771 3.13861272,3.3959756 3.45415414,3.39900745 L3.47008286,3.39934312 C3.52858272,3.39824949 3.58687529,3.38990106 3.64361863,3.37452522 C3.82469328,3.32546329 3.97541607,3.20896421 4.06885002,3.04695481 C4.16183665,2.88480465 4.18563154,2.69686205 4.13607795,2.51705132 C4.05236488,2.21406061 3.77350317,2.00277272 3.45742716,2.00277272" id="Fill-39"></path>
                                        <path d="M1.71527569,2.72745348 C1.5899843,2.72745348 1.46664582,2.76093383 1.35902876,2.82457033 C1.19705767,2.91924004 1.08203267,3.0712768 1.03519568,3.2519646 C0.988926024,3.43285813 1.01566664,3.62080073 1.11093348,3.78138082 C1.23570118,3.99012412 1.46642761,4.12131687 1.71418468,4.12368821 L1.71833051,4.12390477 C1.84405831,4.12390477 1.96674219,4.09027283 2.07566845,4.02679875 C2.23731224,3.9318042 2.35223905,3.78002732 2.39851962,3.5992962 C2.44544389,3.41878165 2.41837597,3.23100148 2.32298912,3.07035641 C2.19659581,2.8589061 1.96412377,2.72745348 1.71527569,2.72745348" id="Fill-41"></path>
                                        <path d="M7.38627124,2.02731018 C7.32542571,2.01095981 7.26326005,2.0027738 7.20071255,2.0027738 C6.88474564,2.0027738 6.60578574,2.21406169 6.52238907,2.51705241 C6.42001976,2.88827071 6.64087256,3.27280752 7.01507749,3.3745263 C7.07596666,3.39099577 7.13883056,3.3994958 7.20126896,3.3994958 C7.51658126,3.3994958 7.79609758,3.18788307 7.87948335,2.88528217 C7.98142716,2.51394475 7.7605198,2.12902896 7.38627124,2.02731018" id="Fill-43"></path>
                                        <path d="M7.85088802,0.340618212 C7.7901625,0.324202877 7.72842234,0.315800304 7.66535115,0.315800304 C7.34925333,0.315800304 7.07083892,0.527423865 6.98712586,0.830078907 C6.88474564,1.20135135 7.10642761,1.58616969 7.48013068,1.68772605 C7.54092166,1.70423884 7.60356735,1.71268472 7.66578756,1.71268472 C7.98142716,1.71268472 8.26083438,1.50108282 8.34422014,1.19848192 C8.44680765,0.827036223 8.22524569,0.442336987 7.85088802,0.340618212" id="Fill-45"></path>
                                        <path d="M9.2991164,2.82456816 C9.19073564,2.76093167 9.06712441,2.72745131 8.94188757,2.72745131 C8.69403231,2.72745131 8.46170209,2.85890393 8.33570155,3.07036507 C8.24004194,3.23099931 8.21297403,3.41877949 8.25973464,3.59929404 C8.30602612,3.78003598 8.42106204,3.93180204 8.58258581,4.02679659 C8.69174119,4.09037894 8.81483965,4.12391344 8.94057836,4.12391344 C9.18816086,4.12391344 9.42037106,3.99273152 9.54654617,3.78138949 C9.64215123,3.62080939 9.6687391,3.43285596 9.62207667,3.25196243 C9.5752506,3.07128546 9.46031288,2.91923787 9.2991164,2.82456816" id="Fill-47"></path>
                                        <path d="M10.5191702,1.74686457 C10.4724096,1.56624174 10.3574828,1.41415084 10.1957299,1.31931871 C10.0872401,1.25579049 9.96391248,1.222256 9.83861018,1.222256 C9.59107131,1.222256 9.35870837,1.3535462 9.23264236,1.56505065 C9.1368191,1.72568489 9.10975119,1.91357335 9.15667546,2.09409872 C9.20317423,2.27461328 9.31800285,2.42632519 9.47969027,2.52122229 C9.58823469,2.58511866 9.71179137,2.61870729 9.83731188,2.61870729 C10.0853853,2.61870729 10.3177592,2.48741709 10.4436397,2.27576105 C10.5392011,2.11544083 10.5660618,1.92782307 10.5191702,1.74686457" id="Fill-49"></path>
                                        <path d="M2.99313113,1.71268797 C3.05577683,1.71268797 3.11842252,1.70417712 3.178668,1.68771847 C3.55238197,1.58617294 3.77350753,1.20134377 3.67134552,0.830071327 C3.58817796,0.527427113 3.30887984,0.315803553 2.99246562,0.315803553 C2.92992902,0.315803553 2.86717423,0.324206125 2.80671055,0.340621461 C2.43208013,0.442340235 2.21088911,0.827039471 2.31316023,1.19858262 C2.39610959,1.49815166 2.67388029,1.70933127 2.9889853,1.71236313 L2.99313113,1.71268797 Z" id="Fill-51"></path>
                                    </g>
                                    <path d="M39.0717474,24.5212784 C38.6877353,24.7930804 39.17495,26.3191888 38.7078095,26.3191888 C38.5219512,26.3191888 38.6990507,26.3649455 38.5152417,26.3191888 L35.8362451,25.6432614 L33.1572485,26.3191888 C32.9724594,26.3650339 32.7855319,26.3873822 32.5996736,26.3873822 C32.0184878,26.3873822 31.4505776,26.1644286 31.0235312,25.7520882 L29.0448444,23.8412594 L26.384291,23.1001419 C25.6265131,22.8894667 25.0340119,22.303021 24.8204441,21.5517452 L24.4067879,21.1010386 L24.4067879,20.7677785 L39.0717474,20.7677785 L39.0717474,24.5212784 Z" id="Path" fill="#7B0511" fill-rule="nonzero"></path>
                                    <path d="M35.9852352,0.70958512 L38.7095542,0.0218633172 C38.9498395,-0.0387704624 39.2046957,0.0288698873 39.382353,0.200620682 L41.3945045,2.14620147 C41.4797582,2.22866341 41.5844701,2.28848874 41.6990468,2.32046745 L44.4048127,3.07457201 C44.6439214,3.14122425 44.8307194,3.32653905 44.8980536,3.56377433 L45.6588212,6.24477549 C45.6911307,6.35867717 45.7516772,6.46260796 45.8350304,6.54731559 L47.7971338,8.54086444 C47.9708089,8.71728628 48.0392291,8.97078039 47.9778681,9.20990206 L47.2843442,11.9083298 C47.2548402,12.0230399 47.2548402,12.1432296 47.2843442,12.2579397 L47.9778681,14.9561878 C48.0393196,15.1952196 47.9708089,15.4488036 47.7971338,15.6252254 L45.8351209,17.6185946 C45.7518582,17.7032124 45.6912212,17.807233 45.6589117,17.9211347 L44.8981441,20.6021359 C44.8309004,20.8393712 44.6439214,21.024686 44.4049937,21.0913382 L41.6991373,21.8456224 C41.5845606,21.8775113 41.4798487,21.9375163 41.3946855,22.0198884 L39.382353,23.9654692 C39.2046957,24.13722 38.94993,24.2049502 38.7095542,24.1442265 L35.9852352,23.4565047 C35.8699345,23.4274904 35.7492036,23.4274005 35.6339934,23.4565047 L32.9094934,24.1443164 C32.6691176,24.2049502 32.4143519,24.1373098 32.2366947,23.965559 L30.2245432,22.0199782 C30.1392894,21.9375163 30.0345775,21.877691 29.9200008,21.8457122 L27.2141444,21.091428 C26.9751262,21.0247758 26.7882377,20.839461 26.720994,20.6022257 L25.9601359,17.9211347 C25.9278264,17.807233 25.8672799,17.7033023 25.7839267,17.6185946 L23.8219139,15.6252254 C23.6482388,15.4488036 23.579728,15.1953095 23.6411795,14.9561878 L24.3346129,12.2579397 C24.3641169,12.1432296 24.3641169,12.0231298 24.3346129,11.9084196 L23.6411795,9.20990206 C23.579728,8.97087022 23.6482388,8.71746594 23.8219139,8.54086444 L25.7840172,6.54731559 C25.8672799,6.46269779 25.9278264,6.35867717 25.9602264,6.24486532 L26.7210845,3.56377433 C26.7883282,3.32653905 26.9753072,3.14131408 27.2143254,3.07457201 L29.9200913,2.32046745 C30.0347585,2.28848874 30.1393799,2.22857358 30.2246337,2.14611164 L32.2366947,0.200620682 C32.4143519,0.0288698873 32.6691176,-0.0388602903 32.9094934,0.0218633172 L35.6339934,0.709674948 C35.7491131,0.738599506 35.8699345,0.738599506 35.9852352,0.70958512 Z" id="Path" stroke="#A60617" fill="#FFFFFF" fill-rule="nonzero"></path>
                                    <path d="M34.8919216,8.89284483 C34.8919216,7.57517443 33.827944,6.50337647 32.519888,6.50337647 C31.2118319,6.50337647 30.1478543,7.57517443 30.1478543,8.89284483 C30.1478543,10.2105152 31.2118319,11.2823132 32.519888,11.2823132 C33.827944,11.2823132 34.8919216,10.2104249 34.8919216,8.89284483 Z M31.6948796,8.89284483 C31.6948796,8.43459928 32.064986,8.06177251 32.519888,8.06177251 C32.9747899,8.06177251 33.3448964,8.43459928 33.3448964,8.89284483 C33.3448964,9.35109038 32.9747899,9.72391715 32.519888,9.72391715 C32.064986,9.72391715 31.6948796,9.35109038 31.6948796,8.89284483 Z" id="Shape" fill="#E2001A" fill-rule="nonzero"></path>
                                    <path d="M38.7078095,13.7756204 C37.3997535,13.7756204 36.3357759,14.8474184 36.3357759,16.1650888 C36.3357759,17.4827592 37.3997535,18.5545571 38.7078095,18.5545571 C40.0158655,18.5545571 41.0798431,17.4827592 41.0798431,16.1650888 C41.0798431,14.8474184 40.0157759,13.7756204 38.7078095,13.7756204 Z M38.7078095,16.9962514 C38.2529076,16.9962514 37.8828011,16.6234246 37.8828011,16.1651791 C37.8828011,15.7069335 38.2529076,15.3341068 38.7078095,15.3341068 C39.1627115,15.3341068 39.5328179,15.7069335 39.5328179,16.1651791 C39.5328179,16.6233343 39.1627115,16.9962514 38.7078095,16.9962514 Z" id="Shape" fill="#E2001A" fill-rule="nonzero"></path>
                                    <path d="M39.9266779,8.1843927 C39.6245154,7.88018989 39.1348347,7.88018989 38.8327619,8.1843927 L31.3010196,15.7714942 C30.9989468,16.0758776 30.9989468,16.5691575 31.3010196,16.8734506 C31.4521457,17.0255069 31.6501513,17.1016253 31.8480672,17.1016253 C32.0459832,17.1016253 32.2439888,17.0255972 32.3951148,16.8734506 L39.9268571,9.28634908 C40.2287507,8.98196569 40.2287507,8.4886858 39.9266779,8.1843927 Z" id="Path" fill="#E2001A" fill-rule="nonzero"></path>
                                    <path d="M8.65142857,31.5969037 L8.65142857,30.0569037 L5.37142857,30.0569037 L5.37142857,31.5969037 L8.65142857,31.5969037 Z M13.2014286,33.7769037 L13.2014286,26.6569037 L11.5614286,26.6569037 L10.0414286,27.9769037 L10.0414286,29.7269037 L11.5614286,28.4069037 L11.5614286,33.7769037 L13.2014286,33.7769037 Z M17.4814286,33.8369037 C18.6614286,33.8369037 19.7714286,33.0869037 19.7714286,31.6169037 L19.7714286,28.8169037 C19.7714286,27.3469037 18.6614286,26.5969037 17.4814286,26.5969037 C16.3014286,26.5969037 15.1914286,27.3469037 15.1914286,28.8169037 L15.1914286,31.6169037 C15.1914286,33.0869037 16.3014286,33.8369037 17.4814286,33.8369037 Z M17.4814286,32.3569037 C17.1314286,32.3569037 16.8314286,32.1269037 16.8314286,31.6269037 L16.8314286,28.8169037 C16.8314286,28.3169037 17.1314286,28.0769037 17.4814286,28.0769037 C17.8314286,28.0769037 18.1314286,28.3169037 18.1314286,28.8169037 L18.1314286,31.6269037 C18.1314286,32.1269037 17.8314286,32.3569037 17.4814286,32.3569037 Z" id="-10" fill="#E2001A" fill-rule="nonzero"></path>
                                </g>
                            </g>
                        </g>
                    </g>
                </g>
            </g>
        </g>
    </g>
</svg>