<?xml version="1.0" encoding="UTF-8"?>
<svg width="279px" height="58px" viewBox="0 0 279 58" version="1.1" xmlns="http://www.w3.org/2000/svg" xmlns:xlink="http://www.w3.org/1999/xlink">
    <title>编组 39</title>
    <g id="网页" stroke="none" stroke-width="1" fill="none" fill-rule="evenodd">
        <g id="编组-39">
            <path d="M110.49,17.14 C111.283778,16.789176 112.184898,16.7703955 112.992604,17.0878427 C113.80031,17.4052899 114.447503,18.0325934 114.79,18.83 L114.79,18.83 L120.79,30.19 L126.58,19 C126.916449,18.1895759 127.566308,17.5496376 128.381812,17.2256961 C129.197316,16.9017545 130.109158,16.9213403 130.91,17.28 C132.657855,18.1352571 133.441188,20.2008048 132.7,22 L132.7,22 L118.67,50.13 C117.8,52.27 115.23,53.52 113.34,52.52 C110.64,51.15 111.05,48.83 111.93,46.83 L111.93,46.83 L116.7,38.16 L108.7,21.85 C107.948997,20.0538026 108.735596,17.9840361 110.49,17.14 Z M96.39,16.89 C105.18,16.89 108.64,23.4 108.64,29.38 C108.64,35.36 105.14,41.87 96.39,41.87 C87.37,41.87 83.66,35.2 83.66,29.38 C83.66,23.56 87.29,16.94 96.39,16.94 L96.39,16.94 Z M250.18,16.88 C252.43,16.88 253.86,17.5 253.86,20.16 L253.86,20.16 L253.86,38.55 C253.86,40.13 253.44,41.83 250.5,41.83 C248.2,41.83 246.77,41.21 246.77,38.55 L246.77,38.55 L246.77,20.16 C246.77,18.58 247.24,16.88 250.18,16.88 Z M260.14,16.87 C261.77,16.87 263.44,17.11 263.82,19.49 C265.584393,17.7805371 267.953506,16.8386441 270.41,16.87 C272.86,16.87 278.14,17.87 278.14,25.87 L278.14,25.87 L278.14,38.58 C278.14,40.14 277.68,41.83 274.75,41.83 C272.47,41.83 271.05,41.22 271.05,38.58 L271.05,38.58 L271.049636,27.2075159 C271.042528,25.6344557 270.896829,22.92 267.91,22.92 C266.4,22.92 263.82,23.92 263.82,27.44 L263.82,27.44 L263.82,38.58 C263.82,40.14 263.36,41.83 260.41,41.83 C258.16,41.83 256.73,41.22 256.73,38.58 L256.73,38.58 L256.73,20.24 C256.73,18.5 257.23,16.87 260.14,16.87 Z M80.36,16.8797646 C81.3138457,16.8687849 82.2285301,17.2587835 82.880823,17.9548162 C83.5331159,18.6508488 83.8630121,19.5888867 83.79,20.54 C83.79,23.98 81.36,24.17 79.28,24.32 C78.12,24.4 73.78,24.74 73.78,28.49 L73.78,28.49 L73.78,38.55 C73.78,40.13 73.32,41.83 70.37,41.83 C68.12,41.83 66.68,41.21 66.68,38.55 L66.68,38.55 L66.6807926,20.028094 C66.699892,18.4868544 67.085,16.8797646 70.06,16.8797646 C73.12,16.8797646 73.78,18.04 73.78,20.5 C75.62,18.35 77.77,16.8797646 80.36,16.8797646 Z M236.17,16.87 C238.63,16.87 243.91,17.87 243.91,25.87 L243.91,25.87 L243.91,38.58 C243.91,40.14 243.44,41.83 240.52,41.83 C238.24,41.83 236.82,41.22 236.82,38.58 L236.82,38.58 L236.819636,27.2075159 C236.812528,25.6344557 236.666829,22.92 233.68,22.92 C232.17,22.92 229.59,23.92 229.59,27.44 L229.59,27.44 L229.59,38.58 C229.59,40.14 229.13,41.83 226.18,41.83 C223.93,41.83 222.49,41.22 222.49,38.58 L222.49,38.58 L222.49,20.24 C222.49,18.5 223,16.87 225.91,16.87 C227.54,16.87 229.2,17.11 229.59,19.49 C231.350113,17.7801935 233.716347,16.838015 236.17,16.87 Z M164.16,8.21 C166.4,8.21 167.83,8.79 167.83,11.51 L167.83,11.51 L167.83,38.51 C167.83,40.1 167.4,41.82 164.46,41.82 C162.17,41.82 160.74,41.2 160.74,38.51 L160.74,38.51 L160.74,11.51 C160.74,9.91 161.21,8.21 164.16,8.21 Z M182,16.89 C190.38,16.89 193.25,22.75 193.25,25.18 C193.25,27.38 191.34,27.88 189.55,27.88 C187.12,27.88 186.79,27 186.28,25.64 C185.743397,23.9756374 184.145147,22.8881688 182.4,23 C179.09,23 177.85,25.28 177.85,29.33 C177.85,33.38 179.16,35.76 182.47,35.76 C184.230381,36.0054495 185.890382,34.8771671 186.31,33.15 C186.85,31.72 187.22,30.77 189.85,30.77 C190.66,30.77 193.32,30.92 193.32,33.38 C193.32,34.75 191.98,41.82 182.32,41.82 C172.66,41.82 170.23,34.33 170.23,29.33 C170.23,22.12 174.62,16.89 182,16.89 Z M154.44,15.86 C156.69,15.86 158.12,16.44 158.12,19.17 L158.12,19.17 L158.12,38 C158.12,39.6 157.69,41.32 154.75,41.32 C152.952416,41.32 151.684746,40.9318066 151.222691,39.4637524 C149.57461,40.3052515 147.562181,40.8 145.15,40.8 C136.12,40.8 132.42,34.13 132.42,28.31 C132.42,22.49 136.04,15.86 145.15,15.86 C147.652514,15.86 149.722199,16.3844205 151.402669,17.2726515 C151.825554,16.4553976 152.699286,15.86 154.44,15.86 Z M216.49,15.86 C218.73,15.86 220.16,16.44 220.16,19.17 L220.16,19.17 L220.16,38 C220.16,39.6 219.75,41.32 216.8,41.32 C214.995803,41.32 213.726949,40.9323386 213.263742,39.4667695 C211.614847,40.3063601 209.60223,40.8 207.19,40.8 C198.17,40.8 194.46,34.13 194.46,28.31 C194.46,22.49 198.09,15.86 207.19,15.86 C209.689702,15.86 211.757091,16.3808697 213.436251,17.2636276 C213.854336,16.451008 214.72632,15.86 216.49,15.86 Z M96.39,23 C92.7,23 91.24,26.32 91.24,29.38 C91.24,32.44 92.82,35.81 96.39,35.81 C99.96,35.81 101.54,32.48 101.54,29.38 C101.54,26.28 99.96,23 96.39,23 Z M145.15,21.92 C141.45,21.92 140,25.24 140,28.31 C140,31.38 141.59,34.75 145.15,34.75 C148.71,34.75 150.3,31.4 150.3,28.31 C150.3,25.22 148.71,21.92 145.15,21.92 Z M207.19,21.92 C203.5,21.92 202,25.24 202,28.31 C202,31.38 203.62,34.75 207.19,34.75 C210.76,34.75 212.34,31.4 212.34,28.31 C212.34,25.22 210.76,21.92 207.19,21.92 Z M250.06,8.21 C252.161245,8.23188233 253.854642,9.93864771 253.86,12.04 C253.86804,13.0511823 253.470589,14.0234271 252.756493,14.7394026 C252.042397,15.455378 251.0712,15.8553823 250.06,15.8500536 C247.950272,15.8500536 246.24,14.1397277 246.24,12.03 C246.24,9.92027226 247.950272,8.21 250.06,8.21 Z" id="形状结合" fill="#E60012"></path>
            <path d="M47.61,0 C51.36,0 61.36,2.65 61.36,11.65 L61.36,11.65 L61.36,57.17 C61.36,57.17 58,48.71 48.67,48.71 L48.67,48.71 L13.76,48.71 C6.13,48.71 0,43.66 0,38.11 L0,38.11 L0,11.65 C0,6.5 8.2,0 13.76,0 L13.76,0 Z M36.74,14.37 C35.3584256,15.0298234 34.7346002,16.6552838 35.32,18.07 L41.65,30.86 L38,37.33 C37.3,38.88 37,40.7 39.11,41.78 C39.9162383,42.0932271 40.8139061,42.0732127 41.6053827,41.7243628 C42.3968592,41.3755129 43.0172584,40.7264268 43.33,39.92 L54.33,18.19 C54.9222385,16.7780061 54.3017402,15.1497479 52.92,14.49 C52.2854091,14.2101775 51.5651026,14.1965566 50.9203863,14.4521876 C50.27567,14.7078185 49.7604123,15.2113424 49.49,15.85 L44.9,24.62 L40.17,15.72 C39.9020804,15.0794262 39.3863658,14.5745174 38.7402631,14.3202204 C38.0941604,14.0659234 37.3726536,14.0838792 36.74,14.37 Z M27.68,14.28 C25.5766417,14.235431 23.579523,15.2023786 22.31,16.88 C21.3942174,15.2645656 19.67693,14.2701453 17.82,14.28 C16.1021551,14.2732025 14.5041225,15.1593153 13.6,16.62 C13.6,14.71 12.51,14.28 10.68,14.28 C8.43,14.28 8,15.49 8,16.73 L8,31 C8,33.1 9.15,33.55 10.89,33.55 C13.13,33.55 13.56,32.29 13.56,31 L13.56,22.17 C13.56,21.06 13.74,18.81 15.79,18.81 C17.44,18.81 17.72,20.37 17.72,21.51 L17.72,31 C17.72,33.1 18.87,33.55 20.63,33.55 C22.88,33.55 23.28,32.32 23.28,31 L23.28,22.17 C23.28,21.09 23.47,18.81 25.76,18.81 C27.64,18.81 27.94,20.37 27.94,21.51 L27.94,31 C27.94,33.1 29.1,33.55 30.86,33.55 C33.11,33.55 33.5,32.29 33.5,31 L33.54,20.89 C33.54,15.46 29.8,14.28 27.68,14.28 Z" id="形状结合" fill="#4C4948"></path>
        </g>
    </g>
</svg>