<?xml version="1.0" encoding="UTF-8"?>
<svg width="329px" height="232px" viewBox="0 0 329 232" version="1.1" xmlns="http://www.w3.org/2000/svg" xmlns:xlink="http://www.w3.org/1999/xlink">
    <title>组 19</title>
    <defs>
        <ellipse id="path-1" cx="164.047" cy="54.953" rx="164.047" ry="54.953"></ellipse>
        <linearGradient x1="88.1292548%" y1="54.8762121%" x2="10.3876582%" y2="46.6907565%" id="linearGradient-3">
            <stop stop-color="#E2001A" offset="0%"></stop>
            <stop stop-color="#FFB9C1" offset="100%"></stop>
        </linearGradient>
    </defs>
    <g id="-" stroke="none" stroke-width="1" fill="none" fill-rule="evenodd">
        <g id="Sorry-We-Couldn't-Find-Any-Products-" transform="translate(-556.000000, -210.000000)">
            <g id="组-19" transform="translate(556.000000, 210.000000)">
                <g id="形状_15" transform="translate(0.000000, 121.375000)">
                    <mask id="mask-2" fill="white">
                        <use xlink:href="#path-1"></use>
                    </mask>
                    <use id="蒙版" fill="#FFB9C1" fill-rule="nonzero" xlink:href="#path-1"></use>
                    <polygon fill="url(#linearGradient-3)" mask="url(#mask-2)" transform="translate(130.591000, 32.504000) rotate(-1.000000) translate(-130.591000, -32.504000) " points="234.792932 38.3898125 174.288419 72.004 26.3890677 25.7811625 86.8935807 -6.996 182.691454 2.2481577"></polygon>
                </g>
                <polygon id="形状_4_拷贝_7" fill="#960011" points="271.491 159.926 261.65 149.262 282.156 151.723"></polygon>
                <polygon id="形状_4_拷贝_6" fill="#960011" points="245.244 196.837 232.12 181.252 255.907 188.634"></polygon>
                <polygon id="形状_4_拷贝_5" fill="#960011" points="37.725 190.275 24.601 174.69 48.388 182.069"></polygon>
                <polygon id="形状_4_拷贝_4" fill="#960011" points="80.377 155.004 67.25 139.419 91.037 146.802"></polygon>
                <polygon id="形状_3" fill="#E2001A" points="48.798 166.488 38.55 190.245 50.85 194.376"></polygon>
                <polygon id="形状_3_拷贝" fill="#FF596D" points="48.798 166.488 59.05 190.245 49.822 194.376"></polygon>
                <polygon id="形状_3-2" fill="#E2001A" points="258.777 167.308 246.064 196.655 261.32 201.755"></polygon>
                <polygon id="形状_3_拷贝-2" fill="#FF596D" points="258.777 167.308 271.491 196.655 260.049 201.755"></polygon>
                <polygon id="形状_3-3" fill="#E2001A" points="279.693 141.06 271.493 159.926 281.336 163.207"></polygon>
                <polygon id="形状_3_拷贝-3" fill="#FF596D" points="279.693 141.06 287.893 159.926 280.51 163.207"></polygon>
                <polygon id="形状_3-4" fill="#E2001A" points="87.759 134.498 79.559 153.364 89.402 156.645"></polygon>
                <polygon id="形状_3_拷贝-4" fill="#FF596D" points="87.759 134.498 95.959 153.364 88.577 156.645"></polygon>
                <path d="M259.171498,0 C265.634956,0 271.179387,3.93695934 273.53724,9.54382677 C277.622408,8.30520302 282.100342,8.785017 285.88401,10.98301 C290.126157,13.4473406 292.924436,17.7396788 293.521064,22.5311698 C293.575877,22.8542997 293.609162,23.1843681 293.62005,23.5200976 L293.624,23.764 L293.629485,23.8717763 C293.638374,24.1083478 293.641908,24.3458064 293.64,24.584 L293.579039,24.5837749 C293.171194,28.278824 290.038747,31.153 286.235,31.153 L259.407158,31.1542463 C259.328578,31.1554141 259.249858,31.156 259.171,31.156 L258.934498,31.153 L232.95,31.153 C229.146596,31.153 226.014371,28.2793423 225.606072,24.5847742 L225.557,24.584 C225.555408,24.3852823 225.557604,24.1870762 225.563537,23.98947 L225.561,23.764 C225.561,23.2615254 225.611155,22.7707652 225.706733,22.2964527 C226.364625,17.5995499 229.14033,13.4069742 233.31299,10.98301 C236.863143,8.92066939 241.024512,8.37097229 244.900492,9.3339187 C245.670394,7.57104126 246.768928,5.94936419 248.156044,4.56233699 C250.983455,1.73510753 254.785717,0.107194932 258.772714,0.00511027914 L259.171498,0 Z" id="椭圆_3_拷贝_5" fill="#FFB9C1"></path>
                <path d="M74.328,14.7498401 L74.329,14.751 C79.5631856,14.8060256 83.9740249,18.2354398 85.5120281,22.9535063 C86.5766228,22.64372 87.7026679,22.4780323 88.867,22.4780323 C95.2877341,22.4780323 100.544163,27.5165877 100.869097,33.8747966 C100.893111,34.0905189 100.906,34.3097542 100.906,34.532 C100.906,37.6386017 98.3876017,40.157 95.281,40.157 L54.031,40.157 C50.9243983,40.157 48.406,37.6386017 48.406,34.532 C48.406,33.8908313 48.5132748,33.274718 48.7108553,32.7006293 L48.388,32.701 C48.472842,26.1246541 53.8281069,20.8380323 60.405,20.8380323 C61.5165672,20.8380323 62.593239,20.9890431 63.6154687,21.2717688 C65.6031025,17.3811336 69.659959,14.7260678 74.328,14.7498401 Z" id="椭圆_3_拷贝_6" fill="#FFB9C1"></path>
                <ellipse id="椭圆_5" fill="#5A5758" fill-rule="nonzero" cx="230.062" cy="151.719" rx="10.25" ry="12.312"></ellipse>
                <path d="M146.890018,69.1268637 L239.511333,97.0737808 L188.51759,127.669261 L87.2750828,96.5817897 L146.890018,69.1268637 Z" id="形状_5" stroke="#E2001A" stroke-width="2" fill="#FFFFFF"></path>
                <polygon id="形状_6" fill="#AC1425" points="112.366 100.047 148.456 72.979 232.94 97.587 188.65 123.835"></polygon>
                <polygon id="形状_7" fill="#BD0114" points="86.119 96.769 104.165 153.369 182.907 174.695 189.469 127.121"></polygon>
                <polygon id="形状_8" fill="#E2001A" points="241.142 96.769 189.468 127.119 182.086 174.693 230.479 147.625"></polygon>
                <polygon id="形状_9" fill="#4A0702" points="227.198 149.262 232.94 152.543 181.265 183.713 109.905 161.569 113.186 159.929 181.265 180.435 226.378 153.369 223.097 150.908"></polygon>
                <polygon id="形状_13" fill="#860000" points="148.456 72.979 148.456 111.531 97.602 95.946"></polygon>
                <path d="M181.309,87.445 C181.309,87.445 182.662,49.645 218.088,44.068 C218.088,44.068 226.595,45.74 218.17,50.981 C218.17,50.981 188.244,53.318 183.93,86.281 C183.93,86.283 182.63,88.701 181.309,87.445 Z" id="形状_14_拷贝_2" fill="#FF596D"></path>
                <circle id="椭圆_6" fill="#FF596D" fill-rule="nonzero" cx="277.235" cy="100.047" r="4.109"></circle>
                <ellipse id="椭圆_6_拷贝" fill="#FF596D" fill-rule="nonzero" cx="80.375" cy="70.516" rx="4.094" ry="4.109"></ellipse>
                <circle id="椭圆_6_拷贝_2" fill="#FF596D" fill-rule="nonzero" cx="229.656" cy="47.547" r="4.094"></circle>
                <path d="M194.061,107.689 C194.061,107.689 223.99,68.528 265.85,89.304 C265.85,89.304 273.634,97.494 260.728,96.714 C260.728,96.714 227.156,76.64 197.728,108.429 C197.722,108.429 194.517,110.019 194.061,107.689 Z" id="形状_14" fill="#FF596D"></path>
                <path d="M154.409,97.383 C154.409,97.383 136.356,52.231 91.893,62.139 C91.893,62.139 82.525,68.165 94.803,70.551 C94.803,70.551 131.331,59.306 150.794,97.209 C150.794,97.208 153.389,99.525 154.409,97.383 Z" id="形状_14_拷贝" fill="#FF596D"></path>
                <path d="M100.062,151.723 L104.162,149.262 C104.162,149.262 113.71,148.338 118.106,160.746 C118.106,160.746 122.006,173.881 110.724,173.870007 C97.233,173.857 100.062,151.723 100.062,151.723 Z" id="形状_10" fill="#646562"></path>
                <path d="M101.788,152.543 C106.365,152.543 111.511,157.226 113.282,163.002 C114.354,174.359 112.782,173.461 108.201,173.461 C103.62,173.461 99.301,168.778 97.527,163.002 C95.842,157.18 97.211,152.543 101.788,152.543 Z" id="椭圆_3" fill="#888888"></path>
                <path d="M103.4,160.839 C104.446,160.358 106,161.396 106.878,163.157 C107.756,164.918 107.614,166.734 106.568,167.215 C105.522,167.696 103.968,166.658 103.089,164.897 C102.21,163.136 102.35,161.319 103.4,160.839 Z" id="椭圆_4" fill="#DFDFDF"></path>
                <path d="M162.4,172.229 L166.5,169.769 C166.5,169.769 176.049,168.844 180.444,181.252 C180.444,181.252 184.344,194.387 173.062,194.376007 C159.57,194.363 162.4,172.229 162.4,172.229 Z" id="形状_10-2" fill="#646562"></path>
                <path d="M164.126,173.05 C168.703,173.05 173.849,177.732 175.62,183.508 C176.691,194.865 175.12,193.967 170.538,193.967 C165.956,193.967 161.638,189.285 159.864,183.508 C158.179,177.687 159.55,173.05 164.126,173.05 Z" id="椭圆_3-2" fill="#888888"></path>
                <path d="M165.737,181.345 C166.784,180.864 168.337,181.902 169.216,183.663 C170.095,185.424 169.952,187.241 168.906,187.721 C167.86,188.201 166.306,187.164 165.427,185.404 C164.548,183.644 164.691,181.826 165.737,181.345 Z" id="椭圆_4-2" fill="#DFDFDF"></path>
                <path d="M68.894,72.159 C68.894,72.159 76.122,74.606 77.917,77.081 L72.996,84.463 C72.996,84.463 65.686,79.233 63.1529974,78.721 C63.15,78.721 65.75,73.056 68.894,72.159 Z" id="形状_12" fill="#4A0702"></path>
                <path d="M63.972,70.519 C63.972,70.519 60.358,74.308 60.691,77.081 C61.2275299,78.3648367 62.6230959,79.062407 63.972,78.721 L68.893,72.159 C68.893,72.159 66.454,70.177 63.972,70.518 M86.119,95.946 C86.119,95.946 82.059,87.991 79.557,86.103 L72.995,85.283 C72.995,85.283 70.89,78.066 78.737,77.083 L81.198,83.645 C84.3461429,86.9843707 86.8489699,90.8776194 88.58,95.128 L86.119,95.946 Z" id="形状_11" fill="#E2001A"></path>
                <path d="M126.31,45.911 C126.31,45.911 133.537,48.358 135.332,50.833 L130.411,58.215 C130.411,58.215 123.101,52.985 120.568,52.473 C120.568,52.469 123.17,46.808 126.31,45.911 Z" id="形状_12-2" fill="#4A0702"></path>
                <path d="M121.389,44.269 C121.389,44.269 117.775,48.059 118.108,50.831 C118.645253,52.1140492 120.040625,52.8106718 121.389,52.469 L126.31,45.907 C126.31,45.907 123.871,43.925 121.389,44.266 M143.535,69.694 C143.535,69.694 139.475,61.739 136.973,59.851 L130.411,59.031 C130.411,59.031 128.311,51.814 136.153,50.831 L138.613,57.393 C141.761411,60.7325402 144.264264,64.6261685 145.995,68.877 L143.535,69.694 Z" id="形状_11-2" fill="#E2001A"></path>
            </g>
        </g>
    </g>
</svg>